<?xml version="1.0" encoding="UTF-8" standalone="no"?><svg xmlns="http://www.w3.org/2000/svg" xmlns:xlink="http://www.w3.org/1999/xlink" clip-rule="evenodd" stroke-miterlimit="4.00" viewBox="0 0 338 107"><desc>SVG generated by Keynote</desc><defs></defs><g transform="matrix(1.00, 0.00, -0.00, -1.00, 0.0, 107.0)"><text xml:space="preserve" font-family="YandexSansText-Light" font-size="72.0" fill="#000000" transform="matrix(1.00, 0.00, -0.00, -1.00, 0.6, 38.9)">›</text><text xml:space="preserve" font-family="YandexSansText-Light" font-size="48.0" fill="#000000" transform="matrix(1.00, 0.00, -0.00, -1.00, 61.0, 43.0)">t</text><text xml:space="preserve" font-family="YandexSansText-Light" font-size="48.0" fill="#000000" transform="matrix(1.00, 0.00, -0.00, -1.00, 78.1, 43.0)">.</text><text xml:space="preserve" font-family="YandexSansText-Light" font-size="48.0" fill="#000000" transform="matrix(1.00, 0.00, -0.00, -1.00, 90.5, 43.0)">m</text><text xml:space="preserve" font-family="YandexSansText-Light" font-size="48.0" fill="#000000" transform="matrix(1.00, 0.00, -0.00, -1.00, 133.5, 43.0)">e</text><text xml:space="preserve" font-family="YandexSansText-Light" font-size="48.0" fill="#000000" transform="matrix(1.00, 0.00, -0.00, -1.00, 159.4, 43.0)">/</text><text xml:space="preserve" font-family="YandexSansText-Light" font-size="48.0" fill="#000000" transform="matrix(1.00, 0.00, -0.00, -1.00, 177.6, 43.0)">b</text><text xml:space="preserve" font-family="YandexSansText-Light" font-size="48.0" fill="#000000" transform="matrix(1.00, 0.00, -0.00, -1.00, 207.1, 43.0)">e</text><text xml:space="preserve" font-family="YandexSansText-Light" font-size="48.0" fill="#000000" transform="matrix(1.00, 0.00, -0.00, -1.00, 233.0, 43.0)">m</text><text xml:space="preserve" font-family="YandexSansText-Light" font-size="48.0" fill="#000000" transform="matrix(1.00, 0.00, -0.00, -1.00, 276.0, 43.0)">_</text><text xml:space="preserve" font-family="YandexSansText-Light" font-size="48.0" fill="#000000" transform="matrix(1.00, 0.00, -0.00, -1.00, 294.1, 43.0)">r</text><text xml:space="preserve" font-family="YandexSansText-Light" font-size="48.0" fill="#000000" transform="matrix(1.00, 0.00, -0.00, -1.00, 311.0, 43.0)">u</text><g><clipPath id="clip-413"><path d="M 59.6 33.9 L 338.0 33.9 L 338.0 38.1 L 59.6 38.1 Z M 59.6 33.9 "></path></clipPath><g clip-path="url(#clip-413)"><path d="M 94.0 426.8 L 371.4 426.8 " fill="none" stroke="#000000" stroke-width="2.21" stroke-miterlimit="0.00" transform="matrix(1.00, 0.00, 0.00, -1.00, -33.4, 462.8)"></path></g></g></g></svg>