<?xml version="1.0" encoding="UTF-8" standalone="no"?><svg xmlns="http://www.w3.org/2000/svg" xmlns:xlink="http://www.w3.org/1999/xlink" clip-rule="evenodd" stroke-miterlimit="4.00" viewBox="0 0 910 230"><desc>SVG generated by Keynote</desc><defs></defs><g transform="matrix(1.00, 0.00, -0.00, -1.00, 0.0, 230.0)"><text xml:space="preserve" font-family="PTMono-Bold" font-weight="bold" font-size="36.0" fill="#000000" transform="matrix(1.00, 0.00, -0.00, -1.00, 0.0, 202.0)">i</text><text xml:space="preserve" font-family="PTMono-Bold" font-weight="bold" font-size="36.0" fill="#000000" transform="matrix(1.00, 0.00, -0.00, -1.00, 21.6, 202.0)">n</text><text xml:space="preserve" font-family="PTMono-Bold" font-weight="bold" font-size="36.0" fill="#000000" transform="matrix(1.00, 0.00, -0.00, -1.00, 43.2, 202.0)">d</text><text xml:space="preserve" font-family="PTMono-Bold" font-weight="bold" font-size="36.0" fill="#000000" transform="matrix(1.00, 0.00, -0.00, -1.00, 64.8, 202.0)">e</text><text xml:space="preserve" font-family="PTMono-Bold" font-weight="bold" font-size="36.0" fill="#000000" transform="matrix(1.00, 0.00, -0.00, -1.00, 86.4, 202.0)">x</text><text xml:space="preserve" font-family="PTMono-Bold" font-weight="bold" font-size="36.0" fill="#000000" transform="matrix(1.00, 0.00, -0.00, -1.00, 108.0, 202.0)">.</text><text xml:space="preserve" font-family="PTMono-Bold" font-weight="bold" font-size="36.0" fill="#000000" transform="matrix(1.00, 0.00, -0.00, -1.00, 129.6, 202.0)">j</text><text xml:space="preserve" font-family="PTMono-Bold" font-weight="bold" font-size="36.0" fill="#000000" transform="matrix(1.00, 0.00, -0.00, -1.00, 151.2, 202.0)">s</text><text xml:space="preserve" font-family="PTMono-Bold" font-weight="bold" font-size="36.0" fill="#000000" transform="matrix(1.00, 0.00, -0.00, -1.00, 172.8, 202.0)"> </text><text xml:space="preserve" font-family="PTMono-Regular" font-size="36.0" fill="#000000" transform="matrix(1.00, 0.00, -0.00, -1.00, 0.0, 106.0)">r</text><text xml:space="preserve" font-family="PTMono-Regular" font-size="36.0" fill="#000000" transform="matrix(1.00, 0.00, -0.00, -1.00, 21.6, 106.0)">e</text><text xml:space="preserve" font-family="PTMono-Regular" font-size="36.0" fill="#000000" transform="matrix(1.00, 0.00, -0.00, -1.00, 43.2, 106.0)">q</text><text xml:space="preserve" font-family="PTMono-Regular" font-size="36.0" fill="#000000" transform="matrix(1.00, 0.00, -0.00, -1.00, 64.8, 106.0)">u</text><text xml:space="preserve" font-family="PTMono-Regular" font-size="36.0" fill="#000000" transform="matrix(1.00, 0.00, -0.00, -1.00, 86.4, 106.0)">i</text><text xml:space="preserve" font-family="PTMono-Regular" font-size="36.0" fill="#000000" transform="matrix(1.00, 0.00, -0.00, -1.00, 108.0, 106.0)">r</text><text xml:space="preserve" font-family="PTMono-Regular" font-size="36.0" fill="#000000" transform="matrix(1.00, 0.00, -0.00, -1.00, 129.6, 106.0)">e</text><text xml:space="preserve" font-family="PTMono-Regular" font-size="36.0" fill="#000000" transform="matrix(1.00, 0.00, -0.00, -1.00, 151.2, 106.0)">(</text><text xml:space="preserve" font-family="PTMono-Regular" font-size="36.0" fill="#000000" transform="matrix(1.00, 0.00, -0.00, -1.00, 172.8, 106.0)">'</text><text xml:space="preserve" font-family="PTMono-Regular" font-size="36.0" fill="#00872A" transform="matrix(1.00, 0.00, -0.00, -1.00, 194.4, 106.0)">.</text><text xml:space="preserve" font-family="PTMono-Regular" font-size="36.0" fill="#00872A" transform="matrix(1.00, 0.00, -0.00, -1.00, 216.0, 106.0)">.</text><text xml:space="preserve" font-family="PTMono-Regular" font-size="36.0" fill="#00872A" transform="matrix(1.00, 0.00, -0.00, -1.00, 237.6, 106.0)">/</text><text xml:space="preserve" font-family="PTMono-Regular" font-size="36.0" fill="#00872A" transform="matrix(1.00, 0.00, -0.00, -1.00, 259.2, 106.0)">.</text><text xml:space="preserve" font-family="PTMono-Regular" font-size="36.0" fill="#00872A" transform="matrix(1.00, 0.00, -0.00, -1.00, 280.8, 106.0)">.</text><text xml:space="preserve" font-family="PTMono-Regular" font-size="36.0" fill="#00872A" transform="matrix(1.00, 0.00, -0.00, -1.00, 302.4, 106.0)">/</text><text xml:space="preserve" font-family="PTMono-Regular" font-size="36.0" fill="#00872A" transform="matrix(1.00, 0.00, -0.00, -1.00, 324.0, 106.0)">p</text><text xml:space="preserve" font-family="PTMono-Regular" font-size="36.0" fill="#00872A" transform="matrix(1.00, 0.00, -0.00, -1.00, 345.6, 106.0)">a</text><text xml:space="preserve" font-family="PTMono-Regular" font-size="36.0" fill="#00872A" transform="matrix(1.00, 0.00, -0.00, -1.00, 367.2, 106.0)">t</text><text xml:space="preserve" font-family="PTMono-Regular" font-size="36.0" fill="#00872A" transform="matrix(1.00, 0.00, -0.00, -1.00, 388.8, 106.0)">h</text><text xml:space="preserve" font-family="PTMono-Regular" font-size="36.0" fill="#00872A" transform="matrix(1.00, 0.00, -0.00, -1.00, 410.4, 106.0)">/</text><text xml:space="preserve" font-family="PTMono-Regular" font-size="36.0" fill="#00872A" transform="matrix(1.00, 0.00, -0.00, -1.00, 432.0, 106.0)">t</text><text xml:space="preserve" font-family="PTMono-Regular" font-size="36.0" fill="#00872A" transform="matrix(1.00, 0.00, -0.00, -1.00, 453.6, 106.0)">o</text><text xml:space="preserve" font-family="PTMono-Regular" font-size="36.0" fill="#00872A" transform="matrix(1.00, 0.00, -0.00, -1.00, 475.2, 106.0)">/</text><text xml:space="preserve" font-family="PTMono-Bold" font-weight="bold" font-size="36.0" fill="#00872A" transform="matrix(1.00, 0.00, -0.00, -1.00, 496.8, 106.0)">b</text><text xml:space="preserve" font-family="PTMono-Bold" font-weight="bold" font-size="36.0" fill="#00872A" transform="matrix(1.00, 0.00, -0.00, -1.00, 518.4, 106.0)">u</text><text xml:space="preserve" font-family="PTMono-Bold" font-weight="bold" font-size="36.0" fill="#00872A" transform="matrix(1.00, 0.00, -0.00, -1.00, 540.0, 106.0)">t</text><text xml:space="preserve" font-family="PTMono-Bold" font-weight="bold" font-size="36.0" fill="#00872A" transform="matrix(1.00, 0.00, -0.00, -1.00, 561.6, 106.0)">t</text><text xml:space="preserve" font-family="PTMono-Bold" font-weight="bold" font-size="36.0" fill="#00872A" transform="matrix(1.00, 0.00, -0.00, -1.00, 583.2, 106.0)">o</text><text xml:space="preserve" font-family="PTMono-Bold" font-weight="bold" font-size="36.0" fill="#00872A" transform="matrix(1.00, 0.00, -0.00, -1.00, 604.8, 106.0)">n</text><text xml:space="preserve" font-family="PTMono-Regular" font-size="36.0" fill="#00872A" transform="matrix(1.00, 0.00, -0.00, -1.00, 626.4, 106.0)">/</text><text xml:space="preserve" font-family="PTMono-Bold" font-weight="bold" font-size="36.0" fill="#00872A" transform="matrix(1.00, 0.00, -0.00, -1.00, 648.0, 106.0)">b</text><text xml:space="preserve" font-family="PTMono-Bold" font-weight="bold" font-size="36.0" fill="#00872A" transform="matrix(1.00, 0.00, -0.00, -1.00, 669.6, 106.0)">u</text><text xml:space="preserve" font-family="PTMono-Bold" font-weight="bold" font-size="36.0" fill="#00872A" transform="matrix(1.00, 0.00, -0.00, -1.00, 691.2, 106.0)">t</text><text xml:space="preserve" font-family="PTMono-Bold" font-weight="bold" font-size="36.0" fill="#00872A" transform="matrix(1.00, 0.00, -0.00, -1.00, 712.8, 106.0)">t</text><text xml:space="preserve" font-family="PTMono-Bold" font-weight="bold" font-size="36.0" fill="#00872A" transform="matrix(1.00, 0.00, -0.00, -1.00, 734.4, 106.0)">o</text><text xml:space="preserve" font-family="PTMono-Bold" font-weight="bold" font-size="36.0" fill="#00872A" transform="matrix(1.00, 0.00, -0.00, -1.00, 756.0, 106.0)">n</text><text xml:space="preserve" font-family="PTMono-Regular" font-size="36.0" fill="#00872A" transform="matrix(1.00, 0.00, -0.00, -1.00, 777.6, 106.0)">.</text><text xml:space="preserve" font-family="PTMono-Regular" font-size="36.0" fill="#00872A" transform="matrix(1.00, 0.00, -0.00, -1.00, 799.2, 106.0)">j</text><text xml:space="preserve" font-family="PTMono-Regular" font-size="36.0" fill="#00872A" transform="matrix(1.00, 0.00, -0.00, -1.00, 820.8, 106.0)">s</text><text xml:space="preserve" font-family="PTMono-Regular" font-size="36.0" fill="#000000" transform="matrix(1.00, 0.00, -0.00, -1.00, 842.4, 106.0)">'</text><text xml:space="preserve" font-family="PTMono-Regular" font-size="36.0" fill="#000000" transform="matrix(1.00, 0.00, -0.00, -1.00, 864.0, 106.0)">)</text><text xml:space="preserve" font-family="PTMono-Regular" font-size="36.0" fill="#000000" transform="matrix(1.00, 0.00, -0.00, -1.00, 885.6, 106.0)">;</text><text xml:space="preserve" font-family="PTMono-Regular" font-size="36.0" fill="#000000" transform="matrix(1.00, 0.00, -0.00, -1.00, 907.2, 106.0)"> </text><text xml:space="preserve" font-family="PTMono-Regular" font-size="36.0" fill="#000000" transform="matrix(1.00, 0.00, -0.00, -1.00, 0.0, 58.0)">r</text><text xml:space="preserve" font-family="PTMono-Regular" font-size="36.0" fill="#000000" transform="matrix(1.00, 0.00, -0.00, -1.00, 21.6, 58.0)">e</text><text xml:space="preserve" font-family="PTMono-Regular" font-size="36.0" fill="#000000" transform="matrix(1.00, 0.00, -0.00, -1.00, 43.2, 58.0)">q</text><text xml:space="preserve" font-family="PTMono-Regular" font-size="36.0" fill="#000000" transform="matrix(1.00, 0.00, -0.00, -1.00, 64.8, 58.0)">u</text><text xml:space="preserve" font-family="PTMono-Regular" font-size="36.0" fill="#000000" transform="matrix(1.00, 0.00, -0.00, -1.00, 86.4, 58.0)">i</text><text xml:space="preserve" font-family="PTMono-Regular" font-size="36.0" fill="#000000" transform="matrix(1.00, 0.00, -0.00, -1.00, 108.0, 58.0)">r</text><text xml:space="preserve" font-family="PTMono-Regular" font-size="36.0" fill="#000000" transform="matrix(1.00, 0.00, -0.00, -1.00, 129.6, 58.0)">e</text><text xml:space="preserve" font-family="PTMono-Regular" font-size="36.0" fill="#000000" transform="matrix(1.00, 0.00, -0.00, -1.00, 151.2, 58.0)">(</text><text xml:space="preserve" font-family="PTMono-Regular" font-size="36.0" fill="#000000" transform="matrix(1.00, 0.00, -0.00, -1.00, 172.8, 58.0)">'</text><text xml:space="preserve" font-family="PTMono-Regular" font-size="36.0" fill="#00872A" transform="matrix(1.00, 0.00, -0.00, -1.00, 194.4, 58.0)">.</text><text xml:space="preserve" font-family="PTMono-Regular" font-size="36.0" fill="#00872A" transform="matrix(1.00, 0.00, -0.00, -1.00, 216.0, 58.0)">.</text><text xml:space="preserve" font-family="PTMono-Regular" font-size="36.0" fill="#00872A" transform="matrix(1.00, 0.00, -0.00, -1.00, 237.6, 58.0)">/</text><text xml:space="preserve" font-family="PTMono-Regular" font-size="36.0" fill="#00872A" transform="matrix(1.00, 0.00, -0.00, -1.00, 259.2, 58.0)">.</text><text xml:space="preserve" font-family="PTMono-Regular" font-size="36.0" fill="#00872A" transform="matrix(1.00, 0.00, -0.00, -1.00, 280.8, 58.0)">.</text><text xml:space="preserve" font-family="PTMono-Regular" font-size="36.0" fill="#00872A" transform="matrix(1.00, 0.00, -0.00, -1.00, 302.4, 58.0)">/</text><text xml:space="preserve" font-family="PTMono-Regular" font-size="36.0" fill="#00872A" transform="matrix(1.00, 0.00, -0.00, -1.00, 324.0, 58.0)">p</text><text xml:space="preserve" font-family="PTMono-Regular" font-size="36.0" fill="#00872A" transform="matrix(1.00, 0.00, -0.00, -1.00, 345.6, 58.0)">a</text><text xml:space="preserve" font-family="PTMono-Regular" font-size="36.0" fill="#00872A" transform="matrix(1.00, 0.00, -0.00, -1.00, 367.2, 58.0)">t</text><text xml:space="preserve" font-family="PTMono-Regular" font-size="36.0" fill="#00872A" transform="matrix(1.00, 0.00, -0.00, -1.00, 388.8, 58.0)">h</text><text xml:space="preserve" font-family="PTMono-Regular" font-size="36.0" fill="#00872A" transform="matrix(1.00, 0.00, -0.00, -1.00, 410.4, 58.0)">/</text><text xml:space="preserve" font-family="PTMono-Regular" font-size="36.0" fill="#00872A" transform="matrix(1.00, 0.00, -0.00, -1.00, 432.0, 58.0)">t</text><text xml:space="preserve" font-family="PTMono-Regular" font-size="36.0" fill="#00872A" transform="matrix(1.00, 0.00, -0.00, -1.00, 453.6, 58.0)">o</text><text xml:space="preserve" font-family="PTMono-Regular" font-size="36.0" fill="#00872A" transform="matrix(1.00, 0.00, -0.00, -1.00, 475.2, 58.0)">/</text><text xml:space="preserve" font-family="PTMono-Bold" font-weight="bold" font-size="36.0" fill="#00872A" transform="matrix(1.00, 0.00, -0.00, -1.00, 496.8, 58.0)">l</text><text xml:space="preserve" font-family="PTMono-Bold" font-weight="bold" font-size="36.0" fill="#00872A" transform="matrix(1.00, 0.00, -0.00, -1.00, 518.4, 58.0)">i</text><text xml:space="preserve" font-family="PTMono-Bold" font-weight="bold" font-size="36.0" fill="#00872A" transform="matrix(1.00, 0.00, -0.00, -1.00, 540.0, 58.0)">n</text><text xml:space="preserve" font-family="PTMono-Bold" font-weight="bold" font-size="36.0" fill="#00872A" transform="matrix(1.00, 0.00, -0.00, -1.00, 561.6, 58.0)">k</text><text xml:space="preserve" font-family="PTMono-Regular" font-size="36.0" fill="#00872A" transform="matrix(1.00, 0.00, -0.00, -1.00, 583.2, 58.0)">/</text><text xml:space="preserve" font-family="PTMono-Bold" font-weight="bold" font-size="36.0" fill="#00872A" transform="matrix(1.00, 0.00, -0.00, -1.00, 604.8, 58.0)">l</text><text xml:space="preserve" font-family="PTMono-Bold" font-weight="bold" font-size="36.0" fill="#00872A" transform="matrix(1.00, 0.00, -0.00, -1.00, 626.4, 58.0)">i</text><text xml:space="preserve" font-family="PTMono-Bold" font-weight="bold" font-size="36.0" fill="#00872A" transform="matrix(1.00, 0.00, -0.00, -1.00, 648.0, 58.0)">n</text><text xml:space="preserve" font-family="PTMono-Bold" font-weight="bold" font-size="36.0" fill="#00872A" transform="matrix(1.00, 0.00, -0.00, -1.00, 669.6, 58.0)">k</text><text xml:space="preserve" font-family="PTMono-Regular" font-size="36.0" fill="#00872A" transform="matrix(1.00, 0.00, -0.00, -1.00, 691.2, 58.0)">.</text><text xml:space="preserve" font-family="PTMono-Regular" font-size="36.0" fill="#00872A" transform="matrix(1.00, 0.00, -0.00, -1.00, 712.8, 58.0)">j</text><text xml:space="preserve" font-family="PTMono-Regular" font-size="36.0" fill="#00872A" transform="matrix(1.00, 0.00, -0.00, -1.00, 734.4, 58.0)">s</text><text xml:space="preserve" font-family="PTMono-Regular" font-size="36.0" fill="#000000" transform="matrix(1.00, 0.00, -0.00, -1.00, 756.0, 58.0)">'</text><text xml:space="preserve" font-family="PTMono-Regular" font-size="36.0" fill="#000000" transform="matrix(1.00, 0.00, -0.00, -1.00, 777.6, 58.0)">)</text><text xml:space="preserve" font-family="PTMono-Regular" font-size="36.0" fill="#000000" transform="matrix(1.00, 0.00, -0.00, -1.00, 799.2, 58.0)">;</text><text xml:space="preserve" font-family="PTMono-Regular" font-size="36.0" fill="#000000" transform="matrix(1.00, 0.00, -0.00, -1.00, 820.8, 58.0)"> </text><text xml:space="preserve" font-family="PTMono-Regular" font-size="36.0" fill="#52575F" transform="matrix(1.00, 0.00, -0.00, -1.00, 0.0, 10.0)">/</text><text xml:space="preserve" font-family="PTMono-Regular" font-size="36.0" fill="#52575F" transform="matrix(1.00, 0.00, -0.00, -1.00, 21.6, 10.0)">*</text><text xml:space="preserve" font-family="PTMono-Regular" font-size="36.0" fill="#52575F" transform="matrix(1.00, 0.00, -0.00, -1.00, 43.2, 10.0)"> </text><text xml:space="preserve" font-family="PTMono-Regular" font-size="36.0" fill="#52575F" transform="matrix(1.00, 0.00, -0.00, -1.00, 64.8, 10.0)">p</text><text xml:space="preserve" font-family="PTMono-Regular" font-size="36.0" fill="#52575F" transform="matrix(1.00, 0.00, -0.00, -1.00, 86.4, 10.0)">r</text><text xml:space="preserve" font-family="PTMono-Regular" font-size="36.0" fill="#52575F" transform="matrix(1.00, 0.00, -0.00, -1.00, 108.0, 10.0)">o</text><text xml:space="preserve" font-family="PTMono-Regular" font-size="36.0" fill="#52575F" transform="matrix(1.00, 0.00, -0.00, -1.00, 129.6, 10.0)">j</text><text xml:space="preserve" font-family="PTMono-Regular" font-size="36.0" fill="#52575F" transform="matrix(1.00, 0.00, -0.00, -1.00, 151.2, 10.0)">e</text><text xml:space="preserve" font-family="PTMono-Regular" font-size="36.0" fill="#52575F" transform="matrix(1.00, 0.00, -0.00, -1.00, 172.8, 10.0)">c</text><text xml:space="preserve" font-family="PTMono-Regular" font-size="36.0" fill="#52575F" transform="matrix(1.00, 0.00, -0.00, -1.00, 194.4, 10.0)">t</text><text xml:space="preserve" font-family="PTMono-Regular" font-size="36.0" fill="#52575F" transform="matrix(1.00, 0.00, -0.00, -1.00, 216.0, 10.0)"> </text><text xml:space="preserve" font-family="PTMono-Regular" font-size="36.0" fill="#52575F" transform="matrix(1.00, 0.00, -0.00, -1.00, 237.6, 10.0)">l</text><text xml:space="preserve" font-family="PTMono-Regular" font-size="36.0" fill="#52575F" transform="matrix(1.00, 0.00, -0.00, -1.00, 259.2, 10.0)">o</text><text xml:space="preserve" font-family="PTMono-Regular" font-size="36.0" fill="#52575F" transform="matrix(1.00, 0.00, -0.00, -1.00, 280.8, 10.0)">g</text><text xml:space="preserve" font-family="PTMono-Regular" font-size="36.0" fill="#52575F" transform="matrix(1.00, 0.00, -0.00, -1.00, 302.4, 10.0)">i</text><text xml:space="preserve" font-family="PTMono-Regular" font-size="36.0" fill="#52575F" transform="matrix(1.00, 0.00, -0.00, -1.00, 324.0, 10.0)">c</text><text xml:space="preserve" font-family="PTMono-Regular" font-size="36.0" fill="#52575F" transform="matrix(1.00, 0.00, -0.00, -1.00, 345.6, 10.0)"> </text><text xml:space="preserve" font-family="PTMono-Regular" font-size="36.0" fill="#52575F" transform="matrix(1.00, 0.00, -0.00, -1.00, 367.2, 10.0)">*</text><text xml:space="preserve" font-family="PTMono-Regular" font-size="36.0" fill="#52575F" transform="matrix(1.00, 0.00, -0.00, -1.00, 388.8, 10.0)">/</text></g></svg>