<?xml version="1.0" encoding="UTF-8" standalone="no"?><svg xmlns="http://www.w3.org/2000/svg" xmlns:xlink="http://www.w3.org/1999/xlink" clip-rule="evenodd" stroke-miterlimit="4.00" viewBox="0 0 1920 1080"><desc>SVG generated by Keynote</desc><defs></defs><g transform="matrix(1.00, 0.00, -0.00, -1.00, 0.0, 1080.0)"><path d="M 0.0 1080.0 L 1920.0 1080.0 L 1920.0 0.0 L 0.0 0.0 Z M 0.0 1080.0 " fill="#FEFFFF"></path><text xml:space="preserve" font-family="PTMono-Bold" font-weight="bold" font-size="36.0" fill="#000000" transform="matrix(1.00, 0.00, -0.00, -1.00, 126.0, 797.0)">i</text><text xml:space="preserve" font-family="PTMono-Bold" font-weight="bold" font-size="36.0" fill="#000000" transform="matrix(1.00, 0.00, -0.00, -1.00, 147.6, 797.0)">n</text><text xml:space="preserve" font-family="PTMono-Bold" font-weight="bold" font-size="36.0" fill="#000000" transform="matrix(1.00, 0.00, -0.00, -1.00, 169.2, 797.0)">d</text><text xml:space="preserve" font-family="PTMono-Bold" font-weight="bold" font-size="36.0" fill="#000000" transform="matrix(1.00, 0.00, -0.00, -1.00, 190.8, 797.0)">e</text><text xml:space="preserve" font-family="PTMono-Bold" font-weight="bold" font-size="36.0" fill="#000000" transform="matrix(1.00, 0.00, -0.00, -1.00, 212.4, 797.0)">x</text><text xml:space="preserve" font-family="PTMono-Bold" font-weight="bold" font-size="36.0" fill="#000000" transform="matrix(1.00, 0.00, -0.00, -1.00, 234.0, 797.0)">.</text><text xml:space="preserve" font-family="PTMono-Bold" font-weight="bold" font-size="36.0" fill="#000000" transform="matrix(1.00, 0.00, -0.00, -1.00, 255.6, 797.0)">c</text><text xml:space="preserve" font-family="PTMono-Bold" font-weight="bold" font-size="36.0" fill="#000000" transform="matrix(1.00, 0.00, -0.00, -1.00, 277.2, 797.0)">s</text><text xml:space="preserve" font-family="PTMono-Bold" font-weight="bold" font-size="36.0" fill="#000000" transform="matrix(1.00, 0.00, -0.00, -1.00, 298.8, 797.0)">s</text><text xml:space="preserve" font-family="PTMono-Bold" font-weight="bold" font-size="36.0" fill="#000000" transform="matrix(1.00, 0.00, -0.00, -1.00, 320.4, 797.0)"> </text><text xml:space="preserve" font-family="PTMono-Regular" font-size="36.0" fill="#A37511" transform="matrix(1.00, 0.00, -0.00, -1.00, 126.0, 701.0)">@</text><text xml:space="preserve" font-family="PTMono-Regular" font-size="36.0" fill="#A37511" transform="matrix(1.00, 0.00, -0.00, -1.00, 147.6, 701.0)">i</text><text xml:space="preserve" font-family="PTMono-Regular" font-size="36.0" fill="#A37511" transform="matrix(1.00, 0.00, -0.00, -1.00, 169.2, 701.0)">m</text><text xml:space="preserve" font-family="PTMono-Regular" font-size="36.0" fill="#A37511" transform="matrix(1.00, 0.00, -0.00, -1.00, 190.8, 701.0)">p</text><text xml:space="preserve" font-family="PTMono-Regular" font-size="36.0" fill="#A37511" transform="matrix(1.00, 0.00, -0.00, -1.00, 212.4, 701.0)">o</text><text xml:space="preserve" font-family="PTMono-Regular" font-size="36.0" fill="#A37511" transform="matrix(1.00, 0.00, -0.00, -1.00, 234.0, 701.0)">r</text><text xml:space="preserve" font-family="PTMono-Regular" font-size="36.0" fill="#A37511" transform="matrix(1.00, 0.00, -0.00, -1.00, 255.6, 701.0)">t</text><text xml:space="preserve" font-family="PTMono-Regular" font-size="36.0" fill="#000000" transform="matrix(1.00, 0.00, -0.00, -1.00, 277.2, 701.0)"> </text><text xml:space="preserve" font-family="PTMono-Regular" font-size="36.0" fill="#A6AAA8" transform="matrix(1.00, 0.00, -0.00, -1.00, 298.8, 701.0)">"</text><text xml:space="preserve" font-family="PTMono-Regular" font-size="36.0" fill="#00872A" transform="matrix(1.00, 0.00, -0.00, -1.00, 320.4, 701.0)">.</text><text xml:space="preserve" font-family="PTMono-Regular" font-size="36.0" fill="#00872A" transform="matrix(1.00, 0.00, -0.00, -1.00, 342.0, 701.0)">.</text><text xml:space="preserve" font-family="PTMono-Regular" font-size="36.0" fill="#00872A" transform="matrix(1.00, 0.00, -0.00, -1.00, 363.6, 701.0)">/</text><text xml:space="preserve" font-family="PTMono-Regular" font-size="36.0" fill="#00872A" transform="matrix(1.00, 0.00, -0.00, -1.00, 385.2, 701.0)">.</text><text xml:space="preserve" font-family="PTMono-Regular" font-size="36.0" fill="#00872A" transform="matrix(1.00, 0.00, -0.00, -1.00, 406.8, 701.0)">.</text><text xml:space="preserve" font-family="PTMono-Regular" font-size="36.0" fill="#00872A" transform="matrix(1.00, 0.00, -0.00, -1.00, 428.4, 701.0)">/</text><text xml:space="preserve" font-family="PTMono-Regular" font-size="36.0" fill="#00872A" transform="matrix(1.00, 0.00, -0.00, -1.00, 450.0, 701.0)">p</text><text xml:space="preserve" font-family="PTMono-Regular" font-size="36.0" fill="#00872A" transform="matrix(1.00, 0.00, -0.00, -1.00, 471.6, 701.0)">a</text><text xml:space="preserve" font-family="PTMono-Regular" font-size="36.0" fill="#00872A" transform="matrix(1.00, 0.00, -0.00, -1.00, 493.2, 701.0)">t</text><text xml:space="preserve" font-family="PTMono-Regular" font-size="36.0" fill="#00872A" transform="matrix(1.00, 0.00, -0.00, -1.00, 514.8, 701.0)">h</text><text xml:space="preserve" font-family="PTMono-Regular" font-size="36.0" fill="#00872A" transform="matrix(1.00, 0.00, -0.00, -1.00, 536.4, 701.0)">/</text><text xml:space="preserve" font-family="PTMono-Regular" font-size="36.0" fill="#00872A" transform="matrix(1.00, 0.00, -0.00, -1.00, 558.0, 701.0)">t</text><text xml:space="preserve" font-family="PTMono-Regular" font-size="36.0" fill="#00872A" transform="matrix(1.00, 0.00, -0.00, -1.00, 579.6, 701.0)">o</text><text xml:space="preserve" font-family="PTMono-Regular" font-size="36.0" fill="#00872A" transform="matrix(1.00, 0.00, -0.00, -1.00, 601.2, 701.0)">/</text><text xml:space="preserve" font-family="PTMono-Bold" font-weight="bold" font-size="36.0" fill="#00872A" transform="matrix(1.00, 0.00, -0.00, -1.00, 622.8, 701.0)">b</text><text xml:space="preserve" font-family="PTMono-Bold" font-weight="bold" font-size="36.0" fill="#00872A" transform="matrix(1.00, 0.00, -0.00, -1.00, 644.4, 701.0)">u</text><text xml:space="preserve" font-family="PTMono-Bold" font-weight="bold" font-size="36.0" fill="#00872A" transform="matrix(1.00, 0.00, -0.00, -1.00, 666.0, 701.0)">t</text><text xml:space="preserve" font-family="PTMono-Bold" font-weight="bold" font-size="36.0" fill="#00872A" transform="matrix(1.00, 0.00, -0.00, -1.00, 687.6, 701.0)">t</text><text xml:space="preserve" font-family="PTMono-Bold" font-weight="bold" font-size="36.0" fill="#00872A" transform="matrix(1.00, 0.00, -0.00, -1.00, 709.2, 701.0)">o</text><text xml:space="preserve" font-family="PTMono-Bold" font-weight="bold" font-size="36.0" fill="#00872A" transform="matrix(1.00, 0.00, -0.00, -1.00, 730.8, 701.0)">n</text><text xml:space="preserve" font-family="PTMono-Regular" font-size="36.0" fill="#00872A" transform="matrix(1.00, 0.00, -0.00, -1.00, 752.4, 701.0)">/</text><text xml:space="preserve" font-family="PTMono-Bold" font-weight="bold" font-size="36.0" fill="#00872A" transform="matrix(1.00, 0.00, -0.00, -1.00, 774.0, 701.0)">b</text><text xml:space="preserve" font-family="PTMono-Bold" font-weight="bold" font-size="36.0" fill="#00872A" transform="matrix(1.00, 0.00, -0.00, -1.00, 795.6, 701.0)">u</text><text xml:space="preserve" font-family="PTMono-Bold" font-weight="bold" font-size="36.0" fill="#00872A" transform="matrix(1.00, 0.00, -0.00, -1.00, 817.2, 701.0)">t</text><text xml:space="preserve" font-family="PTMono-Bold" font-weight="bold" font-size="36.0" fill="#00872A" transform="matrix(1.00, 0.00, -0.00, -1.00, 838.8, 701.0)">t</text><text xml:space="preserve" font-family="PTMono-Bold" font-weight="bold" font-size="36.0" fill="#00872A" transform="matrix(1.00, 0.00, -0.00, -1.00, 860.4, 701.0)">o</text><text xml:space="preserve" font-family="PTMono-Bold" font-weight="bold" font-size="36.0" fill="#00872A" transform="matrix(1.00, 0.00, -0.00, -1.00, 882.0, 701.0)">n</text><text xml:space="preserve" font-family="PTMono-Regular" font-size="36.0" fill="#00872A" transform="matrix(1.00, 0.00, -0.00, -1.00, 903.6, 701.0)">.</text><text xml:space="preserve" font-family="PTMono-Regular" font-size="36.0" fill="#00872A" transform="matrix(1.00, 0.00, -0.00, -1.00, 925.2, 701.0)">c</text><text xml:space="preserve" font-family="PTMono-Regular" font-size="36.0" fill="#00872A" transform="matrix(1.00, 0.00, -0.00, -1.00, 946.8, 701.0)">s</text><text xml:space="preserve" font-family="PTMono-Regular" font-size="36.0" fill="#00872A" transform="matrix(1.00, 0.00, -0.00, -1.00, 968.4, 701.0)">s</text><text xml:space="preserve" font-family="PTMono-Regular" font-size="36.0" fill="#A6AAA8" transform="matrix(1.00, 0.00, -0.00, -1.00, 990.0, 701.0)">"</text><text xml:space="preserve" font-family="PTMono-Regular" font-size="36.0" fill="#A6AAA8" transform="matrix(1.00, 0.00, -0.00, -1.00, 1011.6, 701.0)">;</text><text xml:space="preserve" font-family="PTMono-Regular" font-size="36.0" fill="#000000" transform="matrix(1.00, 0.00, -0.00, -1.00, 1033.2, 701.0)"> </text><text xml:space="preserve" font-family="PTMono-Regular" font-size="36.0" fill="#A37511" transform="matrix(1.00, 0.00, -0.00, -1.00, 126.0, 653.0)">@</text><text xml:space="preserve" font-family="PTMono-Regular" font-size="36.0" fill="#A37511" transform="matrix(1.00, 0.00, -0.00, -1.00, 147.6, 653.0)">i</text><text xml:space="preserve" font-family="PTMono-Regular" font-size="36.0" fill="#A37511" transform="matrix(1.00, 0.00, -0.00, -1.00, 169.2, 653.0)">m</text><text xml:space="preserve" font-family="PTMono-Regular" font-size="36.0" fill="#A37511" transform="matrix(1.00, 0.00, -0.00, -1.00, 190.8, 653.0)">p</text><text xml:space="preserve" font-family="PTMono-Regular" font-size="36.0" fill="#A37511" transform="matrix(1.00, 0.00, -0.00, -1.00, 212.4, 653.0)">o</text><text xml:space="preserve" font-family="PTMono-Regular" font-size="36.0" fill="#A37511" transform="matrix(1.00, 0.00, -0.00, -1.00, 234.0, 653.0)">r</text><text xml:space="preserve" font-family="PTMono-Regular" font-size="36.0" fill="#A37511" transform="matrix(1.00, 0.00, -0.00, -1.00, 255.6, 653.0)">t</text><text xml:space="preserve" font-family="PTMono-Regular" font-size="36.0" fill="#000000" transform="matrix(1.00, 0.00, -0.00, -1.00, 277.2, 653.0)"> </text><text xml:space="preserve" font-family="PTMono-Regular" font-size="36.0" fill="#A6AAA8" transform="matrix(1.00, 0.00, -0.00, -1.00, 298.8, 653.0)">"</text><text xml:space="preserve" font-family="PTMono-Regular" font-size="36.0" fill="#00872A" transform="matrix(1.00, 0.00, -0.00, -1.00, 320.4, 653.0)">.</text><text xml:space="preserve" font-family="PTMono-Regular" font-size="36.0" fill="#00872A" transform="matrix(1.00, 0.00, -0.00, -1.00, 342.0, 653.0)">.</text><text xml:space="preserve" font-family="PTMono-Regular" font-size="36.0" fill="#00872A" transform="matrix(1.00, 0.00, -0.00, -1.00, 363.6, 653.0)">/</text><text xml:space="preserve" font-family="PTMono-Regular" font-size="36.0" fill="#00872A" transform="matrix(1.00, 0.00, -0.00, -1.00, 385.2, 653.0)">.</text><text xml:space="preserve" font-family="PTMono-Regular" font-size="36.0" fill="#00872A" transform="matrix(1.00, 0.00, -0.00, -1.00, 406.8, 653.0)">.</text><text xml:space="preserve" font-family="PTMono-Regular" font-size="36.0" fill="#00872A" transform="matrix(1.00, 0.00, -0.00, -1.00, 428.4, 653.0)">/</text><text xml:space="preserve" font-family="PTMono-Regular" font-size="36.0" fill="#00872A" transform="matrix(1.00, 0.00, -0.00, -1.00, 450.0, 653.0)">p</text><text xml:space="preserve" font-family="PTMono-Regular" font-size="36.0" fill="#00872A" transform="matrix(1.00, 0.00, -0.00, -1.00, 471.6, 653.0)">a</text><text xml:space="preserve" font-family="PTMono-Regular" font-size="36.0" fill="#00872A" transform="matrix(1.00, 0.00, -0.00, -1.00, 493.2, 653.0)">t</text><text xml:space="preserve" font-family="PTMono-Regular" font-size="36.0" fill="#00872A" transform="matrix(1.00, 0.00, -0.00, -1.00, 514.8, 653.0)">h</text><text xml:space="preserve" font-family="PTMono-Regular" font-size="36.0" fill="#00872A" transform="matrix(1.00, 0.00, -0.00, -1.00, 536.4, 653.0)">/</text><text xml:space="preserve" font-family="PTMono-Regular" font-size="36.0" fill="#00872A" transform="matrix(1.00, 0.00, -0.00, -1.00, 558.0, 653.0)">t</text><text xml:space="preserve" font-family="PTMono-Regular" font-size="36.0" fill="#00872A" transform="matrix(1.00, 0.00, -0.00, -1.00, 579.6, 653.0)">o</text><text xml:space="preserve" font-family="PTMono-Regular" font-size="36.0" fill="#00872A" transform="matrix(1.00, 0.00, -0.00, -1.00, 601.2, 653.0)">/</text><text xml:space="preserve" font-family="PTMono-Bold" font-weight="bold" font-size="36.0" fill="#00872A" transform="matrix(1.00, 0.00, -0.00, -1.00, 622.8, 653.0)">l</text><text xml:space="preserve" font-family="PTMono-Bold" font-weight="bold" font-size="36.0" fill="#00872A" transform="matrix(1.00, 0.00, -0.00, -1.00, 644.4, 653.0)">i</text><text xml:space="preserve" font-family="PTMono-Bold" font-weight="bold" font-size="36.0" fill="#00872A" transform="matrix(1.00, 0.00, -0.00, -1.00, 666.0, 653.0)">n</text><text xml:space="preserve" font-family="PTMono-Bold" font-weight="bold" font-size="36.0" fill="#00872A" transform="matrix(1.00, 0.00, -0.00, -1.00, 687.6, 653.0)">k</text><text xml:space="preserve" font-family="PTMono-Regular" font-size="36.0" fill="#00872A" transform="matrix(1.00, 0.00, -0.00, -1.00, 709.2, 653.0)">/</text><text xml:space="preserve" font-family="PTMono-Bold" font-weight="bold" font-size="36.0" fill="#00872A" transform="matrix(1.00, 0.00, -0.00, -1.00, 730.8, 653.0)">l</text><text xml:space="preserve" font-family="PTMono-Bold" font-weight="bold" font-size="36.0" fill="#00872A" transform="matrix(1.00, 0.00, -0.00, -1.00, 752.4, 653.0)">i</text><text xml:space="preserve" font-family="PTMono-Bold" font-weight="bold" font-size="36.0" fill="#00872A" transform="matrix(1.00, 0.00, -0.00, -1.00, 774.0, 653.0)">n</text><text xml:space="preserve" font-family="PTMono-Bold" font-weight="bold" font-size="36.0" fill="#00872A" transform="matrix(1.00, 0.00, -0.00, -1.00, 795.6, 653.0)">k</text><text xml:space="preserve" font-family="PTMono-Regular" font-size="36.0" fill="#00872A" transform="matrix(1.00, 0.00, -0.00, -1.00, 817.2, 653.0)">.</text><text xml:space="preserve" font-family="PTMono-Regular" font-size="36.0" fill="#00872A" transform="matrix(1.00, 0.00, -0.00, -1.00, 838.8, 653.0)">c</text><text xml:space="preserve" font-family="PTMono-Regular" font-size="36.0" fill="#00872A" transform="matrix(1.00, 0.00, -0.00, -1.00, 860.4, 653.0)">s</text><text xml:space="preserve" font-family="PTMono-Regular" font-size="36.0" fill="#00872A" transform="matrix(1.00, 0.00, -0.00, -1.00, 882.0, 653.0)">s</text><text xml:space="preserve" font-family="PTMono-Regular" font-size="36.0" fill="#A6AAA8" transform="matrix(1.00, 0.00, -0.00, -1.00, 903.6, 653.0)">"</text><text xml:space="preserve" font-family="PTMono-Regular" font-size="36.0" fill="#A6AAA8" transform="matrix(1.00, 0.00, -0.00, -1.00, 925.2, 653.0)">;</text><text xml:space="preserve" font-family="PTMono-Regular" font-size="36.0" fill="#000000" transform="matrix(1.00, 0.00, -0.00, -1.00, 946.8, 653.0)"> </text><text xml:space="preserve" font-family="PTMono-Regular" font-size="36.0" fill="#52575F" transform="matrix(1.00, 0.00, -0.00, -1.00, 126.0, 605.0)">/</text><text xml:space="preserve" font-family="PTMono-Regular" font-size="36.0" fill="#52575F" transform="matrix(1.00, 0.00, -0.00, -1.00, 147.6, 605.0)">*</text><text xml:space="preserve" font-family="PTMono-Regular" font-size="36.0" fill="#52575F" transform="matrix(1.00, 0.00, -0.00, -1.00, 169.2, 605.0)"> </text><text xml:space="preserve" font-family="PTMono-Regular" font-size="36.0" fill="#52575F" transform="matrix(1.00, 0.00, -0.00, -1.00, 190.8, 605.0)">p</text><text xml:space="preserve" font-family="PTMono-Regular" font-size="36.0" fill="#52575F" transform="matrix(1.00, 0.00, -0.00, -1.00, 212.4, 605.0)">r</text><text xml:space="preserve" font-family="PTMono-Regular" font-size="36.0" fill="#52575F" transform="matrix(1.00, 0.00, -0.00, -1.00, 234.0, 605.0)">o</text><text xml:space="preserve" font-family="PTMono-Regular" font-size="36.0" fill="#52575F" transform="matrix(1.00, 0.00, -0.00, -1.00, 255.6, 605.0)">j</text><text xml:space="preserve" font-family="PTMono-Regular" font-size="36.0" fill="#52575F" transform="matrix(1.00, 0.00, -0.00, -1.00, 277.2, 605.0)">e</text><text xml:space="preserve" font-family="PTMono-Regular" font-size="36.0" fill="#52575F" transform="matrix(1.00, 0.00, -0.00, -1.00, 298.8, 605.0)">c</text><text xml:space="preserve" font-family="PTMono-Regular" font-size="36.0" fill="#52575F" transform="matrix(1.00, 0.00, -0.00, -1.00, 320.4, 605.0)">t</text><text xml:space="preserve" font-family="PTMono-Regular" font-size="36.0" fill="#52575F" transform="matrix(1.00, 0.00, -0.00, -1.00, 342.0, 605.0)"> </text><text xml:space="preserve" font-family="PTMono-Regular" font-size="36.0" fill="#52575F" transform="matrix(1.00, 0.00, -0.00, -1.00, 363.6, 605.0)">s</text><text xml:space="preserve" font-family="PTMono-Regular" font-size="36.0" fill="#52575F" transform="matrix(1.00, 0.00, -0.00, -1.00, 385.2, 605.0)">t</text><text xml:space="preserve" font-family="PTMono-Regular" font-size="36.0" fill="#52575F" transform="matrix(1.00, 0.00, -0.00, -1.00, 406.8, 605.0)">y</text><text xml:space="preserve" font-family="PTMono-Regular" font-size="36.0" fill="#52575F" transform="matrix(1.00, 0.00, -0.00, -1.00, 428.4, 605.0)">l</text><text xml:space="preserve" font-family="PTMono-Regular" font-size="36.0" fill="#52575F" transform="matrix(1.00, 0.00, -0.00, -1.00, 450.0, 605.0)">e</text><text xml:space="preserve" font-family="PTMono-Regular" font-size="36.0" fill="#52575F" transform="matrix(1.00, 0.00, -0.00, -1.00, 471.6, 605.0)">s</text><text xml:space="preserve" font-family="PTMono-Regular" font-size="36.0" fill="#52575F" transform="matrix(1.00, 0.00, -0.00, -1.00, 493.2, 605.0)"> </text><text xml:space="preserve" font-family="PTMono-Regular" font-size="36.0" fill="#52575F" transform="matrix(1.00, 0.00, -0.00, -1.00, 514.8, 605.0)">*</text><text xml:space="preserve" font-family="PTMono-Regular" font-size="36.0" fill="#52575F" transform="matrix(1.00, 0.00, -0.00, -1.00, 536.4, 605.0)">/</text><text xml:space="preserve" font-family="YandexSansText-Regular" font-size="80.0" fill="#000000" transform="matrix(1.00, 0.00, -0.00, -1.00, 94.0, 932.0)">Б</text><text xml:space="preserve" font-family="YandexSansText-Regular" font-size="80.0" fill="#000000" transform="matrix(1.00, 0.00, -0.00, -1.00, 143.7, 932.0)">ы</text><text xml:space="preserve" font-family="YandexSansText-Regular" font-size="80.0" fill="#000000" transform="matrix(1.00, 0.00, -0.00, -1.00, 199.8, 932.0)">л</text><text xml:space="preserve" font-family="YandexSansText-Regular" font-size="80.0" fill="#000000" transform="matrix(1.00, 0.00, -0.00, -1.00, 244.1, 932.0)">о</text><text xml:space="preserve" font-family="YandexSansText-Regular" font-size="80.0" fill="#000000" transform="matrix(1.00, 0.00, -0.00, -1.00, 290.6, 932.0)"> </text><text xml:space="preserve" font-family="YandexSansText-Light" font-size="30.0" fill="#000000" transform="matrix(1.00, 0.00, -0.00, -1.00, 1792.6, 48.1)">1</text><text xml:space="preserve" font-family="YandexSansText-Light" font-size="30.0" fill="#000000" transform="matrix(1.00, 0.00, -0.00, -1.00, 1809.2, 48.1)">4</text><text xml:space="preserve" font-family="PTMono-Bold" font-weight="bold" font-size="36.0" fill="#000000" transform="matrix(1.00, 0.00, -0.00, -1.00, 125.0, 474.0)">i</text><text xml:space="preserve" font-family="PTMono-Bold" font-weight="bold" font-size="36.0" fill="#000000" transform="matrix(1.00, 0.00, -0.00, -1.00, 146.6, 474.0)">n</text><text xml:space="preserve" font-family="PTMono-Bold" font-weight="bold" font-size="36.0" fill="#000000" transform="matrix(1.00, 0.00, -0.00, -1.00, 168.2, 474.0)">d</text><text xml:space="preserve" font-family="PTMono-Bold" font-weight="bold" font-size="36.0" fill="#000000" transform="matrix(1.00, 0.00, -0.00, -1.00, 189.8, 474.0)">e</text><text xml:space="preserve" font-family="PTMono-Bold" font-weight="bold" font-size="36.0" fill="#000000" transform="matrix(1.00, 0.00, -0.00, -1.00, 211.4, 474.0)">x</text><text xml:space="preserve" font-family="PTMono-Bold" font-weight="bold" font-size="36.0" fill="#000000" transform="matrix(1.00, 0.00, -0.00, -1.00, 233.0, 474.0)">.</text><text xml:space="preserve" font-family="PTMono-Bold" font-weight="bold" font-size="36.0" fill="#000000" transform="matrix(1.00, 0.00, -0.00, -1.00, 254.6, 474.0)">j</text><text xml:space="preserve" font-family="PTMono-Bold" font-weight="bold" font-size="36.0" fill="#000000" transform="matrix(1.00, 0.00, -0.00, -1.00, 276.2, 474.0)">s</text><text xml:space="preserve" font-family="PTMono-Bold" font-weight="bold" font-size="36.0" fill="#000000" transform="matrix(1.00, 0.00, -0.00, -1.00, 297.8, 474.0)"> </text><text xml:space="preserve" font-family="PTMono-Regular" font-size="36.0" fill="#000000" transform="matrix(1.00, 0.00, -0.00, -1.00, 125.0, 378.0)">r</text><text xml:space="preserve" font-family="PTMono-Regular" font-size="36.0" fill="#000000" transform="matrix(1.00, 0.00, -0.00, -1.00, 146.6, 378.0)">e</text><text xml:space="preserve" font-family="PTMono-Regular" font-size="36.0" fill="#000000" transform="matrix(1.00, 0.00, -0.00, -1.00, 168.2, 378.0)">q</text><text xml:space="preserve" font-family="PTMono-Regular" font-size="36.0" fill="#000000" transform="matrix(1.00, 0.00, -0.00, -1.00, 189.8, 378.0)">u</text><text xml:space="preserve" font-family="PTMono-Regular" font-size="36.0" fill="#000000" transform="matrix(1.00, 0.00, -0.00, -1.00, 211.4, 378.0)">i</text><text xml:space="preserve" font-family="PTMono-Regular" font-size="36.0" fill="#000000" transform="matrix(1.00, 0.00, -0.00, -1.00, 233.0, 378.0)">r</text><text xml:space="preserve" font-family="PTMono-Regular" font-size="36.0" fill="#000000" transform="matrix(1.00, 0.00, -0.00, -1.00, 254.6, 378.0)">e</text><text xml:space="preserve" font-family="PTMono-Regular" font-size="36.0" fill="#000000" transform="matrix(1.00, 0.00, -0.00, -1.00, 276.2, 378.0)">(</text><text xml:space="preserve" font-family="PTMono-Regular" font-size="36.0" fill="#000000" transform="matrix(1.00, 0.00, -0.00, -1.00, 297.8, 378.0)">'</text><text xml:space="preserve" font-family="PTMono-Regular" font-size="36.0" fill="#00872A" transform="matrix(1.00, 0.00, -0.00, -1.00, 319.4, 378.0)">.</text><text xml:space="preserve" font-family="PTMono-Regular" font-size="36.0" fill="#00872A" transform="matrix(1.00, 0.00, -0.00, -1.00, 341.0, 378.0)">.</text><text xml:space="preserve" font-family="PTMono-Regular" font-size="36.0" fill="#00872A" transform="matrix(1.00, 0.00, -0.00, -1.00, 362.6, 378.0)">/</text><text xml:space="preserve" font-family="PTMono-Regular" font-size="36.0" fill="#00872A" transform="matrix(1.00, 0.00, -0.00, -1.00, 384.2, 378.0)">.</text><text xml:space="preserve" font-family="PTMono-Regular" font-size="36.0" fill="#00872A" transform="matrix(1.00, 0.00, -0.00, -1.00, 405.8, 378.0)">.</text><text xml:space="preserve" font-family="PTMono-Regular" font-size="36.0" fill="#00872A" transform="matrix(1.00, 0.00, -0.00, -1.00, 427.4, 378.0)">/</text><text xml:space="preserve" font-family="PTMono-Regular" font-size="36.0" fill="#00872A" transform="matrix(1.00, 0.00, -0.00, -1.00, 449.0, 378.0)">p</text><text xml:space="preserve" font-family="PTMono-Regular" font-size="36.0" fill="#00872A" transform="matrix(1.00, 0.00, -0.00, -1.00, 470.6, 378.0)">a</text><text xml:space="preserve" font-family="PTMono-Regular" font-size="36.0" fill="#00872A" transform="matrix(1.00, 0.00, -0.00, -1.00, 492.2, 378.0)">t</text><text xml:space="preserve" font-family="PTMono-Regular" font-size="36.0" fill="#00872A" transform="matrix(1.00, 0.00, -0.00, -1.00, 513.8, 378.0)">h</text><text xml:space="preserve" font-family="PTMono-Regular" font-size="36.0" fill="#00872A" transform="matrix(1.00, 0.00, -0.00, -1.00, 535.4, 378.0)">/</text><text xml:space="preserve" font-family="PTMono-Regular" font-size="36.0" fill="#00872A" transform="matrix(1.00, 0.00, -0.00, -1.00, 557.0, 378.0)">t</text><text xml:space="preserve" font-family="PTMono-Regular" font-size="36.0" fill="#00872A" transform="matrix(1.00, 0.00, -0.00, -1.00, 578.6, 378.0)">o</text><text xml:space="preserve" font-family="PTMono-Regular" font-size="36.0" fill="#00872A" transform="matrix(1.00, 0.00, -0.00, -1.00, 600.2, 378.0)">/</text><text xml:space="preserve" font-family="PTMono-Bold" font-weight="bold" font-size="36.0" fill="#00872A" transform="matrix(1.00, 0.00, -0.00, -1.00, 621.8, 378.0)">b</text><text xml:space="preserve" font-family="PTMono-Bold" font-weight="bold" font-size="36.0" fill="#00872A" transform="matrix(1.00, 0.00, -0.00, -1.00, 643.4, 378.0)">u</text><text xml:space="preserve" font-family="PTMono-Bold" font-weight="bold" font-size="36.0" fill="#00872A" transform="matrix(1.00, 0.00, -0.00, -1.00, 665.0, 378.0)">t</text><text xml:space="preserve" font-family="PTMono-Bold" font-weight="bold" font-size="36.0" fill="#00872A" transform="matrix(1.00, 0.00, -0.00, -1.00, 686.6, 378.0)">t</text><text xml:space="preserve" font-family="PTMono-Bold" font-weight="bold" font-size="36.0" fill="#00872A" transform="matrix(1.00, 0.00, -0.00, -1.00, 708.2, 378.0)">o</text><text xml:space="preserve" font-family="PTMono-Bold" font-weight="bold" font-size="36.0" fill="#00872A" transform="matrix(1.00, 0.00, -0.00, -1.00, 729.8, 378.0)">n</text><text xml:space="preserve" font-family="PTMono-Regular" font-size="36.0" fill="#00872A" transform="matrix(1.00, 0.00, -0.00, -1.00, 751.4, 378.0)">/</text><text xml:space="preserve" font-family="PTMono-Bold" font-weight="bold" font-size="36.0" fill="#00872A" transform="matrix(1.00, 0.00, -0.00, -1.00, 773.0, 378.0)">b</text><text xml:space="preserve" font-family="PTMono-Bold" font-weight="bold" font-size="36.0" fill="#00872A" transform="matrix(1.00, 0.00, -0.00, -1.00, 794.6, 378.0)">u</text><text xml:space="preserve" font-family="PTMono-Bold" font-weight="bold" font-size="36.0" fill="#00872A" transform="matrix(1.00, 0.00, -0.00, -1.00, 816.2, 378.0)">t</text><text xml:space="preserve" font-family="PTMono-Bold" font-weight="bold" font-size="36.0" fill="#00872A" transform="matrix(1.00, 0.00, -0.00, -1.00, 837.8, 378.0)">t</text><text xml:space="preserve" font-family="PTMono-Bold" font-weight="bold" font-size="36.0" fill="#00872A" transform="matrix(1.00, 0.00, -0.00, -1.00, 859.4, 378.0)">o</text><text xml:space="preserve" font-family="PTMono-Bold" font-weight="bold" font-size="36.0" fill="#00872A" transform="matrix(1.00, 0.00, -0.00, -1.00, 881.0, 378.0)">n</text><text xml:space="preserve" font-family="PTMono-Regular" font-size="36.0" fill="#00872A" transform="matrix(1.00, 0.00, -0.00, -1.00, 902.6, 378.0)">.</text><text xml:space="preserve" font-family="PTMono-Regular" font-size="36.0" fill="#00872A" transform="matrix(1.00, 0.00, -0.00, -1.00, 924.2, 378.0)">j</text><text xml:space="preserve" font-family="PTMono-Regular" font-size="36.0" fill="#00872A" transform="matrix(1.00, 0.00, -0.00, -1.00, 945.8, 378.0)">s</text><text xml:space="preserve" font-family="PTMono-Regular" font-size="36.0" fill="#000000" transform="matrix(1.00, 0.00, -0.00, -1.00, 967.4, 378.0)">'</text><text xml:space="preserve" font-family="PTMono-Regular" font-size="36.0" fill="#000000" transform="matrix(1.00, 0.00, -0.00, -1.00, 989.0, 378.0)">)</text><text xml:space="preserve" font-family="PTMono-Regular" font-size="36.0" fill="#000000" transform="matrix(1.00, 0.00, -0.00, -1.00, 1010.6, 378.0)">;</text><text xml:space="preserve" font-family="PTMono-Regular" font-size="36.0" fill="#000000" transform="matrix(1.00, 0.00, -0.00, -1.00, 1032.2, 378.0)"> </text><text xml:space="preserve" font-family="PTMono-Regular" font-size="36.0" fill="#000000" transform="matrix(1.00, 0.00, -0.00, -1.00, 125.0, 330.0)">r</text><text xml:space="preserve" font-family="PTMono-Regular" font-size="36.0" fill="#000000" transform="matrix(1.00, 0.00, -0.00, -1.00, 146.6, 330.0)">e</text><text xml:space="preserve" font-family="PTMono-Regular" font-size="36.0" fill="#000000" transform="matrix(1.00, 0.00, -0.00, -1.00, 168.2, 330.0)">q</text><text xml:space="preserve" font-family="PTMono-Regular" font-size="36.0" fill="#000000" transform="matrix(1.00, 0.00, -0.00, -1.00, 189.8, 330.0)">u</text><text xml:space="preserve" font-family="PTMono-Regular" font-size="36.0" fill="#000000" transform="matrix(1.00, 0.00, -0.00, -1.00, 211.4, 330.0)">i</text><text xml:space="preserve" font-family="PTMono-Regular" font-size="36.0" fill="#000000" transform="matrix(1.00, 0.00, -0.00, -1.00, 233.0, 330.0)">r</text><text xml:space="preserve" font-family="PTMono-Regular" font-size="36.0" fill="#000000" transform="matrix(1.00, 0.00, -0.00, -1.00, 254.6, 330.0)">e</text><text xml:space="preserve" font-family="PTMono-Regular" font-size="36.0" fill="#000000" transform="matrix(1.00, 0.00, -0.00, -1.00, 276.2, 330.0)">(</text><text xml:space="preserve" font-family="PTMono-Regular" font-size="36.0" fill="#000000" transform="matrix(1.00, 0.00, -0.00, -1.00, 297.8, 330.0)">'</text><text xml:space="preserve" font-family="PTMono-Regular" font-size="36.0" fill="#00872A" transform="matrix(1.00, 0.00, -0.00, -1.00, 319.4, 330.0)">.</text><text xml:space="preserve" font-family="PTMono-Regular" font-size="36.0" fill="#00872A" transform="matrix(1.00, 0.00, -0.00, -1.00, 341.0, 330.0)">.</text><text xml:space="preserve" font-family="PTMono-Regular" font-size="36.0" fill="#00872A" transform="matrix(1.00, 0.00, -0.00, -1.00, 362.6, 330.0)">/</text><text xml:space="preserve" font-family="PTMono-Regular" font-size="36.0" fill="#00872A" transform="matrix(1.00, 0.00, -0.00, -1.00, 384.2, 330.0)">.</text><text xml:space="preserve" font-family="PTMono-Regular" font-size="36.0" fill="#00872A" transform="matrix(1.00, 0.00, -0.00, -1.00, 405.8, 330.0)">.</text><text xml:space="preserve" font-family="PTMono-Regular" font-size="36.0" fill="#00872A" transform="matrix(1.00, 0.00, -0.00, -1.00, 427.4, 330.0)">/</text><text xml:space="preserve" font-family="PTMono-Regular" font-size="36.0" fill="#00872A" transform="matrix(1.00, 0.00, -0.00, -1.00, 449.0, 330.0)">p</text><text xml:space="preserve" font-family="PTMono-Regular" font-size="36.0" fill="#00872A" transform="matrix(1.00, 0.00, -0.00, -1.00, 470.6, 330.0)">a</text><text xml:space="preserve" font-family="PTMono-Regular" font-size="36.0" fill="#00872A" transform="matrix(1.00, 0.00, -0.00, -1.00, 492.2, 330.0)">t</text><text xml:space="preserve" font-family="PTMono-Regular" font-size="36.0" fill="#00872A" transform="matrix(1.00, 0.00, -0.00, -1.00, 513.8, 330.0)">h</text><text xml:space="preserve" font-family="PTMono-Regular" font-size="36.0" fill="#00872A" transform="matrix(1.00, 0.00, -0.00, -1.00, 535.4, 330.0)">/</text><text xml:space="preserve" font-family="PTMono-Regular" font-size="36.0" fill="#00872A" transform="matrix(1.00, 0.00, -0.00, -1.00, 557.0, 330.0)">t</text><text xml:space="preserve" font-family="PTMono-Regular" font-size="36.0" fill="#00872A" transform="matrix(1.00, 0.00, -0.00, -1.00, 578.6, 330.0)">o</text><text xml:space="preserve" font-family="PTMono-Regular" font-size="36.0" fill="#00872A" transform="matrix(1.00, 0.00, -0.00, -1.00, 600.2, 330.0)">/</text><text xml:space="preserve" font-family="PTMono-Bold" font-weight="bold" font-size="36.0" fill="#00872A" transform="matrix(1.00, 0.00, -0.00, -1.00, 621.8, 330.0)">l</text><text xml:space="preserve" font-family="PTMono-Bold" font-weight="bold" font-size="36.0" fill="#00872A" transform="matrix(1.00, 0.00, -0.00, -1.00, 643.4, 330.0)">i</text><text xml:space="preserve" font-family="PTMono-Bold" font-weight="bold" font-size="36.0" fill="#00872A" transform="matrix(1.00, 0.00, -0.00, -1.00, 665.0, 330.0)">n</text><text xml:space="preserve" font-family="PTMono-Bold" font-weight="bold" font-size="36.0" fill="#00872A" transform="matrix(1.00, 0.00, -0.00, -1.00, 686.6, 330.0)">k</text><text xml:space="preserve" font-family="PTMono-Regular" font-size="36.0" fill="#00872A" transform="matrix(1.00, 0.00, -0.00, -1.00, 708.2, 330.0)">/</text><text xml:space="preserve" font-family="PTMono-Bold" font-weight="bold" font-size="36.0" fill="#00872A" transform="matrix(1.00, 0.00, -0.00, -1.00, 729.8, 330.0)">l</text><text xml:space="preserve" font-family="PTMono-Bold" font-weight="bold" font-size="36.0" fill="#00872A" transform="matrix(1.00, 0.00, -0.00, -1.00, 751.4, 330.0)">i</text><text xml:space="preserve" font-family="PTMono-Bold" font-weight="bold" font-size="36.0" fill="#00872A" transform="matrix(1.00, 0.00, -0.00, -1.00, 773.0, 330.0)">n</text><text xml:space="preserve" font-family="PTMono-Bold" font-weight="bold" font-size="36.0" fill="#00872A" transform="matrix(1.00, 0.00, -0.00, -1.00, 794.6, 330.0)">k</text><text xml:space="preserve" font-family="PTMono-Regular" font-size="36.0" fill="#00872A" transform="matrix(1.00, 0.00, -0.00, -1.00, 816.2, 330.0)">.</text><text xml:space="preserve" font-family="PTMono-Regular" font-size="36.0" fill="#00872A" transform="matrix(1.00, 0.00, -0.00, -1.00, 837.8, 330.0)">j</text><text xml:space="preserve" font-family="PTMono-Regular" font-size="36.0" fill="#00872A" transform="matrix(1.00, 0.00, -0.00, -1.00, 859.4, 330.0)">s</text><text xml:space="preserve" font-family="PTMono-Regular" font-size="36.0" fill="#000000" transform="matrix(1.00, 0.00, -0.00, -1.00, 881.0, 330.0)">'</text><text xml:space="preserve" font-family="PTMono-Regular" font-size="36.0" fill="#000000" transform="matrix(1.00, 0.00, -0.00, -1.00, 902.6, 330.0)">)</text><text xml:space="preserve" font-family="PTMono-Regular" font-size="36.0" fill="#000000" transform="matrix(1.00, 0.00, -0.00, -1.00, 924.2, 330.0)">;</text><text xml:space="preserve" font-family="PTMono-Regular" font-size="36.0" fill="#000000" transform="matrix(1.00, 0.00, -0.00, -1.00, 945.8, 330.0)"> </text><text xml:space="preserve" font-family="PTMono-Regular" font-size="36.0" fill="#52575F" transform="matrix(1.00, 0.00, -0.00, -1.00, 125.0, 282.0)">/</text><text xml:space="preserve" font-family="PTMono-Regular" font-size="36.0" fill="#52575F" transform="matrix(1.00, 0.00, -0.00, -1.00, 146.6, 282.0)">*</text><text xml:space="preserve" font-family="PTMono-Regular" font-size="36.0" fill="#52575F" transform="matrix(1.00, 0.00, -0.00, -1.00, 168.2, 282.0)"> </text><text xml:space="preserve" font-family="PTMono-Regular" font-size="36.0" fill="#52575F" transform="matrix(1.00, 0.00, -0.00, -1.00, 189.8, 282.0)">p</text><text xml:space="preserve" font-family="PTMono-Regular" font-size="36.0" fill="#52575F" transform="matrix(1.00, 0.00, -0.00, -1.00, 211.4, 282.0)">r</text><text xml:space="preserve" font-family="PTMono-Regular" font-size="36.0" fill="#52575F" transform="matrix(1.00, 0.00, -0.00, -1.00, 233.0, 282.0)">o</text><text xml:space="preserve" font-family="PTMono-Regular" font-size="36.0" fill="#52575F" transform="matrix(1.00, 0.00, -0.00, -1.00, 254.6, 282.0)">j</text><text xml:space="preserve" font-family="PTMono-Regular" font-size="36.0" fill="#52575F" transform="matrix(1.00, 0.00, -0.00, -1.00, 276.2, 282.0)">e</text><text xml:space="preserve" font-family="PTMono-Regular" font-size="36.0" fill="#52575F" transform="matrix(1.00, 0.00, -0.00, -1.00, 297.8, 282.0)">c</text><text xml:space="preserve" font-family="PTMono-Regular" font-size="36.0" fill="#52575F" transform="matrix(1.00, 0.00, -0.00, -1.00, 319.4, 282.0)">t</text><text xml:space="preserve" font-family="PTMono-Regular" font-size="36.0" fill="#52575F" transform="matrix(1.00, 0.00, -0.00, -1.00, 341.0, 282.0)"> </text><text xml:space="preserve" font-family="PTMono-Regular" font-size="36.0" fill="#52575F" transform="matrix(1.00, 0.00, -0.00, -1.00, 362.6, 282.0)">l</text><text xml:space="preserve" font-family="PTMono-Regular" font-size="36.0" fill="#52575F" transform="matrix(1.00, 0.00, -0.00, -1.00, 384.2, 282.0)">o</text><text xml:space="preserve" font-family="PTMono-Regular" font-size="36.0" fill="#52575F" transform="matrix(1.00, 0.00, -0.00, -1.00, 405.8, 282.0)">g</text><text xml:space="preserve" font-family="PTMono-Regular" font-size="36.0" fill="#52575F" transform="matrix(1.00, 0.00, -0.00, -1.00, 427.4, 282.0)">i</text><text xml:space="preserve" font-family="PTMono-Regular" font-size="36.0" fill="#52575F" transform="matrix(1.00, 0.00, -0.00, -1.00, 449.0, 282.0)">c</text><text xml:space="preserve" font-family="PTMono-Regular" font-size="36.0" fill="#52575F" transform="matrix(1.00, 0.00, -0.00, -1.00, 470.6, 282.0)"> </text><text xml:space="preserve" font-family="PTMono-Regular" font-size="36.0" fill="#52575F" transform="matrix(1.00, 0.00, -0.00, -1.00, 492.2, 282.0)">*</text><text xml:space="preserve" font-family="PTMono-Regular" font-size="36.0" fill="#52575F" transform="matrix(1.00, 0.00, -0.00, -1.00, 513.8, 282.0)">/</text></g></svg>