<?xml version="1.0" encoding="UTF-8" standalone="no"?><svg xmlns="http://www.w3.org/2000/svg" xmlns:xlink="http://www.w3.org/1999/xlink" clip-rule="evenodd" stroke-miterlimit="4.00" viewBox="0 0 442 329"><desc>SVG generated by Keynote</desc><defs></defs><g transform="matrix(1.00, 0.00, -0.00, -1.00, 0.0, 329.0)"><g><clipPath id="clip-497"><path d="M 0.9 1.0 L 441.8 1.0 L 441.8 103.0 L 0.9 103.0 Z M 0.9 1.0 "></path></clipPath><g clip-path="url(#clip-497)"><path d="M 1.9 102.0 L 440.8 102.0 L 440.8 2.0 L 1.9 2.0 Z M 1.9 102.0 " fill="#FFCC00"></path></g></g><g><clipPath id="clip-498"><path d="M -9.2 2.0 L 451.9 2.0 L 451.9 102.0 L -9.2 102.0 Z M -9.2 2.0 "></path></clipPath><g clip-path="url(#clip-498)"><text xml:space="preserve" font-family="YandexSansText-Light" font-size="48.0" fill="#000000" transform="matrix(1.00, 0.00, -0.00, -1.00, 146.0, 37.0)">T</text><text xml:space="preserve" font-family="YandexSansText-Light" font-size="48.0" fill="#000000" transform="matrix(1.00, 0.00, -0.00, -1.00, 173.0, 37.0)">M</text><text xml:space="preserve" font-family="YandexSansText-Light" font-size="48.0" fill="#000000" transform="matrix(1.00, 0.00, -0.00, -1.00, 214.7, 37.0)">P</text><text xml:space="preserve" font-family="YandexSansText-Light" font-size="48.0" fill="#000000" transform="matrix(1.00, 0.00, -0.00, -1.00, 242.7, 37.0)">L</text><text xml:space="preserve" font-family="YandexSansText-Light" font-size="48.0" fill="#000000" transform="matrix(1.00, 0.00, -0.00, -1.00, 269.4, 37.0)">S</text></g></g><g><clipPath id="clip-499"><path d="M 68.8 328.8 L 155.9 158.9 L 112.3 136.5 L 25.3 306.5 Z M 68.8 328.8 "></path></clipPath><g clip-path="url(#clip-499)"><path d="M 0.0 0.0 L 152.0 0.0 L 157.0 0.0 " fill="none" stroke="#000000" stroke-width="10.00" transform="matrix(0.46, -0.89, -0.89, -0.46, 47.5, 316.8)"></path><path d="M 0.0 0.0 L 3.0 5.0 L 6.0 0.0 M 3.0 0.0 L 3.0 5.0 " fill="none" stroke="#000000" stroke-width="1.56" stroke-miterlimit="10.00" stroke-linejoin="round" transform="matrix(5.70, 2.92, 2.92, -5.70, 99.7, 172.8)"></path></g></g></g></svg>