<?xml version="1.0" encoding="UTF-8" standalone="no"?><svg xmlns="http://www.w3.org/2000/svg" xmlns:xlink="http://www.w3.org/1999/xlink" clip-rule="evenodd" stroke-miterlimit="4.00" viewBox="0 0 572 342"><desc>SVG generated by Keynote</desc><defs></defs><g transform="matrix(1.00, 0.00, -0.00, -1.00, 0.0, 342.0)"><g><clipPath id="clip-493"><path d="M 0.3 0.0 L 571.7 0.0 L 571.7 102.0 L 0.3 102.0 Z M 0.3 0.0 "></path></clipPath><g clip-path="url(#clip-493)"><path d="M 1.3 101.0 L 570.7 101.0 L 570.7 1.0 L 1.3 1.0 Z M 1.3 101.0 " fill="#FFCC00"></path></g></g><g><clipPath id="clip-494"><path d="M -9.9 1.0 L 581.9 1.0 L 581.9 101.0 L -9.9 101.0 Z M -9.9 1.0 "></path></clipPath><g clip-path="url(#clip-494)"><text xml:space="preserve" font-family="YandexSansText-Light" font-size="48.0" fill="#000000" transform="matrix(1.00, 0.00, -0.00, -1.00, 144.0, 36.0)">i</text><text xml:space="preserve" font-family="YandexSansText-Light" font-size="48.0" fill="#000000" transform="matrix(1.00, 0.00, -0.00, -1.00, 154.6, 36.0)">n</text><text xml:space="preserve" font-family="YandexSansText-Light" font-size="48.0" fill="#000000" transform="matrix(1.00, 0.00, -0.00, -1.00, 182.6, 36.0)">d</text><text xml:space="preserve" font-family="YandexSansText-Light" font-size="48.0" fill="#000000" transform="matrix(1.00, 0.00, -0.00, -1.00, 212.1, 36.0)">e</text><text xml:space="preserve" font-family="YandexSansText-Light" font-size="48.0" fill="#000000" transform="matrix(1.00, 0.00, -0.00, -1.00, 237.8, 36.0)">x</text><text xml:space="preserve" font-family="YandexSansText-Light" font-size="48.0" fill="#000000" transform="matrix(1.00, 0.00, -0.00, -1.00, 261.2, 36.0)">.</text><text xml:space="preserve" font-family="YandexSansText-Light" font-size="48.0" fill="#000000" transform="matrix(1.00, 0.00, -0.00, -1.00, 273.6, 36.0)">d</text><text xml:space="preserve" font-family="YandexSansText-Light" font-size="48.0" fill="#000000" transform="matrix(1.00, 0.00, -0.00, -1.00, 303.0, 36.0)">e</text><text xml:space="preserve" font-family="YandexSansText-Light" font-size="48.0" fill="#000000" transform="matrix(1.00, 0.00, -0.00, -1.00, 328.9, 36.0)">p</text><text xml:space="preserve" font-family="YandexSansText-Light" font-size="48.0" fill="#000000" transform="matrix(1.00, 0.00, -0.00, -1.00, 358.4, 36.0)">s</text><text xml:space="preserve" font-family="YandexSansText-Light" font-size="48.0" fill="#000000" transform="matrix(1.00, 0.00, -0.00, -1.00, 381.2, 36.0)">.</text><text xml:space="preserve" font-family="YandexSansText-Light" font-size="48.0" fill="#000000" transform="matrix(1.00, 0.00, -0.00, -1.00, 393.6, 36.0)">j</text><text xml:space="preserve" font-family="YandexSansText-Light" font-size="48.0" fill="#000000" transform="matrix(1.00, 0.00, -0.00, -1.00, 404.5, 36.0)">s</text></g></g><g><clipPath id="clip-495"><path d="M 91.5 341.8 L 178.6 171.9 L 135.0 149.5 L 48.0 319.5 Z M 91.5 341.8 "></path></clipPath><g clip-path="url(#clip-495)"><path d="M 0.0 0.0 L 152.0 0.0 L 157.0 0.0 " fill="none" stroke="#000000" stroke-width="10.00" transform="matrix(0.46, -0.89, -0.89, -0.46, 70.2, 329.8)"></path><path d="M 0.0 0.0 L 3.0 5.0 L 6.0 0.0 M 3.0 0.0 L 3.0 5.0 " fill="none" stroke="#000000" stroke-width="1.56" stroke-miterlimit="10.00" stroke-linejoin="round" transform="matrix(5.70, 2.92, 2.92, -5.70, 122.4, 185.8)"></path></g></g><g><clipPath id="clip-496"><path d="M 524.0 319.5 L 437.0 149.5 L 393.4 171.9 L 480.5 341.8 Z M 524.0 319.5 "></path></clipPath><g clip-path="url(#clip-496)"><path d="M 0.0 0.0 L 152.0 0.0 L 157.0 0.0 " fill="none" stroke="#000000" stroke-width="10.00" transform="matrix(-0.46, -0.89, -0.89, 0.46, 501.8, 329.8)"></path><path d="M 0.0 0.0 L 3.0 5.0 L 6.0 0.0 M 3.0 0.0 L 3.0 5.0 " fill="none" stroke="#000000" stroke-width="1.56" stroke-miterlimit="10.00" stroke-linejoin="round" transform="matrix(5.70, -2.92, -2.92, -5.70, 415.4, 203.3)"></path></g></g></g></svg>