<?xml version="1.0" encoding="UTF-8" standalone="no"?><svg xmlns="http://www.w3.org/2000/svg" xmlns:xlink="http://www.w3.org/1999/xlink" clip-rule="evenodd" stroke-miterlimit="4.00" viewBox="0 0 442 317"><desc>SVG generated by Keynote</desc><defs></defs><g transform="matrix(1.00, 0.00, -0.00, -1.00, 0.0, 317.0)"><g><clipPath id="clip-503"><path d="M 0.6 1.0 L 441.4 1.0 L 441.4 103.0 L 0.6 103.0 Z M 0.6 1.0 "></path></clipPath><g clip-path="url(#clip-503)"><path d="M 1.6 102.0 L 440.4 102.0 L 440.4 2.0 L 1.6 2.0 Z M 1.6 102.0 " fill="#FFCC00"></path></g></g><g><clipPath id="clip-504"><path d="M -9.6 2.0 L 451.6 2.0 L 451.6 102.0 L -9.6 102.0 Z M -9.6 2.0 "></path></clipPath><g clip-path="url(#clip-504)"><text xml:space="preserve" font-family="YandexSansText-Light" font-size="48.0" fill="#000000" transform="matrix(1.00, 0.00, -0.00, -1.00, 198.0, 37.0)">J</text><text xml:space="preserve" font-family="YandexSansText-Light" font-size="48.0" fill="#000000" transform="matrix(1.00, 0.00, -0.00, -1.00, 215.7, 37.0)">S</text></g></g><g><clipPath id="clip-505"><path d="M 245.5 316.9 L 245.5 146.9 L 196.5 146.9 L 196.5 316.9 Z M 245.5 316.9 "></path></clipPath><g clip-path="url(#clip-505)"><path d="M 0.0 0.0 L 131.0 0.0 L 136.0 0.0 " fill="none" stroke="#000000" stroke-width="10.00" transform="matrix(0.00, -1.00, -1.00, 0.00, 221.0, 315.9)"></path><path d="M 0.0 0.0 L 3.0 5.0 L 6.0 0.0 M 3.0 0.0 L 3.0 5.0 " fill="none" stroke="#000000" stroke-width="1.56" stroke-miterlimit="10.00" stroke-linejoin="round" transform="matrix(6.40, 0.00, 0.00, -6.40, 201.8, 184.9)"></path></g></g></g></svg>