<?xml version="1.0" encoding="UTF-8" standalone="no"?><svg xmlns="http://www.w3.org/2000/svg" xmlns:xlink="http://www.w3.org/1999/xlink" clip-rule="evenodd" stroke-miterlimit="4.00" viewBox="0 0 1920 1080"><desc>SVG generated by Keynote</desc><defs></defs><g transform="matrix(1.00, 0.00, -0.00, -1.00, 0.0, 1080.0)"><path d="M 0.0 1080.0 L 1920.0 1080.0 L 1920.0 0.0 L 0.0 0.0 Z M 0.0 1080.0 " fill="#FEFFFF"></path><text xml:space="preserve" font-family="YandexSansText-Light" font-size="30.0" fill="#000000" transform="matrix(1.00, 0.00, -0.00, -1.00, 1792.6, 48.1)">4</text><text xml:space="preserve" font-family="YandexSansText-Light" font-size="30.0" fill="#000000" transform="matrix(1.00, 0.00, -0.00, -1.00, 1809.2, 48.1)">8</text><path d="M 412.1 980.2 L 934.1 980.2 L 934.1 880.2 L 412.1 880.2 Z M 412.1 980.2 " fill="#FFCC00"></path><g><clipPath id="clip-506"><path d="M 401.0 880.2 L 945.2 880.2 L 945.2 980.2 L 401.0 980.2 Z M 401.0 880.2 "></path></clipPath><g clip-path="url(#clip-506)"><text xml:space="preserve" font-family="YandexSansText-Light" font-size="48.0" fill="#000000" transform="matrix(1.00, 0.00, -0.00, -1.00, 540.0, 915.0)">i</text><text xml:space="preserve" font-family="YandexSansText-Light" font-size="48.0" fill="#000000" transform="matrix(1.00, 0.00, -0.00, -1.00, 550.6, 915.0)">n</text><text xml:space="preserve" font-family="YandexSansText-Light" font-size="48.0" fill="#000000" transform="matrix(1.00, 0.00, -0.00, -1.00, 578.6, 915.0)">d</text><text xml:space="preserve" font-family="YandexSansText-Light" font-size="48.0" fill="#000000" transform="matrix(1.00, 0.00, -0.00, -1.00, 608.1, 915.0)">e</text><text xml:space="preserve" font-family="YandexSansText-Light" font-size="48.0" fill="#000000" transform="matrix(1.00, 0.00, -0.00, -1.00, 633.8, 915.0)">x</text><text xml:space="preserve" font-family="YandexSansText-Light" font-size="48.0" fill="#000000" transform="matrix(1.00, 0.00, -0.00, -1.00, 657.2, 915.0)">.</text><text xml:space="preserve" font-family="YandexSansText-Light" font-size="48.0" fill="#000000" transform="matrix(1.00, 0.00, -0.00, -1.00, 669.6, 915.0)">d</text><text xml:space="preserve" font-family="YandexSansText-Light" font-size="48.0" fill="#000000" transform="matrix(1.00, 0.00, -0.00, -1.00, 699.0, 915.0)">e</text><text xml:space="preserve" font-family="YandexSansText-Light" font-size="48.0" fill="#000000" transform="matrix(1.00, 0.00, -0.00, -1.00, 724.9, 915.0)">c</text><text xml:space="preserve" font-family="YandexSansText-Light" font-size="48.0" fill="#000000" transform="matrix(1.00, 0.00, -0.00, -1.00, 748.8, 915.0)">l</text><text xml:space="preserve" font-family="YandexSansText-Light" font-size="48.0" fill="#000000" transform="matrix(1.00, 0.00, -0.00, -1.00, 759.4, 915.0)">.</text><text xml:space="preserve" font-family="YandexSansText-Light" font-size="48.0" fill="#000000" transform="matrix(1.00, 0.00, -0.00, -1.00, 771.7, 915.0)">j</text><text xml:space="preserve" font-family="YandexSansText-Light" font-size="48.0" fill="#000000" transform="matrix(1.00, 0.00, -0.00, -1.00, 782.7, 915.0)">s</text></g></g><path d="M 1042.1 980.2 L 1507.9 980.2 L 1507.9 880.2 L 1042.1 880.2 Z M 1042.1 980.2 " fill="#00872A"></path><g><clipPath id="clip-507"><path d="M 1031.0 880.2 L 1519.0 880.2 L 1519.0 980.2 L 1031.0 980.2 Z M 1031.0 880.2 "></path></clipPath><g clip-path="url(#clip-507)"><text xml:space="preserve" font-family="YandexSansText-Light" font-size="48.0" fill="#FEFFFE" transform="matrix(1.00, 0.00, -0.00, -1.00, 1215.0, 915.0)">l</text><text xml:space="preserve" font-family="YandexSansText-Light" font-size="48.0" fill="#FEFFFE" transform="matrix(1.00, 0.00, -0.00, -1.00, 1225.6, 915.0)">e</text><text xml:space="preserve" font-family="YandexSansText-Light" font-size="48.0" fill="#FEFFFE" transform="matrix(1.00, 0.00, -0.00, -1.00, 1251.5, 915.0)">v</text><text xml:space="preserve" font-family="YandexSansText-Light" font-size="48.0" fill="#FEFFFE" transform="matrix(1.00, 0.00, -0.00, -1.00, 1274.9, 915.0)">e</text><text xml:space="preserve" font-family="YandexSansText-Light" font-size="48.0" fill="#FEFFFE" transform="matrix(1.00, 0.00, -0.00, -1.00, 1300.8, 915.0)">l</text><text xml:space="preserve" font-family="YandexSansText-Light" font-size="48.0" fill="#FEFFFE" transform="matrix(1.00, 0.00, -0.00, -1.00, 1311.4, 915.0)">s</text></g></g><g><clipPath id="clip-508"><path d="M 674.3 489.0 L 1245.7 489.0 L 1245.7 591.0 L 674.3 591.0 Z M 674.3 489.0 "></path></clipPath><g clip-path="url(#clip-508)"><path d="M 675.3 590.0 L 1244.7 590.0 L 1244.7 490.0 L 675.3 490.0 Z M 675.3 590.0 " fill="#FFCC00"></path></g></g><g><clipPath id="clip-509"><path d="M 664.1 490.0 L 1255.9 490.0 L 1255.9 590.0 L 664.1 590.0 Z M 664.1 490.0 "></path></clipPath><g clip-path="url(#clip-509)"><text xml:space="preserve" font-family="YandexSansText-Light" font-size="48.0" fill="#000000" transform="matrix(1.00, 0.00, -0.00, -1.00, 818.0, 525.0)">i</text><text xml:space="preserve" font-family="YandexSansText-Light" font-size="48.0" fill="#000000" transform="matrix(1.00, 0.00, -0.00, -1.00, 828.6, 525.0)">n</text><text xml:space="preserve" font-family="YandexSansText-Light" font-size="48.0" fill="#000000" transform="matrix(1.00, 0.00, -0.00, -1.00, 856.6, 525.0)">d</text><text xml:space="preserve" font-family="YandexSansText-Light" font-size="48.0" fill="#000000" transform="matrix(1.00, 0.00, -0.00, -1.00, 886.1, 525.0)">e</text><text xml:space="preserve" font-family="YandexSansText-Light" font-size="48.0" fill="#000000" transform="matrix(1.00, 0.00, -0.00, -1.00, 911.8, 525.0)">x</text><text xml:space="preserve" font-family="YandexSansText-Light" font-size="48.0" fill="#000000" transform="matrix(1.00, 0.00, -0.00, -1.00, 935.2, 525.0)">.</text><text xml:space="preserve" font-family="YandexSansText-Light" font-size="48.0" fill="#000000" transform="matrix(1.00, 0.00, -0.00, -1.00, 947.6, 525.0)">d</text><text xml:space="preserve" font-family="YandexSansText-Light" font-size="48.0" fill="#000000" transform="matrix(1.00, 0.00, -0.00, -1.00, 977.0, 525.0)">e</text><text xml:space="preserve" font-family="YandexSansText-Light" font-size="48.0" fill="#000000" transform="matrix(1.00, 0.00, -0.00, -1.00, 1002.9, 525.0)">p</text><text xml:space="preserve" font-family="YandexSansText-Light" font-size="48.0" fill="#000000" transform="matrix(1.00, 0.00, -0.00, -1.00, 1032.4, 525.0)">s</text><text xml:space="preserve" font-family="YandexSansText-Light" font-size="48.0" fill="#000000" transform="matrix(1.00, 0.00, -0.00, -1.00, 1055.2, 525.0)">.</text><text xml:space="preserve" font-family="YandexSansText-Light" font-size="48.0" fill="#000000" transform="matrix(1.00, 0.00, -0.00, -1.00, 1067.6, 525.0)">j</text><text xml:space="preserve" font-family="YandexSansText-Light" font-size="48.0" fill="#000000" transform="matrix(1.00, 0.00, -0.00, -1.00, 1078.5, 525.0)">s</text></g></g><g><clipPath id="clip-510"><path d="M 765.5 830.8 L 852.6 660.9 L 809.0 638.5 L 722.0 808.5 Z M 765.5 830.8 "></path></clipPath><g clip-path="url(#clip-510)"><path d="M 0.0 0.0 L 152.0 0.0 L 157.0 0.0 " fill="none" stroke="#000000" stroke-width="10.00" transform="matrix(0.46, -0.89, -0.89, -0.46, 744.2, 818.8)"></path><path d="M 0.0 0.0 L 3.0 5.0 L 6.0 0.0 M 3.0 0.0 L 3.0 5.0 " fill="none" stroke="#000000" stroke-width="1.56" stroke-miterlimit="10.00" stroke-linejoin="round" transform="matrix(5.70, 2.92, 2.92, -5.70, 796.4, 674.8)"></path></g></g><g><clipPath id="clip-511"><path d="M 1198.0 808.5 L 1111.0 638.5 L 1067.4 660.9 L 1154.5 830.8 Z M 1198.0 808.5 "></path></clipPath><g clip-path="url(#clip-511)"><path d="M 0.0 0.0 L 152.0 0.0 L 157.0 0.0 " fill="none" stroke="#000000" stroke-width="10.00" transform="matrix(-0.46, -0.89, -0.89, 0.46, 1175.8, 818.8)"></path><path d="M 0.0 0.0 L 3.0 5.0 L 6.0 0.0 M 3.0 0.0 L 3.0 5.0 " fill="none" stroke="#000000" stroke-width="1.56" stroke-miterlimit="10.00" stroke-linejoin="round" transform="matrix(5.70, -2.92, -2.92, -5.70, 1089.4, 692.3)"></path></g></g><g><clipPath id="clip-512"><path d="M 1229.9 129.0 L 1670.8 129.0 L 1670.8 231.0 L 1229.9 231.0 Z M 1229.9 129.0 "></path></clipPath><g clip-path="url(#clip-512)"><path d="M 1230.9 230.0 L 1669.8 230.0 L 1669.8 130.0 L 1230.9 130.0 Z M 1230.9 230.0 " fill="#FFCC00"></path></g></g><g><clipPath id="clip-513"><path d="M 1219.8 130.0 L 1680.9 130.0 L 1680.9 230.0 L 1219.8 230.0 Z M 1219.8 130.0 "></path></clipPath><g clip-path="url(#clip-513)"><text xml:space="preserve" font-family="YandexSansText-Light" font-size="48.0" fill="#000000" transform="matrix(1.00, 0.00, -0.00, -1.00, 1375.0, 165.0)">T</text><text xml:space="preserve" font-family="YandexSansText-Light" font-size="48.0" fill="#000000" transform="matrix(1.00, 0.00, -0.00, -1.00, 1402.0, 165.0)">M</text><text xml:space="preserve" font-family="YandexSansText-Light" font-size="48.0" fill="#000000" transform="matrix(1.00, 0.00, -0.00, -1.00, 1443.7, 165.0)">P</text><text xml:space="preserve" font-family="YandexSansText-Light" font-size="48.0" fill="#000000" transform="matrix(1.00, 0.00, -0.00, -1.00, 1471.7, 165.0)">L</text><text xml:space="preserve" font-family="YandexSansText-Light" font-size="48.0" fill="#000000" transform="matrix(1.00, 0.00, -0.00, -1.00, 1498.4, 165.0)">S</text></g></g><g><clipPath id="clip-514"><path d="M 1297.8 456.8 L 1384.9 286.9 L 1341.3 264.5 L 1254.2 434.5 Z M 1297.8 456.8 "></path></clipPath><g clip-path="url(#clip-514)"><path d="M 0.0 0.0 L 152.0 0.0 L 157.0 0.0 " fill="none" stroke="#000000" stroke-width="10.00" transform="matrix(0.46, -0.89, -0.89, -0.46, 1276.5, 444.8)"></path><path d="M 0.0 0.0 L 3.0 5.0 L 6.0 0.0 M 3.0 0.0 L 3.0 5.0 " fill="none" stroke="#000000" stroke-width="1.56" stroke-miterlimit="10.00" stroke-linejoin="round" transform="matrix(5.70, 2.92, 2.92, -5.70, 1328.7, 300.8)"></path></g></g><g><clipPath id="clip-515"><path d="M 249.2 129.0 L 690.1 129.0 L 690.1 231.0 L 249.2 231.0 Z M 249.2 129.0 "></path></clipPath><g clip-path="url(#clip-515)"><path d="M 250.2 230.0 L 689.1 230.0 L 689.1 130.0 L 250.2 130.0 Z M 250.2 230.0 " fill="#FFCC00"></path></g></g><g><clipPath id="clip-516"><path d="M 239.1 130.0 L 700.2 130.0 L 700.2 230.0 L 239.1 230.0 Z M 239.1 130.0 "></path></clipPath><g clip-path="url(#clip-516)"><text xml:space="preserve" font-family="YandexSansText-Light" font-size="48.0" fill="#000000" transform="matrix(1.00, 0.00, -0.00, -1.00, 426.0, 165.0)">C</text><text xml:space="preserve" font-family="YandexSansText-Light" font-size="48.0" fill="#000000" transform="matrix(1.00, 0.00, -0.00, -1.00, 458.0, 165.0)">S</text><text xml:space="preserve" font-family="YandexSansText-Light" font-size="48.0" fill="#000000" transform="matrix(1.00, 0.00, -0.00, -1.00, 485.6, 165.0)">S</text></g></g><g><clipPath id="clip-517"><path d="M 665.7 432.9 L 578.7 262.9 L 535.1 285.2 L 622.2 455.2 Z M 665.7 432.9 "></path></clipPath><g clip-path="url(#clip-517)"><path d="M 0.0 0.0 L 152.0 0.0 L 157.0 0.0 " fill="none" stroke="#000000" stroke-width="10.00" transform="matrix(-0.46, -0.89, -0.89, 0.46, 643.5, 443.1)"></path><path d="M 0.0 0.0 L 3.0 5.0 L 6.0 0.0 M 3.0 0.0 L 3.0 5.0 " fill="none" stroke="#000000" stroke-width="1.56" stroke-miterlimit="10.00" stroke-linejoin="round" transform="matrix(5.70, -2.92, -2.92, -5.70, 557.1, 316.6)"></path></g></g><g><clipPath id="clip-518"><path d="M 739.6 129.0 L 1180.4 129.0 L 1180.4 231.0 L 739.6 231.0 Z M 739.6 129.0 "></path></clipPath><g clip-path="url(#clip-518)"><path d="M 740.6 230.0 L 1179.4 230.0 L 1179.4 130.0 L 740.6 130.0 Z M 740.6 230.0 " fill="#FFCC00"></path></g></g><g><clipPath id="clip-519"><path d="M 729.4 130.0 L 1190.6 130.0 L 1190.6 230.0 L 729.4 230.0 Z M 729.4 130.0 "></path></clipPath><g clip-path="url(#clip-519)"><text xml:space="preserve" font-family="YandexSansText-Light" font-size="48.0" fill="#000000" transform="matrix(1.00, 0.00, -0.00, -1.00, 937.0, 165.0)">J</text><text xml:space="preserve" font-family="YandexSansText-Light" font-size="48.0" fill="#000000" transform="matrix(1.00, 0.00, -0.00, -1.00, 954.7, 165.0)">S</text></g></g><g><clipPath id="clip-520"><path d="M 984.5 444.9 L 984.5 274.9 L 935.5 274.9 L 935.5 444.9 Z M 984.5 444.9 "></path></clipPath><g clip-path="url(#clip-520)"><path d="M 0.0 0.0 L 131.0 0.0 L 136.0 0.0 " fill="none" stroke="#000000" stroke-width="10.00" transform="matrix(0.00, -1.00, -1.00, 0.00, 960.0, 443.9)"></path><path d="M 0.0 0.0 L 3.0 5.0 L 6.0 0.0 M 3.0 0.0 L 3.0 5.0 " fill="none" stroke="#000000" stroke-width="1.56" stroke-miterlimit="10.00" stroke-linejoin="round" transform="matrix(6.40, 0.00, 0.00, -6.40, 940.8, 312.9)"></path></g></g></g></svg>