<?xml version="1.0" encoding="UTF-8" standalone="no"?><svg xmlns="http://www.w3.org/2000/svg" xmlns:xlink="http://www.w3.org/1999/xlink" clip-rule="evenodd" stroke-miterlimit="4.00" viewBox="0 0 442 328"><desc>SVG generated by Keynote</desc><defs></defs><g transform="matrix(1.00, 0.00, -0.00, -1.00, 0.0, 328.0)"><g><clipPath id="clip-500"><path d="M 0.2 1.0 L 441.1 1.0 L 441.1 103.0 L 0.2 103.0 Z M 0.2 1.0 "></path></clipPath><g clip-path="url(#clip-500)"><path d="M 1.2 102.0 L 440.1 102.0 L 440.1 2.0 L 1.2 2.0 Z M 1.2 102.0 " fill="#FFCC00"></path></g></g><g><clipPath id="clip-501"><path d="M -9.9 2.0 L 451.2 2.0 L 451.2 102.0 L -9.9 102.0 Z M -9.9 2.0 "></path></clipPath><g clip-path="url(#clip-501)"><text xml:space="preserve" font-family="YandexSansText-Light" font-size="48.0" fill="#000000" transform="matrix(1.00, 0.00, -0.00, -1.00, 177.0, 37.0)">C</text><text xml:space="preserve" font-family="YandexSansText-Light" font-size="48.0" fill="#000000" transform="matrix(1.00, 0.00, -0.00, -1.00, 209.0, 37.0)">S</text><text xml:space="preserve" font-family="YandexSansText-Light" font-size="48.0" fill="#000000" transform="matrix(1.00, 0.00, -0.00, -1.00, 236.6, 37.0)">S</text></g></g><g><clipPath id="clip-502"><path d="M 416.7 304.9 L 329.7 134.9 L 286.1 157.2 L 373.2 327.2 Z M 416.7 304.9 "></path></clipPath><g clip-path="url(#clip-502)"><path d="M 0.0 0.0 L 152.0 0.0 L 157.0 0.0 " fill="none" stroke="#000000" stroke-width="10.00" transform="matrix(-0.46, -0.89, -0.89, 0.46, 394.5, 315.1)"></path><path d="M 0.0 0.0 L 3.0 5.0 L 6.0 0.0 M 3.0 0.0 L 3.0 5.0 " fill="none" stroke="#000000" stroke-width="1.56" stroke-miterlimit="10.00" stroke-linejoin="round" transform="matrix(5.70, -2.92, -2.92, -5.70, 308.1, 188.6)"></path></g></g></g></svg>