<?xml version="1.0" encoding="UTF-8" standalone="no"?><svg xmlns="http://www.w3.org/2000/svg" xmlns:xlink="http://www.w3.org/1999/xlink" clip-rule="evenodd" stroke-miterlimit="4.00" viewBox="0 0 1276 419"><desc>SVG generated by Keynote</desc><defs></defs><g transform="matrix(1.00, 0.00, -0.00, -1.00, 0.0, 419.0)"><text xml:space="preserve" font-family="PTMono-Bold" font-weight="bold" font-size="36.0" fill="#000000" transform="matrix(1.00, 0.00, -0.00, -1.00, 2.0, 391.0)">l</text><text xml:space="preserve" font-family="PTMono-Bold" font-weight="bold" font-size="36.0" fill="#000000" transform="matrix(1.00, 0.00, -0.00, -1.00, 23.6, 391.0)">i</text><text xml:space="preserve" font-family="PTMono-Bold" font-weight="bold" font-size="36.0" fill="#000000" transform="matrix(1.00, 0.00, -0.00, -1.00, 45.2, 391.0)">b</text><text xml:space="preserve" font-family="PTMono-Bold" font-weight="bold" font-size="36.0" fill="#000000" transform="matrix(1.00, 0.00, -0.00, -1.00, 66.8, 391.0)">r</text><text xml:space="preserve" font-family="PTMono-Bold" font-weight="bold" font-size="36.0" fill="#000000" transform="matrix(1.00, 0.00, -0.00, -1.00, 88.4, 391.0)">a</text><text xml:space="preserve" font-family="PTMono-Bold" font-weight="bold" font-size="36.0" fill="#000000" transform="matrix(1.00, 0.00, -0.00, -1.00, 110.0, 391.0)">r</text><text xml:space="preserve" font-family="PTMono-Bold" font-weight="bold" font-size="36.0" fill="#000000" transform="matrix(1.00, 0.00, -0.00, -1.00, 131.6, 391.0)">y</text><text xml:space="preserve" font-family="PTMono-Bold" font-weight="bold" font-size="36.0" fill="#000000" transform="matrix(1.00, 0.00, -0.00, -1.00, 153.2, 391.0)">-</text><text xml:space="preserve" font-family="PTMono-Bold" font-weight="bold" font-size="36.0" fill="#000000" transform="matrix(1.00, 0.00, -0.00, -1.00, 174.8, 391.0)">c</text><text xml:space="preserve" font-family="PTMono-Bold" font-weight="bold" font-size="36.0" fill="#000000" transform="matrix(1.00, 0.00, -0.00, -1.00, 196.4, 391.0)">o</text><text xml:space="preserve" font-family="PTMono-Bold" font-weight="bold" font-size="36.0" fill="#000000" transform="matrix(1.00, 0.00, -0.00, -1.00, 218.0, 391.0)">m</text><text xml:space="preserve" font-family="PTMono-Bold" font-weight="bold" font-size="36.0" fill="#000000" transform="matrix(1.00, 0.00, -0.00, -1.00, 239.6, 391.0)">p</text><text xml:space="preserve" font-family="PTMono-Bold" font-weight="bold" font-size="36.0" fill="#000000" transform="matrix(1.00, 0.00, -0.00, -1.00, 261.2, 391.0)">o</text><text xml:space="preserve" font-family="PTMono-Bold" font-weight="bold" font-size="36.0" fill="#000000" transform="matrix(1.00, 0.00, -0.00, -1.00, 282.8, 391.0)">n</text><text xml:space="preserve" font-family="PTMono-Bold" font-weight="bold" font-size="36.0" fill="#000000" transform="matrix(1.00, 0.00, -0.00, -1.00, 304.4, 391.0)">e</text><text xml:space="preserve" font-family="PTMono-Bold" font-weight="bold" font-size="36.0" fill="#000000" transform="matrix(1.00, 0.00, -0.00, -1.00, 326.0, 391.0)">n</text><text xml:space="preserve" font-family="PTMono-Bold" font-weight="bold" font-size="36.0" fill="#000000" transform="matrix(1.00, 0.00, -0.00, -1.00, 347.6, 391.0)">t</text><text xml:space="preserve" font-family="PTMono-Bold" font-weight="bold" font-size="36.0" fill="#000000" transform="matrix(1.00, 0.00, -0.00, -1.00, 369.2, 391.0)">s</text><text xml:space="preserve" font-family="PTMono-Regular" font-size="36.0" fill="#000000" transform="matrix(1.00, 0.00, -0.00, -1.00, 390.8, 391.0)">/</text><text xml:space="preserve" font-family="PTMono-Regular" font-size="36.0" fill="#000000" transform="matrix(1.00, 0.00, -0.00, -1.00, 412.4, 391.0)"> </text><text xml:space="preserve" font-family="PTMono-Regular" font-size="36.0" fill="#000000" transform="matrix(1.00, 0.00, -0.00, -1.00, 434.0, 391.0)"> </text><text xml:space="preserve" font-family="PTMono-Regular" font-size="36.0" fill="#000000" transform="matrix(1.00, 0.00, -0.00, -1.00, 455.6, 391.0)"> </text><text xml:space="preserve" font-family="PTMono-Regular" font-size="36.0" fill="#000000" transform="matrix(1.00, 0.00, -0.00, -1.00, 477.2, 391.0)"> </text><text xml:space="preserve" font-family="PTMono-Regular" font-size="36.0" fill="#000000" transform="matrix(1.00, 0.00, -0.00, -1.00, 498.8, 391.0)">#</text><text xml:space="preserve" font-family="PTMono-Regular" font-size="36.0" fill="#000000" transform="matrix(1.00, 0.00, -0.00, -1.00, 520.4, 391.0)"> </text><text xml:space="preserve" font-family="PTMono-Regular" font-size="36.0" fill="#00872A" transform="matrix(1.00, 0.00, -0.00, -1.00, 542.0, 391.0)">У</text><text xml:space="preserve" font-family="PTMono-Regular" font-size="36.0" fill="#00872A" transform="matrix(1.00, 0.00, -0.00, -1.00, 563.6, 391.0)">р</text><text xml:space="preserve" font-family="PTMono-Regular" font-size="36.0" fill="#00872A" transform="matrix(1.00, 0.00, -0.00, -1.00, 585.2, 391.0)">о</text><text xml:space="preserve" font-family="PTMono-Regular" font-size="36.0" fill="#00872A" transform="matrix(1.00, 0.00, -0.00, -1.00, 606.8, 391.0)">в</text><text xml:space="preserve" font-family="PTMono-Regular" font-size="36.0" fill="#00872A" transform="matrix(1.00, 0.00, -0.00, -1.00, 628.4, 391.0)">е</text><text xml:space="preserve" font-family="PTMono-Regular" font-size="36.0" fill="#00872A" transform="matrix(1.00, 0.00, -0.00, -1.00, 650.0, 391.0)">н</text><text xml:space="preserve" font-family="PTMono-Regular" font-size="36.0" fill="#00872A" transform="matrix(1.00, 0.00, -0.00, -1.00, 671.6, 391.0)">ь</text><text xml:space="preserve" font-family="PTMono-Regular" font-size="36.0" fill="#00872A" transform="matrix(1.00, 0.00, -0.00, -1.00, 693.2, 391.0)"> </text><text xml:space="preserve" font-family="PTMono-Regular" font-size="36.0" fill="#00872A" transform="matrix(1.00, 0.00, -0.00, -1.00, 714.8, 391.0)">б</text><text xml:space="preserve" font-family="PTMono-Regular" font-size="36.0" fill="#00872A" transform="matrix(1.00, 0.00, -0.00, -1.00, 736.4, 391.0)">и</text><text xml:space="preserve" font-family="PTMono-Regular" font-size="36.0" fill="#00872A" transform="matrix(1.00, 0.00, -0.00, -1.00, 758.0, 391.0)">б</text><text xml:space="preserve" font-family="PTMono-Regular" font-size="36.0" fill="#00872A" transform="matrix(1.00, 0.00, -0.00, -1.00, 779.6, 391.0)">л</text><text xml:space="preserve" font-family="PTMono-Regular" font-size="36.0" fill="#00872A" transform="matrix(1.00, 0.00, -0.00, -1.00, 801.2, 391.0)">и</text><text xml:space="preserve" font-family="PTMono-Regular" font-size="36.0" fill="#00872A" transform="matrix(1.00, 0.00, -0.00, -1.00, 822.8, 391.0)">о</text><text xml:space="preserve" font-family="PTMono-Regular" font-size="36.0" fill="#00872A" transform="matrix(1.00, 0.00, -0.00, -1.00, 844.4, 391.0)">т</text><text xml:space="preserve" font-family="PTMono-Regular" font-size="36.0" fill="#00872A" transform="matrix(1.00, 0.00, -0.00, -1.00, 866.0, 391.0)">е</text><text xml:space="preserve" font-family="PTMono-Regular" font-size="36.0" fill="#00872A" transform="matrix(1.00, 0.00, -0.00, -1.00, 887.6, 391.0)">к</text><text xml:space="preserve" font-family="PTMono-Regular" font-size="36.0" fill="#00872A" transform="matrix(1.00, 0.00, -0.00, -1.00, 909.2, 391.0)">и</text><text xml:space="preserve" font-family="PTMono-Regular" font-size="36.0" fill="#000000" transform="matrix(1.00, 0.00, -0.00, -1.00, 930.8, 391.0)"> </text><text xml:space="preserve" font-family="PTMono-Regular" font-size="36.0" fill="#000000" transform="matrix(1.00, 0.00, -0.00, -1.00, 2.0, 343.0)"> </text><text xml:space="preserve" font-family="PTMono-Regular" font-size="36.0" fill="#000000" transform="matrix(1.00, 0.00, -0.00, -1.00, 23.6, 343.0)"> </text><text xml:space="preserve" font-family="PTMono-Regular" font-size="36.0" fill="#000000" transform="matrix(1.00, 0.00, -0.00, -1.00, 45.2, 343.0)">i</text><text xml:space="preserve" font-family="PTMono-Regular" font-size="36.0" fill="#000000" transform="matrix(1.00, 0.00, -0.00, -1.00, 66.8, 343.0)">n</text><text xml:space="preserve" font-family="PTMono-Regular" font-size="36.0" fill="#000000" transform="matrix(1.00, 0.00, -0.00, -1.00, 88.4, 343.0)">p</text><text xml:space="preserve" font-family="PTMono-Regular" font-size="36.0" fill="#000000" transform="matrix(1.00, 0.00, -0.00, -1.00, 110.0, 343.0)">u</text><text xml:space="preserve" font-family="PTMono-Regular" font-size="36.0" fill="#000000" transform="matrix(1.00, 0.00, -0.00, -1.00, 131.6, 343.0)">t</text><text xml:space="preserve" font-family="PTMono-Regular" font-size="36.0" fill="#000000" transform="matrix(1.00, 0.00, -0.00, -1.00, 153.2, 343.0)">/</text><text xml:space="preserve" font-family="PTMono-Regular" font-size="36.0" fill="#000000" transform="matrix(1.00, 0.00, -0.00, -1.00, 174.8, 343.0)"> </text><text xml:space="preserve" font-family="PTMono-Regular" font-size="36.0" fill="#000000" transform="matrix(1.00, 0.00, -0.00, -1.00, 2.0, 295.0)"> </text><text xml:space="preserve" font-family="PTMono-Regular" font-size="36.0" fill="#000000" transform="matrix(1.00, 0.00, -0.00, -1.00, 23.6, 295.0)"> </text><text xml:space="preserve" font-family="PTMono-Regular" font-size="36.0" fill="#000000" transform="matrix(1.00, 0.00, -0.00, -1.00, 45.2, 295.0)">b</text><text xml:space="preserve" font-family="PTMono-Regular" font-size="36.0" fill="#000000" transform="matrix(1.00, 0.00, -0.00, -1.00, 66.8, 295.0)">u</text><text xml:space="preserve" font-family="PTMono-Regular" font-size="36.0" fill="#000000" transform="matrix(1.00, 0.00, -0.00, -1.00, 88.4, 295.0)">t</text><text xml:space="preserve" font-family="PTMono-Regular" font-size="36.0" fill="#000000" transform="matrix(1.00, 0.00, -0.00, -1.00, 110.0, 295.0)">t</text><text xml:space="preserve" font-family="PTMono-Regular" font-size="36.0" fill="#000000" transform="matrix(1.00, 0.00, -0.00, -1.00, 131.6, 295.0)">o</text><text xml:space="preserve" font-family="PTMono-Regular" font-size="36.0" fill="#000000" transform="matrix(1.00, 0.00, -0.00, -1.00, 153.2, 295.0)">n</text><text xml:space="preserve" font-family="PTMono-Regular" font-size="36.0" fill="#000000" transform="matrix(1.00, 0.00, -0.00, -1.00, 174.8, 295.0)">/</text><text xml:space="preserve" font-family="PTMono-Regular" font-size="36.0" fill="#000000" transform="matrix(1.00, 0.00, -0.00, -1.00, 196.4, 295.0)"> </text><text xml:space="preserve" font-family="PTMono-Regular" font-size="36.0" fill="#000000" transform="matrix(1.00, 0.00, -0.00, -1.00, 218.0, 295.0)"> </text><text xml:space="preserve" font-family="PTMono-Regular" font-size="36.0" fill="#000000" transform="matrix(1.00, 0.00, -0.00, -1.00, 239.6, 295.0)"> </text><text xml:space="preserve" font-family="PTMono-Regular" font-size="36.0" fill="#000000" transform="matrix(1.00, 0.00, -0.00, -1.00, 261.2, 295.0)"> </text><text xml:space="preserve" font-family="PTMono-Regular" font-size="36.0" fill="#000000" transform="matrix(1.00, 0.00, -0.00, -1.00, 282.8, 295.0)"> </text><text xml:space="preserve" font-family="PTMono-Regular" font-size="36.0" fill="#000000" transform="matrix(1.00, 0.00, -0.00, -1.00, 304.4, 295.0)"> </text><text xml:space="preserve" font-family="PTMono-Regular" font-size="36.0" fill="#000000" transform="matrix(1.00, 0.00, -0.00, -1.00, 326.0, 295.0)"> </text><text xml:space="preserve" font-family="PTMono-Regular" font-size="36.0" fill="#000000" transform="matrix(1.00, 0.00, -0.00, -1.00, 347.6, 295.0)"> </text><text xml:space="preserve" font-family="PTMono-Regular" font-size="36.0" fill="#000000" transform="matrix(1.00, 0.00, -0.00, -1.00, 369.2, 295.0)"> </text><text xml:space="preserve" font-family="PTMono-Regular" font-size="36.0" fill="#000000" transform="matrix(1.00, 0.00, -0.00, -1.00, 390.8, 295.0)"> </text><text xml:space="preserve" font-family="PTMono-Regular" font-size="36.0" fill="#000000" transform="matrix(1.00, 0.00, -0.00, -1.00, 412.4, 295.0)"> </text><text xml:space="preserve" font-family="PTMono-Regular" font-size="36.0" fill="#000000" transform="matrix(1.00, 0.00, -0.00, -1.00, 434.0, 295.0)"> </text><text xml:space="preserve" font-family="PTMono-Regular" font-size="36.0" fill="#000000" transform="matrix(1.00, 0.00, -0.00, -1.00, 455.6, 295.0)"> </text><text xml:space="preserve" font-family="PTMono-Regular" font-size="36.0" fill="#000000" transform="matrix(1.00, 0.00, -0.00, -1.00, 477.2, 295.0)"> </text><text xml:space="preserve" font-family="PTMono-Regular" font-size="36.0" fill="#000000" transform="matrix(1.00, 0.00, -0.00, -1.00, 498.8, 295.0)">#</text><text xml:space="preserve" font-family="PTMono-Regular" font-size="36.0" fill="#000000" transform="matrix(1.00, 0.00, -0.00, -1.00, 520.4, 295.0)"> </text><text xml:space="preserve" font-family="PTMono-Regular" font-size="36.0" fill="#00872A" transform="matrix(1.00, 0.00, -0.00, -1.00, 542.0, 295.0)">Б</text><text xml:space="preserve" font-family="PTMono-Regular" font-size="36.0" fill="#00872A" transform="matrix(1.00, 0.00, -0.00, -1.00, 563.6, 295.0)">а</text><text xml:space="preserve" font-family="PTMono-Regular" font-size="36.0" fill="#00872A" transform="matrix(1.00, 0.00, -0.00, -1.00, 585.2, 295.0)">з</text><text xml:space="preserve" font-family="PTMono-Regular" font-size="36.0" fill="#00872A" transform="matrix(1.00, 0.00, -0.00, -1.00, 606.8, 295.0)">о</text><text xml:space="preserve" font-family="PTMono-Regular" font-size="36.0" fill="#00872A" transform="matrix(1.00, 0.00, -0.00, -1.00, 628.4, 295.0)">в</text><text xml:space="preserve" font-family="PTMono-Regular" font-size="36.0" fill="#00872A" transform="matrix(1.00, 0.00, -0.00, -1.00, 650.0, 295.0)">а</text><text xml:space="preserve" font-family="PTMono-Regular" font-size="36.0" fill="#00872A" transform="matrix(1.00, 0.00, -0.00, -1.00, 671.6, 295.0)">я</text><text xml:space="preserve" font-family="PTMono-Regular" font-size="36.0" fill="#00872A" transform="matrix(1.00, 0.00, -0.00, -1.00, 693.2, 295.0)"> </text><text xml:space="preserve" font-family="PTMono-Regular" font-size="36.0" fill="#00872A" transform="matrix(1.00, 0.00, -0.00, -1.00, 714.8, 295.0)">р</text><text xml:space="preserve" font-family="PTMono-Regular" font-size="36.0" fill="#00872A" transform="matrix(1.00, 0.00, -0.00, -1.00, 736.4, 295.0)">е</text><text xml:space="preserve" font-family="PTMono-Regular" font-size="36.0" fill="#00872A" transform="matrix(1.00, 0.00, -0.00, -1.00, 758.0, 295.0)">а</text><text xml:space="preserve" font-family="PTMono-Regular" font-size="36.0" fill="#00872A" transform="matrix(1.00, 0.00, -0.00, -1.00, 779.6, 295.0)">л</text><text xml:space="preserve" font-family="PTMono-Regular" font-size="36.0" fill="#00872A" transform="matrix(1.00, 0.00, -0.00, -1.00, 801.2, 295.0)">и</text><text xml:space="preserve" font-family="PTMono-Regular" font-size="36.0" fill="#00872A" transform="matrix(1.00, 0.00, -0.00, -1.00, 822.8, 295.0)">з</text><text xml:space="preserve" font-family="PTMono-Regular" font-size="36.0" fill="#00872A" transform="matrix(1.00, 0.00, -0.00, -1.00, 844.4, 295.0)">а</text><text xml:space="preserve" font-family="PTMono-Regular" font-size="36.0" fill="#00872A" transform="matrix(1.00, 0.00, -0.00, -1.00, 866.0, 295.0)">ц</text><text xml:space="preserve" font-family="PTMono-Regular" font-size="36.0" fill="#00872A" transform="matrix(1.00, 0.00, -0.00, -1.00, 887.6, 295.0)">и</text><text xml:space="preserve" font-family="PTMono-Regular" font-size="36.0" fill="#00872A" transform="matrix(1.00, 0.00, -0.00, -1.00, 909.2, 295.0)">я</text><text xml:space="preserve" font-family="PTMono-Regular" font-size="36.0" fill="#00872A" transform="matrix(1.00, 0.00, -0.00, -1.00, 930.8, 295.0)"> </text><text xml:space="preserve" font-family="PTMono-Regular" font-size="36.0" fill="#00872A" transform="matrix(1.00, 0.00, -0.00, -1.00, 952.4, 295.0)">б</text><text xml:space="preserve" font-family="PTMono-Regular" font-size="36.0" fill="#00872A" transform="matrix(1.00, 0.00, -0.00, -1.00, 974.0, 295.0)">л</text><text xml:space="preserve" font-family="PTMono-Regular" font-size="36.0" fill="#00872A" transform="matrix(1.00, 0.00, -0.00, -1.00, 995.6, 295.0)">о</text><text xml:space="preserve" font-family="PTMono-Regular" font-size="36.0" fill="#00872A" transform="matrix(1.00, 0.00, -0.00, -1.00, 1017.2, 295.0)">к</text><text xml:space="preserve" font-family="PTMono-Regular" font-size="36.0" fill="#00872A" transform="matrix(1.00, 0.00, -0.00, -1.00, 1038.8, 295.0)">а</text><text xml:space="preserve" font-family="PTMono-Regular" font-size="36.0" fill="#00872A" transform="matrix(1.00, 0.00, -0.00, -1.00, 1060.4, 295.0)"> </text><text xml:space="preserve" font-family="PTMono-Regular" font-size="36.0" fill="#00872A" transform="matrix(1.00, 0.00, -0.00, -1.00, 1082.0, 295.0)">b</text><text xml:space="preserve" font-family="PTMono-Regular" font-size="36.0" fill="#00872A" transform="matrix(1.00, 0.00, -0.00, -1.00, 1103.6, 295.0)">u</text><text xml:space="preserve" font-family="PTMono-Regular" font-size="36.0" fill="#00872A" transform="matrix(1.00, 0.00, -0.00, -1.00, 1125.2, 295.0)">t</text><text xml:space="preserve" font-family="PTMono-Regular" font-size="36.0" fill="#00872A" transform="matrix(1.00, 0.00, -0.00, -1.00, 1146.8, 295.0)">t</text><text xml:space="preserve" font-family="PTMono-Regular" font-size="36.0" fill="#00872A" transform="matrix(1.00, 0.00, -0.00, -1.00, 1168.4, 295.0)">o</text><text xml:space="preserve" font-family="PTMono-Regular" font-size="36.0" fill="#00872A" transform="matrix(1.00, 0.00, -0.00, -1.00, 1190.0, 295.0)">n</text><text xml:space="preserve" font-family="PTMono-Regular" font-size="36.0" fill="#000000" transform="matrix(1.00, 0.00, -0.00, -1.00, 1211.6, 295.0)"> </text><text xml:space="preserve" font-family="PTMono-Regular" font-size="36.0" fill="#000000" transform="matrix(1.00, 0.00, -0.00, -1.00, 2.0, 247.0)"> </text><text xml:space="preserve" font-family="PTMono-Regular" font-size="36.0" fill="#000000" transform="matrix(1.00, 0.00, -0.00, -1.00, 23.6, 247.0)"> </text><text xml:space="preserve" font-family="PTMono-Regular" font-size="36.0" fill="#000000" transform="matrix(1.00, 0.00, -0.00, -1.00, 45.2, 247.0)">p</text><text xml:space="preserve" font-family="PTMono-Regular" font-size="36.0" fill="#000000" transform="matrix(1.00, 0.00, -0.00, -1.00, 66.8, 247.0)">o</text><text xml:space="preserve" font-family="PTMono-Regular" font-size="36.0" fill="#000000" transform="matrix(1.00, 0.00, -0.00, -1.00, 88.4, 247.0)">p</text><text xml:space="preserve" font-family="PTMono-Regular" font-size="36.0" fill="#000000" transform="matrix(1.00, 0.00, -0.00, -1.00, 110.0, 247.0)">u</text><text xml:space="preserve" font-family="PTMono-Regular" font-size="36.0" fill="#000000" transform="matrix(1.00, 0.00, -0.00, -1.00, 131.6, 247.0)">p</text><text xml:space="preserve" font-family="PTMono-Regular" font-size="36.0" fill="#000000" transform="matrix(1.00, 0.00, -0.00, -1.00, 153.2, 247.0)">/</text><text xml:space="preserve" font-family="PTMono-Regular" font-size="36.0" fill="#000000" transform="matrix(1.00, 0.00, -0.00, -1.00, 174.8, 247.0)"> </text><text xml:space="preserve" font-family="PTMono-Bold" font-weight="bold" font-size="36.0" fill="#000000" transform="matrix(1.00, 0.00, -0.00, -1.00, 2.0, 151.0)">p</text><text xml:space="preserve" font-family="PTMono-Bold" font-weight="bold" font-size="36.0" fill="#000000" transform="matrix(1.00, 0.00, -0.00, -1.00, 23.6, 151.0)">r</text><text xml:space="preserve" font-family="PTMono-Bold" font-weight="bold" font-size="36.0" fill="#000000" transform="matrix(1.00, 0.00, -0.00, -1.00, 45.2, 151.0)">o</text><text xml:space="preserve" font-family="PTMono-Bold" font-weight="bold" font-size="36.0" fill="#000000" transform="matrix(1.00, 0.00, -0.00, -1.00, 66.8, 151.0)">j</text><text xml:space="preserve" font-family="PTMono-Bold" font-weight="bold" font-size="36.0" fill="#000000" transform="matrix(1.00, 0.00, -0.00, -1.00, 88.4, 151.0)">e</text><text xml:space="preserve" font-family="PTMono-Bold" font-weight="bold" font-size="36.0" fill="#000000" transform="matrix(1.00, 0.00, -0.00, -1.00, 110.0, 151.0)">c</text><text xml:space="preserve" font-family="PTMono-Bold" font-weight="bold" font-size="36.0" fill="#000000" transform="matrix(1.00, 0.00, -0.00, -1.00, 131.6, 151.0)">t</text><text xml:space="preserve" font-family="PTMono-Regular" font-size="36.0" fill="#000000" transform="matrix(1.00, 0.00, -0.00, -1.00, 153.2, 151.0)">/</text><text xml:space="preserve" font-family="PTMono-Regular" font-size="36.0" fill="#000000" transform="matrix(1.00, 0.00, -0.00, -1.00, 174.8, 151.0)"> </text><text xml:space="preserve" font-family="PTMono-Regular" font-size="36.0" fill="#000000" transform="matrix(1.00, 0.00, -0.00, -1.00, 196.4, 151.0)"> </text><text xml:space="preserve" font-family="PTMono-Regular" font-size="36.0" fill="#000000" transform="matrix(1.00, 0.00, -0.00, -1.00, 218.0, 151.0)"> </text><text xml:space="preserve" font-family="PTMono-Regular" font-size="36.0" fill="#000000" transform="matrix(1.00, 0.00, -0.00, -1.00, 239.6, 151.0)"> </text><text xml:space="preserve" font-family="PTMono-Regular" font-size="36.0" fill="#000000" transform="matrix(1.00, 0.00, -0.00, -1.00, 261.2, 151.0)"> </text><text xml:space="preserve" font-family="PTMono-Regular" font-size="36.0" fill="#000000" transform="matrix(1.00, 0.00, -0.00, -1.00, 282.8, 151.0)"> </text><text xml:space="preserve" font-family="PTMono-Regular" font-size="36.0" fill="#000000" transform="matrix(1.00, 0.00, -0.00, -1.00, 304.4, 151.0)"> </text><text xml:space="preserve" font-family="PTMono-Regular" font-size="36.0" fill="#000000" transform="matrix(1.00, 0.00, -0.00, -1.00, 326.0, 151.0)"> </text><text xml:space="preserve" font-family="PTMono-Regular" font-size="36.0" fill="#000000" transform="matrix(1.00, 0.00, -0.00, -1.00, 347.6, 151.0)"> </text><text xml:space="preserve" font-family="PTMono-Regular" font-size="36.0" fill="#000000" transform="matrix(1.00, 0.00, -0.00, -1.00, 369.2, 151.0)"> </text><text xml:space="preserve" font-family="PTMono-Regular" font-size="36.0" fill="#000000" transform="matrix(1.00, 0.00, -0.00, -1.00, 390.8, 151.0)"> </text><text xml:space="preserve" font-family="PTMono-Regular" font-size="36.0" fill="#000000" transform="matrix(1.00, 0.00, -0.00, -1.00, 412.4, 151.0)"> </text><text xml:space="preserve" font-family="PTMono-Regular" font-size="36.0" fill="#000000" transform="matrix(1.00, 0.00, -0.00, -1.00, 434.0, 151.0)"> </text><text xml:space="preserve" font-family="PTMono-Regular" font-size="36.0" fill="#000000" transform="matrix(1.00, 0.00, -0.00, -1.00, 455.6, 151.0)"> </text><text xml:space="preserve" font-family="PTMono-Regular" font-size="36.0" fill="#000000" transform="matrix(1.00, 0.00, -0.00, -1.00, 477.2, 151.0)"> </text><text xml:space="preserve" font-family="PTMono-Regular" font-size="36.0" fill="#000000" transform="matrix(1.00, 0.00, -0.00, -1.00, 498.8, 151.0)">#</text><text xml:space="preserve" font-family="PTMono-Regular" font-size="36.0" fill="#000000" transform="matrix(1.00, 0.00, -0.00, -1.00, 520.4, 151.0)"> </text><text xml:space="preserve" font-family="PTMono-Regular" font-size="36.0" fill="#00872A" transform="matrix(1.00, 0.00, -0.00, -1.00, 542.0, 151.0)">У</text><text xml:space="preserve" font-family="PTMono-Regular" font-size="36.0" fill="#00872A" transform="matrix(1.00, 0.00, -0.00, -1.00, 563.6, 151.0)">р</text><text xml:space="preserve" font-family="PTMono-Regular" font-size="36.0" fill="#00872A" transform="matrix(1.00, 0.00, -0.00, -1.00, 585.2, 151.0)">о</text><text xml:space="preserve" font-family="PTMono-Regular" font-size="36.0" fill="#00872A" transform="matrix(1.00, 0.00, -0.00, -1.00, 606.8, 151.0)">в</text><text xml:space="preserve" font-family="PTMono-Regular" font-size="36.0" fill="#00872A" transform="matrix(1.00, 0.00, -0.00, -1.00, 628.4, 151.0)">е</text><text xml:space="preserve" font-family="PTMono-Regular" font-size="36.0" fill="#00872A" transform="matrix(1.00, 0.00, -0.00, -1.00, 650.0, 151.0)">н</text><text xml:space="preserve" font-family="PTMono-Regular" font-size="36.0" fill="#00872A" transform="matrix(1.00, 0.00, -0.00, -1.00, 671.6, 151.0)">ь</text><text xml:space="preserve" font-family="PTMono-Regular" font-size="36.0" fill="#00872A" transform="matrix(1.00, 0.00, -0.00, -1.00, 693.2, 151.0)"> </text><text xml:space="preserve" font-family="PTMono-Regular" font-size="36.0" fill="#00872A" transform="matrix(1.00, 0.00, -0.00, -1.00, 714.8, 151.0)">п</text><text xml:space="preserve" font-family="PTMono-Regular" font-size="36.0" fill="#00872A" transform="matrix(1.00, 0.00, -0.00, -1.00, 736.4, 151.0)">р</text><text xml:space="preserve" font-family="PTMono-Regular" font-size="36.0" fill="#00872A" transform="matrix(1.00, 0.00, -0.00, -1.00, 758.0, 151.0)">о</text><text xml:space="preserve" font-family="PTMono-Regular" font-size="36.0" fill="#00872A" transform="matrix(1.00, 0.00, -0.00, -1.00, 779.6, 151.0)">е</text><text xml:space="preserve" font-family="PTMono-Regular" font-size="36.0" fill="#00872A" transform="matrix(1.00, 0.00, -0.00, -1.00, 801.2, 151.0)">к</text><text xml:space="preserve" font-family="PTMono-Regular" font-size="36.0" fill="#00872A" transform="matrix(1.00, 0.00, -0.00, -1.00, 822.8, 151.0)">т</text><text xml:space="preserve" font-family="PTMono-Regular" font-size="36.0" fill="#00872A" transform="matrix(1.00, 0.00, -0.00, -1.00, 844.4, 151.0)">а</text><text xml:space="preserve" font-family="PTMono-Regular" font-size="36.0" fill="#000000" transform="matrix(1.00, 0.00, -0.00, -1.00, 866.0, 151.0)"> </text><text xml:space="preserve" font-family="PTMono-Regular" font-size="36.0" fill="#000000" transform="matrix(1.00, 0.00, -0.00, -1.00, 2.0, 103.0)"> </text><text xml:space="preserve" font-family="PTMono-Regular" font-size="36.0" fill="#000000" transform="matrix(1.00, 0.00, -0.00, -1.00, 23.6, 103.0)"> </text><text xml:space="preserve" font-family="PTMono-Regular" font-size="36.0" fill="#000000" transform="matrix(1.00, 0.00, -0.00, -1.00, 45.2, 103.0)">i</text><text xml:space="preserve" font-family="PTMono-Regular" font-size="36.0" fill="#000000" transform="matrix(1.00, 0.00, -0.00, -1.00, 66.8, 103.0)">n</text><text xml:space="preserve" font-family="PTMono-Regular" font-size="36.0" fill="#000000" transform="matrix(1.00, 0.00, -0.00, -1.00, 88.4, 103.0)">p</text><text xml:space="preserve" font-family="PTMono-Regular" font-size="36.0" fill="#000000" transform="matrix(1.00, 0.00, -0.00, -1.00, 110.0, 103.0)">u</text><text xml:space="preserve" font-family="PTMono-Regular" font-size="36.0" fill="#000000" transform="matrix(1.00, 0.00, -0.00, -1.00, 131.6, 103.0)">t</text><text xml:space="preserve" font-family="PTMono-Regular" font-size="36.0" fill="#000000" transform="matrix(1.00, 0.00, -0.00, -1.00, 153.2, 103.0)">/</text><text xml:space="preserve" font-family="PTMono-Regular" font-size="36.0" fill="#000000" transform="matrix(1.00, 0.00, -0.00, -1.00, 174.8, 103.0)"> </text><text xml:space="preserve" font-family="PTMono-Regular" font-size="36.0" fill="#000000" transform="matrix(1.00, 0.00, -0.00, -1.00, 2.0, 55.0)"> </text><text xml:space="preserve" font-family="PTMono-Regular" font-size="36.0" fill="#000000" transform="matrix(1.00, 0.00, -0.00, -1.00, 23.6, 55.0)"> </text><text xml:space="preserve" font-family="PTMono-Regular" font-size="36.0" fill="#000000" transform="matrix(1.00, 0.00, -0.00, -1.00, 45.2, 55.0)">b</text><text xml:space="preserve" font-family="PTMono-Regular" font-size="36.0" fill="#000000" transform="matrix(1.00, 0.00, -0.00, -1.00, 66.8, 55.0)">u</text><text xml:space="preserve" font-family="PTMono-Regular" font-size="36.0" fill="#000000" transform="matrix(1.00, 0.00, -0.00, -1.00, 88.4, 55.0)">t</text><text xml:space="preserve" font-family="PTMono-Regular" font-size="36.0" fill="#000000" transform="matrix(1.00, 0.00, -0.00, -1.00, 110.0, 55.0)">t</text><text xml:space="preserve" font-family="PTMono-Regular" font-size="36.0" fill="#000000" transform="matrix(1.00, 0.00, -0.00, -1.00, 131.6, 55.0)">o</text><text xml:space="preserve" font-family="PTMono-Regular" font-size="36.0" fill="#000000" transform="matrix(1.00, 0.00, -0.00, -1.00, 153.2, 55.0)">n</text><text xml:space="preserve" font-family="PTMono-Regular" font-size="36.0" fill="#000000" transform="matrix(1.00, 0.00, -0.00, -1.00, 174.8, 55.0)">/</text><text xml:space="preserve" font-family="PTMono-Regular" font-size="36.0" fill="#000000" transform="matrix(1.00, 0.00, -0.00, -1.00, 196.4, 55.0)"> </text><text xml:space="preserve" font-family="PTMono-Regular" font-size="36.0" fill="#000000" transform="matrix(1.00, 0.00, -0.00, -1.00, 218.0, 55.0)"> </text><text xml:space="preserve" font-family="PTMono-Regular" font-size="36.0" fill="#000000" transform="matrix(1.00, 0.00, -0.00, -1.00, 239.6, 55.0)"> </text><text xml:space="preserve" font-family="PTMono-Regular" font-size="36.0" fill="#000000" transform="matrix(1.00, 0.00, -0.00, -1.00, 261.2, 55.0)"> </text><text xml:space="preserve" font-family="PTMono-Regular" font-size="36.0" fill="#000000" transform="matrix(1.00, 0.00, -0.00, -1.00, 282.8, 55.0)"> </text><text xml:space="preserve" font-family="PTMono-Regular" font-size="36.0" fill="#000000" transform="matrix(1.00, 0.00, -0.00, -1.00, 304.4, 55.0)"> </text><text xml:space="preserve" font-family="PTMono-Regular" font-size="36.0" fill="#000000" transform="matrix(1.00, 0.00, -0.00, -1.00, 326.0, 55.0)"> </text><text xml:space="preserve" font-family="PTMono-Regular" font-size="36.0" fill="#000000" transform="matrix(1.00, 0.00, -0.00, -1.00, 347.6, 55.0)"> </text><text xml:space="preserve" font-family="PTMono-Regular" font-size="36.0" fill="#000000" transform="matrix(1.00, 0.00, -0.00, -1.00, 369.2, 55.0)"> </text><text xml:space="preserve" font-family="PTMono-Regular" font-size="36.0" fill="#000000" transform="matrix(1.00, 0.00, -0.00, -1.00, 390.8, 55.0)"> </text><text xml:space="preserve" font-family="PTMono-Regular" font-size="36.0" fill="#000000" transform="matrix(1.00, 0.00, -0.00, -1.00, 412.4, 55.0)"> </text><text xml:space="preserve" font-family="PTMono-Regular" font-size="36.0" fill="#000000" transform="matrix(1.00, 0.00, -0.00, -1.00, 434.0, 55.0)"> </text><text xml:space="preserve" font-family="PTMono-Regular" font-size="36.0" fill="#000000" transform="matrix(1.00, 0.00, -0.00, -1.00, 455.6, 55.0)"> </text><text xml:space="preserve" font-family="PTMono-Regular" font-size="36.0" fill="#000000" transform="matrix(1.00, 0.00, -0.00, -1.00, 477.2, 55.0)"> </text><text xml:space="preserve" font-family="PTMono-Regular" font-size="36.0" fill="#000000" transform="matrix(1.00, 0.00, -0.00, -1.00, 498.8, 55.0)">#</text><text xml:space="preserve" font-family="PTMono-Regular" font-size="36.0" fill="#000000" transform="matrix(1.00, 0.00, -0.00, -1.00, 520.4, 55.0)"> </text><text xml:space="preserve" font-family="PTMono-Regular" font-size="36.0" fill="#00872A" transform="matrix(1.00, 0.00, -0.00, -1.00, 542.0, 55.0)">И</text><text xml:space="preserve" font-family="PTMono-Regular" font-size="36.0" fill="#00872A" transform="matrix(1.00, 0.00, -0.00, -1.00, 563.6, 55.0)">з</text><text xml:space="preserve" font-family="PTMono-Regular" font-size="36.0" fill="#00872A" transform="matrix(1.00, 0.00, -0.00, -1.00, 585.2, 55.0)">м</text><text xml:space="preserve" font-family="PTMono-Regular" font-size="36.0" fill="#00872A" transform="matrix(1.00, 0.00, -0.00, -1.00, 606.8, 55.0)">е</text><text xml:space="preserve" font-family="PTMono-Regular" font-size="36.0" fill="#00872A" transform="matrix(1.00, 0.00, -0.00, -1.00, 628.4, 55.0)">н</text><text xml:space="preserve" font-family="PTMono-Regular" font-size="36.0" fill="#00872A" transform="matrix(1.00, 0.00, -0.00, -1.00, 650.0, 55.0)">е</text><text xml:space="preserve" font-family="PTMono-Regular" font-size="36.0" fill="#00872A" transform="matrix(1.00, 0.00, -0.00, -1.00, 671.6, 55.0)">н</text><text xml:space="preserve" font-family="PTMono-Regular" font-size="36.0" fill="#00872A" transform="matrix(1.00, 0.00, -0.00, -1.00, 693.2, 55.0)">н</text><text xml:space="preserve" font-family="PTMono-Regular" font-size="36.0" fill="#00872A" transform="matrix(1.00, 0.00, -0.00, -1.00, 714.8, 55.0)">а</text><text xml:space="preserve" font-family="PTMono-Regular" font-size="36.0" fill="#00872A" transform="matrix(1.00, 0.00, -0.00, -1.00, 736.4, 55.0)">я</text><text xml:space="preserve" font-family="PTMono-Regular" font-size="36.0" fill="#00872A" transform="matrix(1.00, 0.00, -0.00, -1.00, 758.0, 55.0)"> </text><text xml:space="preserve" font-family="PTMono-Regular" font-size="36.0" fill="#00872A" transform="matrix(1.00, 0.00, -0.00, -1.00, 779.6, 55.0)">р</text><text xml:space="preserve" font-family="PTMono-Regular" font-size="36.0" fill="#00872A" transform="matrix(1.00, 0.00, -0.00, -1.00, 801.2, 55.0)">е</text><text xml:space="preserve" font-family="PTMono-Regular" font-size="36.0" fill="#00872A" transform="matrix(1.00, 0.00, -0.00, -1.00, 822.8, 55.0)">а</text><text xml:space="preserve" font-family="PTMono-Regular" font-size="36.0" fill="#00872A" transform="matrix(1.00, 0.00, -0.00, -1.00, 844.4, 55.0)">л</text><text xml:space="preserve" font-family="PTMono-Regular" font-size="36.0" fill="#00872A" transform="matrix(1.00, 0.00, -0.00, -1.00, 866.0, 55.0)">и</text><text xml:space="preserve" font-family="PTMono-Regular" font-size="36.0" fill="#00872A" transform="matrix(1.00, 0.00, -0.00, -1.00, 887.6, 55.0)">з</text><text xml:space="preserve" font-family="PTMono-Regular" font-size="36.0" fill="#00872A" transform="matrix(1.00, 0.00, -0.00, -1.00, 909.2, 55.0)">а</text><text xml:space="preserve" font-family="PTMono-Regular" font-size="36.0" fill="#00872A" transform="matrix(1.00, 0.00, -0.00, -1.00, 930.8, 55.0)">ц</text><text xml:space="preserve" font-family="PTMono-Regular" font-size="36.0" fill="#00872A" transform="matrix(1.00, 0.00, -0.00, -1.00, 952.4, 55.0)">и</text><text xml:space="preserve" font-family="PTMono-Regular" font-size="36.0" fill="#00872A" transform="matrix(1.00, 0.00, -0.00, -1.00, 974.0, 55.0)">я</text><text xml:space="preserve" font-family="PTMono-Regular" font-size="36.0" fill="#00872A" transform="matrix(1.00, 0.00, -0.00, -1.00, 995.6, 55.0)"> </text><text xml:space="preserve" font-family="PTMono-Regular" font-size="36.0" fill="#00872A" transform="matrix(1.00, 0.00, -0.00, -1.00, 1017.2, 55.0)">б</text><text xml:space="preserve" font-family="PTMono-Regular" font-size="36.0" fill="#00872A" transform="matrix(1.00, 0.00, -0.00, -1.00, 1038.8, 55.0)">л</text><text xml:space="preserve" font-family="PTMono-Regular" font-size="36.0" fill="#00872A" transform="matrix(1.00, 0.00, -0.00, -1.00, 1060.4, 55.0)">о</text><text xml:space="preserve" font-family="PTMono-Regular" font-size="36.0" fill="#00872A" transform="matrix(1.00, 0.00, -0.00, -1.00, 1082.0, 55.0)">к</text><text xml:space="preserve" font-family="PTMono-Regular" font-size="36.0" fill="#00872A" transform="matrix(1.00, 0.00, -0.00, -1.00, 1103.6, 55.0)">а</text><text xml:space="preserve" font-family="PTMono-Regular" font-size="36.0" fill="#00872A" transform="matrix(1.00, 0.00, -0.00, -1.00, 1125.2, 55.0)"> </text><text xml:space="preserve" font-family="PTMono-Regular" font-size="36.0" fill="#00872A" transform="matrix(1.00, 0.00, -0.00, -1.00, 1146.8, 55.0)">b</text><text xml:space="preserve" font-family="PTMono-Regular" font-size="36.0" fill="#00872A" transform="matrix(1.00, 0.00, -0.00, -1.00, 1168.4, 55.0)">u</text><text xml:space="preserve" font-family="PTMono-Regular" font-size="36.0" fill="#00872A" transform="matrix(1.00, 0.00, -0.00, -1.00, 1190.0, 55.0)">t</text><text xml:space="preserve" font-family="PTMono-Regular" font-size="36.0" fill="#00872A" transform="matrix(1.00, 0.00, -0.00, -1.00, 1211.6, 55.0)">t</text><text xml:space="preserve" font-family="PTMono-Regular" font-size="36.0" fill="#00872A" transform="matrix(1.00, 0.00, -0.00, -1.00, 1233.2, 55.0)">o</text><text xml:space="preserve" font-family="PTMono-Regular" font-size="36.0" fill="#00872A" transform="matrix(1.00, 0.00, -0.00, -1.00, 1254.8, 55.0)">n</text><text xml:space="preserve" font-family="PTMono-Regular" font-size="36.0" fill="#000000" transform="matrix(1.00, 0.00, -0.00, -1.00, 1276.4, 55.0)"> </text><text xml:space="preserve" font-family="PTMono-Regular" font-size="36.0" fill="#000000" transform="matrix(1.00, 0.00, -0.00, -1.00, 2.0, 7.0)"> </text><text xml:space="preserve" font-family="PTMono-Regular" font-size="36.0" fill="#000000" transform="matrix(1.00, 0.00, -0.00, -1.00, 23.6, 7.0)"> </text><text xml:space="preserve" font-family="PTMono-Regular" font-size="36.0" fill="#000000" transform="matrix(1.00, 0.00, -0.00, -1.00, 45.2, 7.0)">h</text><text xml:space="preserve" font-family="PTMono-Regular" font-size="36.0" fill="#000000" transform="matrix(1.00, 0.00, -0.00, -1.00, 66.8, 7.0)">e</text><text xml:space="preserve" font-family="PTMono-Regular" font-size="36.0" fill="#000000" transform="matrix(1.00, 0.00, -0.00, -1.00, 88.4, 7.0)">a</text><text xml:space="preserve" font-family="PTMono-Regular" font-size="36.0" fill="#000000" transform="matrix(1.00, 0.00, -0.00, -1.00, 110.0, 7.0)">d</text><text xml:space="preserve" font-family="PTMono-Regular" font-size="36.0" fill="#000000" transform="matrix(1.00, 0.00, -0.00, -1.00, 131.6, 7.0)">e</text><text xml:space="preserve" font-family="PTMono-Regular" font-size="36.0" fill="#000000" transform="matrix(1.00, 0.00, -0.00, -1.00, 153.2, 7.0)">r</text><text xml:space="preserve" font-family="PTMono-Regular" font-size="36.0" fill="#000000" transform="matrix(1.00, 0.00, -0.00, -1.00, 174.8, 7.0)">/</text></g></svg>