<?xml version="1.0" encoding="UTF-8" standalone="no"?><svg xmlns="http://www.w3.org/2000/svg" xmlns:xlink="http://www.w3.org/1999/xlink" clip-rule="evenodd" stroke-miterlimit="4.00" viewBox="0 0 1920 1080"><desc>SVG generated by Keynote</desc><defs></defs><g transform="matrix(1.00, 0.00, -0.00, -1.00, 0.0, 1080.0)"><path d="M 0.0 1080.0 L 1920.0 1080.0 L 1920.0 0.0 L 0.0 0.0 Z M 0.0 1080.0 " fill="#FEFFFF"></path><text xml:space="preserve" font-family="YandexSansText-Regular" font-size="80.0" fill="#000000" transform="matrix(1.00, 0.00, -0.00, -1.00, 94.0, 932.0)">С</text><text xml:space="preserve" font-family="YandexSansText-Regular" font-size="80.0" fill="#000000" transform="matrix(1.00, 0.00, -0.00, -1.00, 145.5, 932.0)">б</text><text xml:space="preserve" font-family="YandexSansText-Regular" font-size="80.0" fill="#000000" transform="matrix(1.00, 0.00, -0.00, -1.00, 193.7, 932.0)">о</text><text xml:space="preserve" font-family="YandexSansText-Regular" font-size="80.0" fill="#000000" transform="matrix(1.00, 0.00, -0.00, -1.00, 240.2, 932.0)">р</text><text xml:space="preserve" font-family="YandexSansText-Regular" font-size="80.0" fill="#000000" transform="matrix(1.00, 0.00, -0.00, -1.00, 289.2, 932.0)">к</text><text xml:space="preserve" font-family="YandexSansText-Regular" font-size="80.0" fill="#000000" transform="matrix(1.00, 0.00, -0.00, -1.00, 329.9, 932.0)">а</text><text xml:space="preserve" font-family="YandexSansText-Regular" font-size="80.0" fill="#000000" transform="matrix(1.00, 0.00, -0.00, -1.00, 372.2, 932.0)"> </text><text xml:space="preserve" font-family="YandexSansText-Regular" font-size="80.0" fill="#000000" transform="matrix(1.00, 0.00, -0.00, -1.00, 387.9, 932.0)">п</text><text xml:space="preserve" font-family="YandexSansText-Regular" font-size="80.0" fill="#000000" transform="matrix(1.00, 0.00, -0.00, -1.00, 433.5, 932.0)">р</text><text xml:space="preserve" font-family="YandexSansText-Regular" font-size="80.0" fill="#000000" transform="matrix(1.00, 0.00, -0.00, -1.00, 482.5, 932.0)">и</text><text xml:space="preserve" font-family="YandexSansText-Regular" font-size="80.0" fill="#000000" transform="matrix(1.00, 0.00, -0.00, -1.00, 531.1, 932.0)"> </text><text xml:space="preserve" font-family="YandexSansText-Regular" font-size="80.0" fill="#000000" transform="matrix(1.00, 0.00, -0.00, -1.00, 546.8, 932.0)">к</text><text xml:space="preserve" font-family="YandexSansText-Regular" font-size="80.0" fill="#000000" transform="matrix(1.00, 0.00, -0.00, -1.00, 586.7, 932.0)">о</text><text xml:space="preserve" font-family="YandexSansText-Regular" font-size="80.0" fill="#000000" transform="matrix(1.00, 0.00, -0.00, -1.00, 633.3, 932.0)">м</text><text xml:space="preserve" font-family="YandexSansText-Regular" font-size="80.0" fill="#000000" transform="matrix(1.00, 0.00, -0.00, -1.00, 692.2, 932.0)">п</text><text xml:space="preserve" font-family="YandexSansText-Regular" font-size="80.0" fill="#000000" transform="matrix(1.00, 0.00, -0.00, -1.00, 737.8, 932.0)">о</text><text xml:space="preserve" font-family="YandexSansText-Regular" font-size="80.0" fill="#000000" transform="matrix(1.00, 0.00, -0.00, -1.00, 784.3, 932.0)">н</text><text xml:space="preserve" font-family="YandexSansText-Regular" font-size="80.0" fill="#000000" transform="matrix(1.00, 0.00, -0.00, -1.00, 830.8, 932.0)">е</text><text xml:space="preserve" font-family="YandexSansText-Regular" font-size="80.0" fill="#000000" transform="matrix(1.00, 0.00, -0.00, -1.00, 874.2, 932.0)">н</text><text xml:space="preserve" font-family="YandexSansText-Regular" font-size="80.0" fill="#000000" transform="matrix(1.00, 0.00, -0.00, -1.00, 920.7, 932.0)">т</text><text xml:space="preserve" font-family="YandexSansText-Regular" font-size="80.0" fill="#000000" transform="matrix(1.00, 0.00, -0.00, -1.00, 958.9, 932.0)">н</text><text xml:space="preserve" font-family="YandexSansText-Regular" font-size="80.0" fill="#000000" transform="matrix(1.00, 0.00, -0.00, -1.00, 1005.4, 932.0)">о</text><text xml:space="preserve" font-family="YandexSansText-Regular" font-size="80.0" fill="#000000" transform="matrix(1.00, 0.00, -0.00, -1.00, 1051.9, 932.0)">м</text><text xml:space="preserve" font-family="YandexSansText-Regular" font-size="80.0" fill="#000000" transform="matrix(1.00, 0.00, -0.00, -1.00, 1110.8, 932.0)"> </text><text xml:space="preserve" font-family="YandexSansText-Regular" font-size="80.0" fill="#000000" transform="matrix(1.00, 0.00, -0.00, -1.00, 1126.5, 932.0)">п</text><text xml:space="preserve" font-family="YandexSansText-Regular" font-size="80.0" fill="#000000" transform="matrix(1.00, 0.00, -0.00, -1.00, 1172.1, 932.0)">о</text><text xml:space="preserve" font-family="YandexSansText-Regular" font-size="80.0" fill="#000000" transform="matrix(1.00, 0.00, -0.00, -1.00, 1218.2, 932.0)">д</text><text xml:space="preserve" font-family="YandexSansText-Regular" font-size="80.0" fill="#000000" transform="matrix(1.00, 0.00, -0.00, -1.00, 1266.4, 932.0)">х</text><text xml:space="preserve" font-family="YandexSansText-Regular" font-size="80.0" fill="#000000" transform="matrix(1.00, 0.00, -0.00, -1.00, 1305.8, 932.0)">о</text><text xml:space="preserve" font-family="YandexSansText-Regular" font-size="80.0" fill="#000000" transform="matrix(1.00, 0.00, -0.00, -1.00, 1352.0, 932.0)">д</text><text xml:space="preserve" font-family="YandexSansText-Regular" font-size="80.0" fill="#000000" transform="matrix(1.00, 0.00, -0.00, -1.00, 1399.0, 932.0)">е</text><text xml:space="preserve" font-family="YandexSansText-Light" font-size="30.0" fill="#000000" transform="matrix(1.00, 0.00, -0.00, -1.00, 1809.2, 48.1)">6</text></g></svg>