<?xml version="1.0" encoding="UTF-8" standalone="no"?><svg xmlns="http://www.w3.org/2000/svg" xmlns:xlink="http://www.w3.org/1999/xlink" clip-rule="evenodd" stroke-miterlimit="4.00" viewBox="0 0 911 230"><desc>SVG generated by Keynote</desc><defs></defs><g transform="matrix(1.00, 0.00, -0.00, -1.00, 0.0, 230.0)"><text xml:space="preserve" font-family="PTMono-Bold" font-weight="bold" font-size="36.0" fill="#000000" transform="matrix(1.00, 0.00, -0.00, -1.00, 1.0, 202.0)">m</text><text xml:space="preserve" font-family="PTMono-Bold" font-weight="bold" font-size="36.0" fill="#000000" transform="matrix(1.00, 0.00, -0.00, -1.00, 22.6, 202.0)">y</text><text xml:space="preserve" font-family="PTMono-Bold" font-weight="bold" font-size="36.0" fill="#000000" transform="matrix(1.00, 0.00, -0.00, -1.00, 44.2, 202.0)">-</text><text xml:space="preserve" font-family="PTMono-Bold" font-weight="bold" font-size="36.0" fill="#000000" transform="matrix(1.00, 0.00, -0.00, -1.00, 65.8, 202.0)">c</text><text xml:space="preserve" font-family="PTMono-Bold" font-weight="bold" font-size="36.0" fill="#000000" transform="matrix(1.00, 0.00, -0.00, -1.00, 87.4, 202.0)">o</text><text xml:space="preserve" font-family="PTMono-Bold" font-weight="bold" font-size="36.0" fill="#000000" transform="matrix(1.00, 0.00, -0.00, -1.00, 109.0, 202.0)">m</text><text xml:space="preserve" font-family="PTMono-Bold" font-weight="bold" font-size="36.0" fill="#000000" transform="matrix(1.00, 0.00, -0.00, -1.00, 130.6, 202.0)">p</text><text xml:space="preserve" font-family="PTMono-Bold" font-weight="bold" font-size="36.0" fill="#000000" transform="matrix(1.00, 0.00, -0.00, -1.00, 152.2, 202.0)">o</text><text xml:space="preserve" font-family="PTMono-Bold" font-weight="bold" font-size="36.0" fill="#000000" transform="matrix(1.00, 0.00, -0.00, -1.00, 173.8, 202.0)">n</text><text xml:space="preserve" font-family="PTMono-Bold" font-weight="bold" font-size="36.0" fill="#000000" transform="matrix(1.00, 0.00, -0.00, -1.00, 195.4, 202.0)">e</text><text xml:space="preserve" font-family="PTMono-Bold" font-weight="bold" font-size="36.0" fill="#000000" transform="matrix(1.00, 0.00, -0.00, -1.00, 217.0, 202.0)">n</text><text xml:space="preserve" font-family="PTMono-Bold" font-weight="bold" font-size="36.0" fill="#000000" transform="matrix(1.00, 0.00, -0.00, -1.00, 238.6, 202.0)">t</text><text xml:space="preserve" font-family="PTMono-Bold" font-weight="bold" font-size="36.0" fill="#000000" transform="matrix(1.00, 0.00, -0.00, -1.00, 260.2, 202.0)">.</text><text xml:space="preserve" font-family="PTMono-Bold" font-weight="bold" font-size="36.0" fill="#000000" transform="matrix(1.00, 0.00, -0.00, -1.00, 281.8, 202.0)">j</text><text xml:space="preserve" font-family="PTMono-Bold" font-weight="bold" font-size="36.0" fill="#000000" transform="matrix(1.00, 0.00, -0.00, -1.00, 303.4, 202.0)">s</text><text xml:space="preserve" font-family="PTMono-Bold" font-weight="bold" font-size="36.0" fill="#000000" transform="matrix(1.00, 0.00, -0.00, -1.00, 325.0, 202.0)"> </text><text xml:space="preserve" font-family="PTMono-Regular" font-size="36.0" fill="#000000" transform="matrix(1.00, 0.00, -0.00, -1.00, 1.0, 106.0)">r</text><text xml:space="preserve" font-family="PTMono-Regular" font-size="36.0" fill="#000000" transform="matrix(1.00, 0.00, -0.00, -1.00, 22.6, 106.0)">e</text><text xml:space="preserve" font-family="PTMono-Regular" font-size="36.0" fill="#000000" transform="matrix(1.00, 0.00, -0.00, -1.00, 44.2, 106.0)">q</text><text xml:space="preserve" font-family="PTMono-Regular" font-size="36.0" fill="#000000" transform="matrix(1.00, 0.00, -0.00, -1.00, 65.8, 106.0)">u</text><text xml:space="preserve" font-family="PTMono-Regular" font-size="36.0" fill="#000000" transform="matrix(1.00, 0.00, -0.00, -1.00, 87.4, 106.0)">i</text><text xml:space="preserve" font-family="PTMono-Regular" font-size="36.0" fill="#000000" transform="matrix(1.00, 0.00, -0.00, -1.00, 109.0, 106.0)">r</text><text xml:space="preserve" font-family="PTMono-Regular" font-size="36.0" fill="#000000" transform="matrix(1.00, 0.00, -0.00, -1.00, 130.6, 106.0)">e</text><text xml:space="preserve" font-family="PTMono-Regular" font-size="36.0" fill="#000000" transform="matrix(1.00, 0.00, -0.00, -1.00, 152.2, 106.0)">(</text><text xml:space="preserve" font-family="PTMono-Regular" font-size="36.0" fill="#000000" transform="matrix(1.00, 0.00, -0.00, -1.00, 173.8, 106.0)">'</text><text xml:space="preserve" font-family="PTMono-Regular" font-size="36.0" fill="#00872A" transform="matrix(1.00, 0.00, -0.00, -1.00, 195.4, 106.0)">.</text><text xml:space="preserve" font-family="PTMono-Regular" font-size="36.0" fill="#00872A" transform="matrix(1.00, 0.00, -0.00, -1.00, 217.0, 106.0)">.</text><text xml:space="preserve" font-family="PTMono-Regular" font-size="36.0" fill="#00872A" transform="matrix(1.00, 0.00, -0.00, -1.00, 238.6, 106.0)">/</text><text xml:space="preserve" font-family="PTMono-Regular" font-size="36.0" fill="#00872A" transform="matrix(1.00, 0.00, -0.00, -1.00, 260.2, 106.0)">.</text><text xml:space="preserve" font-family="PTMono-Regular" font-size="36.0" fill="#00872A" transform="matrix(1.00, 0.00, -0.00, -1.00, 281.8, 106.0)">.</text><text xml:space="preserve" font-family="PTMono-Regular" font-size="36.0" fill="#00872A" transform="matrix(1.00, 0.00, -0.00, -1.00, 303.4, 106.0)">/</text><text xml:space="preserve" font-family="PTMono-Regular" font-size="36.0" fill="#00872A" transform="matrix(1.00, 0.00, -0.00, -1.00, 325.0, 106.0)">p</text><text xml:space="preserve" font-family="PTMono-Regular" font-size="36.0" fill="#00872A" transform="matrix(1.00, 0.00, -0.00, -1.00, 346.6, 106.0)">a</text><text xml:space="preserve" font-family="PTMono-Regular" font-size="36.0" fill="#00872A" transform="matrix(1.00, 0.00, -0.00, -1.00, 368.2, 106.0)">t</text><text xml:space="preserve" font-family="PTMono-Regular" font-size="36.0" fill="#00872A" transform="matrix(1.00, 0.00, -0.00, -1.00, 389.8, 106.0)">h</text><text xml:space="preserve" font-family="PTMono-Regular" font-size="36.0" fill="#00872A" transform="matrix(1.00, 0.00, -0.00, -1.00, 411.4, 106.0)">/</text><text xml:space="preserve" font-family="PTMono-Regular" font-size="36.0" fill="#00872A" transform="matrix(1.00, 0.00, -0.00, -1.00, 433.0, 106.0)">t</text><text xml:space="preserve" font-family="PTMono-Regular" font-size="36.0" fill="#00872A" transform="matrix(1.00, 0.00, -0.00, -1.00, 454.6, 106.0)">o</text><text xml:space="preserve" font-family="PTMono-Regular" font-size="36.0" fill="#00872A" transform="matrix(1.00, 0.00, -0.00, -1.00, 476.2, 106.0)">/</text><text xml:space="preserve" font-family="PTMono-Bold" font-weight="bold" font-size="36.0" fill="#00872A" transform="matrix(1.00, 0.00, -0.00, -1.00, 497.8, 106.0)">b</text><text xml:space="preserve" font-family="PTMono-Bold" font-weight="bold" font-size="36.0" fill="#00872A" transform="matrix(1.00, 0.00, -0.00, -1.00, 519.4, 106.0)">u</text><text xml:space="preserve" font-family="PTMono-Bold" font-weight="bold" font-size="36.0" fill="#00872A" transform="matrix(1.00, 0.00, -0.00, -1.00, 541.0, 106.0)">t</text><text xml:space="preserve" font-family="PTMono-Bold" font-weight="bold" font-size="36.0" fill="#00872A" transform="matrix(1.00, 0.00, -0.00, -1.00, 562.6, 106.0)">t</text><text xml:space="preserve" font-family="PTMono-Bold" font-weight="bold" font-size="36.0" fill="#00872A" transform="matrix(1.00, 0.00, -0.00, -1.00, 584.2, 106.0)">o</text><text xml:space="preserve" font-family="PTMono-Bold" font-weight="bold" font-size="36.0" fill="#00872A" transform="matrix(1.00, 0.00, -0.00, -1.00, 605.8, 106.0)">n</text><text xml:space="preserve" font-family="PTMono-Regular" font-size="36.0" fill="#00872A" transform="matrix(1.00, 0.00, -0.00, -1.00, 627.4, 106.0)">/</text><text xml:space="preserve" font-family="PTMono-Bold" font-weight="bold" font-size="36.0" fill="#00872A" transform="matrix(1.00, 0.00, -0.00, -1.00, 649.0, 106.0)">b</text><text xml:space="preserve" font-family="PTMono-Bold" font-weight="bold" font-size="36.0" fill="#00872A" transform="matrix(1.00, 0.00, -0.00, -1.00, 670.6, 106.0)">u</text><text xml:space="preserve" font-family="PTMono-Bold" font-weight="bold" font-size="36.0" fill="#00872A" transform="matrix(1.00, 0.00, -0.00, -1.00, 692.2, 106.0)">t</text><text xml:space="preserve" font-family="PTMono-Bold" font-weight="bold" font-size="36.0" fill="#00872A" transform="matrix(1.00, 0.00, -0.00, -1.00, 713.8, 106.0)">t</text><text xml:space="preserve" font-family="PTMono-Bold" font-weight="bold" font-size="36.0" fill="#00872A" transform="matrix(1.00, 0.00, -0.00, -1.00, 735.4, 106.0)">o</text><text xml:space="preserve" font-family="PTMono-Bold" font-weight="bold" font-size="36.0" fill="#00872A" transform="matrix(1.00, 0.00, -0.00, -1.00, 757.0, 106.0)">n</text><text xml:space="preserve" font-family="PTMono-Regular" font-size="36.0" fill="#00872A" transform="matrix(1.00, 0.00, -0.00, -1.00, 778.6, 106.0)">.</text><text xml:space="preserve" font-family="PTMono-Regular" font-size="36.0" fill="#00872A" transform="matrix(1.00, 0.00, -0.00, -1.00, 800.2, 106.0)">j</text><text xml:space="preserve" font-family="PTMono-Regular" font-size="36.0" fill="#00872A" transform="matrix(1.00, 0.00, -0.00, -1.00, 821.8, 106.0)">s</text><text xml:space="preserve" font-family="PTMono-Regular" font-size="36.0" fill="#000000" transform="matrix(1.00, 0.00, -0.00, -1.00, 843.4, 106.0)">'</text><text xml:space="preserve" font-family="PTMono-Regular" font-size="36.0" fill="#000000" transform="matrix(1.00, 0.00, -0.00, -1.00, 865.0, 106.0)">)</text><text xml:space="preserve" font-family="PTMono-Regular" font-size="36.0" fill="#000000" transform="matrix(1.00, 0.00, -0.00, -1.00, 886.6, 106.0)">;</text><text xml:space="preserve" font-family="PTMono-Regular" font-size="36.0" fill="#000000" transform="matrix(1.00, 0.00, -0.00, -1.00, 908.2, 106.0)"> </text><text xml:space="preserve" font-family="PTMono-Regular" font-size="36.0" fill="#000000" transform="matrix(1.00, 0.00, -0.00, -1.00, 1.0, 58.0)">r</text><text xml:space="preserve" font-family="PTMono-Regular" font-size="36.0" fill="#000000" transform="matrix(1.00, 0.00, -0.00, -1.00, 22.6, 58.0)">e</text><text xml:space="preserve" font-family="PTMono-Regular" font-size="36.0" fill="#000000" transform="matrix(1.00, 0.00, -0.00, -1.00, 44.2, 58.0)">q</text><text xml:space="preserve" font-family="PTMono-Regular" font-size="36.0" fill="#000000" transform="matrix(1.00, 0.00, -0.00, -1.00, 65.8, 58.0)">u</text><text xml:space="preserve" font-family="PTMono-Regular" font-size="36.0" fill="#000000" transform="matrix(1.00, 0.00, -0.00, -1.00, 87.4, 58.0)">i</text><text xml:space="preserve" font-family="PTMono-Regular" font-size="36.0" fill="#000000" transform="matrix(1.00, 0.00, -0.00, -1.00, 109.0, 58.0)">r</text><text xml:space="preserve" font-family="PTMono-Regular" font-size="36.0" fill="#000000" transform="matrix(1.00, 0.00, -0.00, -1.00, 130.6, 58.0)">e</text><text xml:space="preserve" font-family="PTMono-Regular" font-size="36.0" fill="#000000" transform="matrix(1.00, 0.00, -0.00, -1.00, 152.2, 58.0)">(</text><text xml:space="preserve" font-family="PTMono-Regular" font-size="36.0" fill="#000000" transform="matrix(1.00, 0.00, -0.00, -1.00, 173.8, 58.0)">'</text><text xml:space="preserve" font-family="PTMono-Regular" font-size="36.0" fill="#00872A" transform="matrix(1.00, 0.00, -0.00, -1.00, 195.4, 58.0)">.</text><text xml:space="preserve" font-family="PTMono-Regular" font-size="36.0" fill="#00872A" transform="matrix(1.00, 0.00, -0.00, -1.00, 217.0, 58.0)">.</text><text xml:space="preserve" font-family="PTMono-Regular" font-size="36.0" fill="#00872A" transform="matrix(1.00, 0.00, -0.00, -1.00, 238.6, 58.0)">/</text><text xml:space="preserve" font-family="PTMono-Regular" font-size="36.0" fill="#00872A" transform="matrix(1.00, 0.00, -0.00, -1.00, 260.2, 58.0)">.</text><text xml:space="preserve" font-family="PTMono-Regular" font-size="36.0" fill="#00872A" transform="matrix(1.00, 0.00, -0.00, -1.00, 281.8, 58.0)">.</text><text xml:space="preserve" font-family="PTMono-Regular" font-size="36.0" fill="#00872A" transform="matrix(1.00, 0.00, -0.00, -1.00, 303.4, 58.0)">/</text><text xml:space="preserve" font-family="PTMono-Regular" font-size="36.0" fill="#00872A" transform="matrix(1.00, 0.00, -0.00, -1.00, 325.0, 58.0)">p</text><text xml:space="preserve" font-family="PTMono-Regular" font-size="36.0" fill="#00872A" transform="matrix(1.00, 0.00, -0.00, -1.00, 346.6, 58.0)">a</text><text xml:space="preserve" font-family="PTMono-Regular" font-size="36.0" fill="#00872A" transform="matrix(1.00, 0.00, -0.00, -1.00, 368.2, 58.0)">t</text><text xml:space="preserve" font-family="PTMono-Regular" font-size="36.0" fill="#00872A" transform="matrix(1.00, 0.00, -0.00, -1.00, 389.8, 58.0)">h</text><text xml:space="preserve" font-family="PTMono-Regular" font-size="36.0" fill="#00872A" transform="matrix(1.00, 0.00, -0.00, -1.00, 411.4, 58.0)">/</text><text xml:space="preserve" font-family="PTMono-Regular" font-size="36.0" fill="#00872A" transform="matrix(1.00, 0.00, -0.00, -1.00, 433.0, 58.0)">t</text><text xml:space="preserve" font-family="PTMono-Regular" font-size="36.0" fill="#00872A" transform="matrix(1.00, 0.00, -0.00, -1.00, 454.6, 58.0)">o</text><text xml:space="preserve" font-family="PTMono-Regular" font-size="36.0" fill="#00872A" transform="matrix(1.00, 0.00, -0.00, -1.00, 476.2, 58.0)">/</text><text xml:space="preserve" font-family="PTMono-Bold" font-weight="bold" font-size="36.0" fill="#00872A" transform="matrix(1.00, 0.00, -0.00, -1.00, 497.8, 58.0)">l</text><text xml:space="preserve" font-family="PTMono-Bold" font-weight="bold" font-size="36.0" fill="#00872A" transform="matrix(1.00, 0.00, -0.00, -1.00, 519.4, 58.0)">i</text><text xml:space="preserve" font-family="PTMono-Bold" font-weight="bold" font-size="36.0" fill="#00872A" transform="matrix(1.00, 0.00, -0.00, -1.00, 541.0, 58.0)">n</text><text xml:space="preserve" font-family="PTMono-Bold" font-weight="bold" font-size="36.0" fill="#00872A" transform="matrix(1.00, 0.00, -0.00, -1.00, 562.6, 58.0)">k</text><text xml:space="preserve" font-family="PTMono-Regular" font-size="36.0" fill="#00872A" transform="matrix(1.00, 0.00, -0.00, -1.00, 584.2, 58.0)">/</text><text xml:space="preserve" font-family="PTMono-Bold" font-weight="bold" font-size="36.0" fill="#00872A" transform="matrix(1.00, 0.00, -0.00, -1.00, 605.8, 58.0)">l</text><text xml:space="preserve" font-family="PTMono-Bold" font-weight="bold" font-size="36.0" fill="#00872A" transform="matrix(1.00, 0.00, -0.00, -1.00, 627.4, 58.0)">i</text><text xml:space="preserve" font-family="PTMono-Bold" font-weight="bold" font-size="36.0" fill="#00872A" transform="matrix(1.00, 0.00, -0.00, -1.00, 649.0, 58.0)">n</text><text xml:space="preserve" font-family="PTMono-Bold" font-weight="bold" font-size="36.0" fill="#00872A" transform="matrix(1.00, 0.00, -0.00, -1.00, 670.6, 58.0)">k</text><text xml:space="preserve" font-family="PTMono-Regular" font-size="36.0" fill="#00872A" transform="matrix(1.00, 0.00, -0.00, -1.00, 692.2, 58.0)">.</text><text xml:space="preserve" font-family="PTMono-Regular" font-size="36.0" fill="#00872A" transform="matrix(1.00, 0.00, -0.00, -1.00, 713.8, 58.0)">j</text><text xml:space="preserve" font-family="PTMono-Regular" font-size="36.0" fill="#00872A" transform="matrix(1.00, 0.00, -0.00, -1.00, 735.4, 58.0)">s</text><text xml:space="preserve" font-family="PTMono-Regular" font-size="36.0" fill="#000000" transform="matrix(1.00, 0.00, -0.00, -1.00, 757.0, 58.0)">'</text><text xml:space="preserve" font-family="PTMono-Regular" font-size="36.0" fill="#000000" transform="matrix(1.00, 0.00, -0.00, -1.00, 778.6, 58.0)">)</text><text xml:space="preserve" font-family="PTMono-Regular" font-size="36.0" fill="#000000" transform="matrix(1.00, 0.00, -0.00, -1.00, 800.2, 58.0)">;</text><text xml:space="preserve" font-family="PTMono-Regular" font-size="36.0" fill="#000000" transform="matrix(1.00, 0.00, -0.00, -1.00, 821.8, 58.0)"> </text><text xml:space="preserve" font-family="PTMono-Regular" font-size="36.0" fill="#A6AAA8" transform="matrix(1.00, 0.00, -0.00, -1.00, 1.0, 10.0)">/</text><text xml:space="preserve" font-family="PTMono-Regular" font-size="36.0" fill="#A6AAA8" transform="matrix(1.00, 0.00, -0.00, -1.00, 22.6, 10.0)">*</text><text xml:space="preserve" font-family="PTMono-Regular" font-size="36.0" fill="#A6AAA8" transform="matrix(1.00, 0.00, -0.00, -1.00, 44.2, 10.0)"> </text><text xml:space="preserve" font-family="PTMono-Regular" font-size="36.0" fill="#A6AAA8" transform="matrix(1.00, 0.00, -0.00, -1.00, 65.8, 10.0)">m</text><text xml:space="preserve" font-family="PTMono-Regular" font-size="36.0" fill="#A6AAA8" transform="matrix(1.00, 0.00, -0.00, -1.00, 87.4, 10.0)">y</text><text xml:space="preserve" font-family="PTMono-Regular" font-size="36.0" fill="#A6AAA8" transform="matrix(1.00, 0.00, -0.00, -1.00, 109.0, 10.0)">-</text><text xml:space="preserve" font-family="PTMono-Regular" font-size="36.0" fill="#A6AAA8" transform="matrix(1.00, 0.00, -0.00, -1.00, 130.6, 10.0)">c</text><text xml:space="preserve" font-family="PTMono-Regular" font-size="36.0" fill="#A6AAA8" transform="matrix(1.00, 0.00, -0.00, -1.00, 152.2, 10.0)">o</text><text xml:space="preserve" font-family="PTMono-Regular" font-size="36.0" fill="#A6AAA8" transform="matrix(1.00, 0.00, -0.00, -1.00, 173.8, 10.0)">m</text><text xml:space="preserve" font-family="PTMono-Regular" font-size="36.0" fill="#A6AAA8" transform="matrix(1.00, 0.00, -0.00, -1.00, 195.4, 10.0)">p</text><text xml:space="preserve" font-family="PTMono-Regular" font-size="36.0" fill="#A6AAA8" transform="matrix(1.00, 0.00, -0.00, -1.00, 217.0, 10.0)">o</text><text xml:space="preserve" font-family="PTMono-Regular" font-size="36.0" fill="#A6AAA8" transform="matrix(1.00, 0.00, -0.00, -1.00, 238.6, 10.0)">n</text><text xml:space="preserve" font-family="PTMono-Regular" font-size="36.0" fill="#A6AAA8" transform="matrix(1.00, 0.00, -0.00, -1.00, 260.2, 10.0)">e</text><text xml:space="preserve" font-family="PTMono-Regular" font-size="36.0" fill="#A6AAA8" transform="matrix(1.00, 0.00, -0.00, -1.00, 281.8, 10.0)">n</text><text xml:space="preserve" font-family="PTMono-Regular" font-size="36.0" fill="#A6AAA8" transform="matrix(1.00, 0.00, -0.00, -1.00, 303.4, 10.0)">t</text><text xml:space="preserve" font-family="PTMono-Regular" font-size="36.0" fill="#A6AAA8" transform="matrix(1.00, 0.00, -0.00, -1.00, 325.0, 10.0)"> </text><text xml:space="preserve" font-family="PTMono-Regular" font-size="36.0" fill="#A6AAA8" transform="matrix(1.00, 0.00, -0.00, -1.00, 346.6, 10.0)">l</text><text xml:space="preserve" font-family="PTMono-Regular" font-size="36.0" fill="#A6AAA8" transform="matrix(1.00, 0.00, -0.00, -1.00, 368.2, 10.0)">o</text><text xml:space="preserve" font-family="PTMono-Regular" font-size="36.0" fill="#A6AAA8" transform="matrix(1.00, 0.00, -0.00, -1.00, 389.8, 10.0)">g</text><text xml:space="preserve" font-family="PTMono-Regular" font-size="36.0" fill="#A6AAA8" transform="matrix(1.00, 0.00, -0.00, -1.00, 411.4, 10.0)">i</text><text xml:space="preserve" font-family="PTMono-Regular" font-size="36.0" fill="#A6AAA8" transform="matrix(1.00, 0.00, -0.00, -1.00, 433.0, 10.0)">c</text><text xml:space="preserve" font-family="PTMono-Regular" font-size="36.0" fill="#A6AAA8" transform="matrix(1.00, 0.00, -0.00, -1.00, 454.6, 10.0)"> </text><text xml:space="preserve" font-family="PTMono-Regular" font-size="36.0" fill="#A6AAA8" transform="matrix(1.00, 0.00, -0.00, -1.00, 476.2, 10.0)">*</text><text xml:space="preserve" font-family="PTMono-Regular" font-size="36.0" fill="#A6AAA8" transform="matrix(1.00, 0.00, -0.00, -1.00, 497.8, 10.0)">/</text></g></svg>