<?xml version="1.0" encoding="UTF-8" standalone="no"?><svg xmlns="http://www.w3.org/2000/svg" xmlns:xlink="http://www.w3.org/1999/xlink" clip-rule="evenodd" stroke-miterlimit="4.00" viewBox="0 0 961 114"><desc>SVG generated by Keynote</desc><defs></defs><g transform="matrix(1.00, 0.00, -0.00, -1.00, 0.0, 114.0)"><text xml:space="preserve" font-family="PTMono-Regular" font-size="50.0" fill="#000000" transform="matrix(1.00, 0.00, -0.00, -1.00, 0.0, 77.0)">&lt;</text><text xml:space="preserve" font-family="PTMono-Regular" font-size="50.0" fill="#0264C0" transform="matrix(1.00, 0.00, -0.00, -1.00, 30.0, 77.0)">b</text><text xml:space="preserve" font-family="PTMono-Regular" font-size="50.0" fill="#0264C0" transform="matrix(1.00, 0.00, -0.00, -1.00, 60.0, 77.0)">u</text><text xml:space="preserve" font-family="PTMono-Regular" font-size="50.0" fill="#0264C0" transform="matrix(1.00, 0.00, -0.00, -1.00, 90.0, 77.0)">t</text><text xml:space="preserve" font-family="PTMono-Regular" font-size="50.0" fill="#0264C0" transform="matrix(1.00, 0.00, -0.00, -1.00, 120.0, 77.0)">t</text><text xml:space="preserve" font-family="PTMono-Regular" font-size="50.0" fill="#0264C0" transform="matrix(1.00, 0.00, -0.00, -1.00, 150.0, 77.0)">o</text><text xml:space="preserve" font-family="PTMono-Regular" font-size="50.0" fill="#0264C0" transform="matrix(1.00, 0.00, -0.00, -1.00, 180.0, 77.0)">n</text><text xml:space="preserve" font-family="PTMono-Regular" font-size="50.0" fill="#000000" transform="matrix(1.00, 0.00, -0.00, -1.00, 210.0, 77.0)"> </text><text xml:space="preserve" font-family="PTMono-Regular" font-size="50.0" fill="#A6AAA8" transform="matrix(1.00, 0.00, -0.00, -1.00, 240.0, 77.0)">c</text><text xml:space="preserve" font-family="PTMono-Regular" font-size="50.0" fill="#A6AAA8" transform="matrix(1.00, 0.00, -0.00, -1.00, 270.0, 77.0)">l</text><text xml:space="preserve" font-family="PTMono-Regular" font-size="50.0" fill="#A6AAA8" transform="matrix(1.00, 0.00, -0.00, -1.00, 300.0, 77.0)">a</text><text xml:space="preserve" font-family="PTMono-Regular" font-size="50.0" fill="#A6AAA8" transform="matrix(1.00, 0.00, -0.00, -1.00, 330.0, 77.0)">s</text><text xml:space="preserve" font-family="PTMono-Regular" font-size="50.0" fill="#A6AAA8" transform="matrix(1.00, 0.00, -0.00, -1.00, 360.0, 77.0)">s</text><text xml:space="preserve" font-family="PTMono-Regular" font-size="50.0" fill="#A6AAA8" transform="matrix(1.00, 0.00, -0.00, -1.00, 390.0, 77.0)">=</text><text xml:space="preserve" font-family="PTMono-Regular" font-size="50.0" fill="#000000" transform="matrix(1.00, 0.00, -0.00, -1.00, 420.0, 77.0)">"</text><text xml:space="preserve" font-family="PTMono-Bold" font-weight="bold" font-size="50.0" fill="#00872A" transform="matrix(1.00, 0.00, -0.00, -1.00, 450.0, 77.0)">b</text><text xml:space="preserve" font-family="PTMono-Bold" font-weight="bold" font-size="50.0" fill="#00872A" transform="matrix(1.00, 0.00, -0.00, -1.00, 480.0, 77.0)">u</text><text xml:space="preserve" font-family="PTMono-Bold" font-weight="bold" font-size="50.0" fill="#00872A" transform="matrix(1.00, 0.00, -0.00, -1.00, 510.0, 77.0)">t</text><text xml:space="preserve" font-family="PTMono-Bold" font-weight="bold" font-size="50.0" fill="#00872A" transform="matrix(1.00, 0.00, -0.00, -1.00, 540.0, 77.0)">t</text><text xml:space="preserve" font-family="PTMono-Bold" font-weight="bold" font-size="50.0" fill="#00872A" transform="matrix(1.00, 0.00, -0.00, -1.00, 570.0, 77.0)">o</text><text xml:space="preserve" font-family="PTMono-Bold" font-weight="bold" font-size="50.0" fill="#00872A" transform="matrix(1.00, 0.00, -0.00, -1.00, 600.0, 77.0)">n</text><text xml:space="preserve" font-family="PTMono-Regular" font-size="50.0" fill="#000000" transform="matrix(1.00, 0.00, -0.00, -1.00, 630.0, 77.0)">"</text><text xml:space="preserve" font-family="PTMono-Regular" font-size="50.0" fill="#000000" transform="matrix(1.00, 0.00, -0.00, -1.00, 660.0, 77.0)">&gt;</text><text xml:space="preserve" font-family="PTMono-Regular" font-size="50.0" fill="#000000" transform="matrix(1.00, 0.00, -0.00, -1.00, 690.0, 77.0)">&lt;</text><text xml:space="preserve" font-family="PTMono-Regular" font-size="50.0" fill="#000000" transform="matrix(1.00, 0.00, -0.00, -1.00, 720.0, 77.0)">/</text><text xml:space="preserve" font-family="PTMono-Regular" font-size="50.0" fill="#0264C0" transform="matrix(1.00, 0.00, -0.00, -1.00, 750.0, 77.0)">b</text><text xml:space="preserve" font-family="PTMono-Regular" font-size="50.0" fill="#0264C0" transform="matrix(1.00, 0.00, -0.00, -1.00, 780.0, 77.0)">u</text><text xml:space="preserve" font-family="PTMono-Regular" font-size="50.0" fill="#0264C0" transform="matrix(1.00, 0.00, -0.00, -1.00, 810.0, 77.0)">t</text><text xml:space="preserve" font-family="PTMono-Regular" font-size="50.0" fill="#0264C0" transform="matrix(1.00, 0.00, -0.00, -1.00, 840.0, 77.0)">t</text><text xml:space="preserve" font-family="PTMono-Regular" font-size="50.0" fill="#0264C0" transform="matrix(1.00, 0.00, -0.00, -1.00, 870.0, 77.0)">o</text><text xml:space="preserve" font-family="PTMono-Regular" font-size="50.0" fill="#0264C0" transform="matrix(1.00, 0.00, -0.00, -1.00, 900.0, 77.0)">n</text><text xml:space="preserve" font-family="PTMono-Regular" font-size="50.0" fill="#000000" transform="matrix(1.00, 0.00, -0.00, -1.00, 930.0, 77.0)">&gt;</text><text xml:space="preserve" font-family="PTMono-Regular" font-size="50.0" fill="#000000" transform="matrix(1.00, 0.00, -0.00, -1.00, 960.0, 77.0)"> </text><text xml:space="preserve" font-family="PTMono-Regular" font-size="50.0" fill="#000000" transform="matrix(1.00, 0.00, -0.00, -1.00, 0.0, 9.0)">&lt;</text><text xml:space="preserve" font-family="PTMono-Regular" font-size="50.0" fill="#0264C0" transform="matrix(1.00, 0.00, -0.00, -1.00, 30.0, 9.0)">a</text><text xml:space="preserve" font-family="PTMono-Regular" font-size="50.0" fill="#000000" transform="matrix(1.00, 0.00, -0.00, -1.00, 60.0, 9.0)"> </text><text xml:space="preserve" font-family="PTMono-Regular" font-size="50.0" fill="#A6AAA8" transform="matrix(1.00, 0.00, -0.00, -1.00, 90.0, 9.0)">c</text><text xml:space="preserve" font-family="PTMono-Regular" font-size="50.0" fill="#A6AAA8" transform="matrix(1.00, 0.00, -0.00, -1.00, 120.0, 9.0)">l</text><text xml:space="preserve" font-family="PTMono-Regular" font-size="50.0" fill="#A6AAA8" transform="matrix(1.00, 0.00, -0.00, -1.00, 150.0, 9.0)">a</text><text xml:space="preserve" font-family="PTMono-Regular" font-size="50.0" fill="#A6AAA8" transform="matrix(1.00, 0.00, -0.00, -1.00, 180.0, 9.0)">s</text><text xml:space="preserve" font-family="PTMono-Regular" font-size="50.0" fill="#A6AAA8" transform="matrix(1.00, 0.00, -0.00, -1.00, 210.0, 9.0)">s</text><text xml:space="preserve" font-family="PTMono-Regular" font-size="50.0" fill="#A6AAA8" transform="matrix(1.00, 0.00, -0.00, -1.00, 240.0, 9.0)">=</text><text xml:space="preserve" font-family="PTMono-Regular" font-size="50.0" fill="#000000" transform="matrix(1.00, 0.00, -0.00, -1.00, 270.0, 9.0)">"</text><text xml:space="preserve" font-family="PTMono-Bold" font-weight="bold" font-size="50.0" fill="#00872A" transform="matrix(1.00, 0.00, -0.00, -1.00, 300.0, 9.0)">l</text><text xml:space="preserve" font-family="PTMono-Bold" font-weight="bold" font-size="50.0" fill="#00872A" transform="matrix(1.00, 0.00, -0.00, -1.00, 330.0, 9.0)">i</text><text xml:space="preserve" font-family="PTMono-Bold" font-weight="bold" font-size="50.0" fill="#00872A" transform="matrix(1.00, 0.00, -0.00, -1.00, 360.0, 9.0)">n</text><text xml:space="preserve" font-family="PTMono-Bold" font-weight="bold" font-size="50.0" fill="#00872A" transform="matrix(1.00, 0.00, -0.00, -1.00, 390.0, 9.0)">k</text><text xml:space="preserve" font-family="PTMono-Regular" font-size="50.0" fill="#000000" transform="matrix(1.00, 0.00, -0.00, -1.00, 420.0, 9.0)">"</text><text xml:space="preserve" font-family="PTMono-Regular" font-size="50.0" fill="#000000" transform="matrix(1.00, 0.00, -0.00, -1.00, 450.0, 9.0)">&gt;</text><text xml:space="preserve" font-family="PTMono-Regular" font-size="50.0" fill="#000000" transform="matrix(1.00, 0.00, -0.00, -1.00, 480.0, 9.0)">&lt;</text><text xml:space="preserve" font-family="PTMono-Regular" font-size="50.0" fill="#000000" transform="matrix(1.00, 0.00, -0.00, -1.00, 510.0, 9.0)">/</text><text xml:space="preserve" font-family="PTMono-Regular" font-size="50.0" fill="#0264C0" transform="matrix(1.00, 0.00, -0.00, -1.00, 540.0, 9.0)">a</text><text xml:space="preserve" font-family="PTMono-Regular" font-size="50.0" fill="#000000" transform="matrix(1.00, 0.00, -0.00, -1.00, 570.0, 9.0)">&gt;</text></g></svg>