<?xml version="1.0" encoding="UTF-8" standalone="no"?><svg xmlns="http://www.w3.org/2000/svg" xmlns:xlink="http://www.w3.org/1999/xlink" clip-rule="evenodd" stroke-miterlimit="4.00" viewBox="0 0 427 34"><desc>SVG generated by Keynote</desc><defs></defs><g transform="matrix(1.00, 0.00, -0.00, -1.00, 0.0, 34.0)"><text xml:space="preserve" font-family="PTMono-Bold" font-weight="bold" font-size="36.0" fill="#000000" transform="matrix(1.00, 0.00, -0.00, -1.00, 0.0, 6.0)">И</text><text xml:space="preserve" font-family="PTMono-Bold" font-weight="bold" font-size="36.0" fill="#000000" transform="matrix(1.00, 0.00, -0.00, -1.00, 21.6, 6.0)"> </text><text xml:space="preserve" font-family="PTMono-Bold" font-weight="bold" font-size="36.0" fill="#000000" transform="matrix(1.00, 0.00, -0.00, -1.00, 43.2, 6.0)">а</text><text xml:space="preserve" font-family="PTMono-Bold" font-weight="bold" font-size="36.0" fill="#000000" transform="matrix(1.00, 0.00, -0.00, -1.00, 64.8, 6.0)">н</text><text xml:space="preserve" font-family="PTMono-Bold" font-weight="bold" font-size="36.0" fill="#000000" transform="matrix(1.00, 0.00, -0.00, -1.00, 86.4, 6.0)">а</text><text xml:space="preserve" font-family="PTMono-Bold" font-weight="bold" font-size="36.0" fill="#000000" transform="matrix(1.00, 0.00, -0.00, -1.00, 108.0, 6.0)">л</text><text xml:space="preserve" font-family="PTMono-Bold" font-weight="bold" font-size="36.0" fill="#000000" transform="matrix(1.00, 0.00, -0.00, -1.00, 129.6, 6.0)">о</text><text xml:space="preserve" font-family="PTMono-Bold" font-weight="bold" font-size="36.0" fill="#000000" transform="matrix(1.00, 0.00, -0.00, -1.00, 151.2, 6.0)">г</text><text xml:space="preserve" font-family="PTMono-Bold" font-weight="bold" font-size="36.0" fill="#000000" transform="matrix(1.00, 0.00, -0.00, -1.00, 172.8, 6.0)">и</text><text xml:space="preserve" font-family="PTMono-Bold" font-weight="bold" font-size="36.0" fill="#000000" transform="matrix(1.00, 0.00, -0.00, -1.00, 194.4, 6.0)">ч</text><text xml:space="preserve" font-family="PTMono-Bold" font-weight="bold" font-size="36.0" fill="#000000" transform="matrix(1.00, 0.00, -0.00, -1.00, 216.0, 6.0)">н</text><text xml:space="preserve" font-family="PTMono-Bold" font-weight="bold" font-size="36.0" fill="#000000" transform="matrix(1.00, 0.00, -0.00, -1.00, 237.6, 6.0)">о</text><text xml:space="preserve" font-family="PTMono-Bold" font-weight="bold" font-size="36.0" fill="#000000" transform="matrix(1.00, 0.00, -0.00, -1.00, 259.2, 6.0)"> </text><text xml:space="preserve" font-family="PTMono-Bold" font-weight="bold" font-size="36.0" fill="#000000" transform="matrix(1.00, 0.00, -0.00, -1.00, 280.8, 6.0)">д</text><text xml:space="preserve" font-family="PTMono-Bold" font-weight="bold" font-size="36.0" fill="#000000" transform="matrix(1.00, 0.00, -0.00, -1.00, 302.4, 6.0)">л</text><text xml:space="preserve" font-family="PTMono-Bold" font-weight="bold" font-size="36.0" fill="#000000" transform="matrix(1.00, 0.00, -0.00, -1.00, 324.0, 6.0)">я</text><text xml:space="preserve" font-family="PTMono-Bold" font-weight="bold" font-size="36.0" fill="#000000" transform="matrix(1.00, 0.00, -0.00, -1.00, 345.6, 6.0)"> </text><text xml:space="preserve" font-family="PTMono-Bold" font-weight="bold" font-size="36.0" fill="#000000" transform="matrix(1.00, 0.00, -0.00, -1.00, 367.2, 6.0)">J</text><text xml:space="preserve" font-family="PTMono-Bold" font-weight="bold" font-size="36.0" fill="#000000" transform="matrix(1.00, 0.00, -0.00, -1.00, 388.8, 6.0)">S</text><text xml:space="preserve" font-family="PTMono-Bold" font-weight="bold" font-size="36.0" fill="#000000" transform="matrix(1.00, 0.00, -0.00, -1.00, 410.4, 6.0)">.</text></g></svg>