<?xml version="1.0" encoding="UTF-8" standalone="no"?><svg xmlns="http://www.w3.org/2000/svg" xmlns:xlink="http://www.w3.org/1999/xlink" clip-rule="evenodd" stroke-miterlimit="4.00" viewBox="0 0 1213 374"><desc>SVG generated by Keynote</desc><defs></defs><g transform="matrix(1.00, 0.00, -0.00, -1.00, 0.0, 374.0)"><text xml:space="preserve" font-family="PTMono-Regular" font-size="36.0" fill="#C39719" transform="matrix(1.00, 0.00, -0.00, -1.00, 2.0, 346.0)">@</text><text xml:space="preserve" font-family="PTMono-Regular" font-size="36.0" fill="#C39719" transform="matrix(1.00, 0.00, -0.00, -1.00, 23.6, 346.0)">i</text><text xml:space="preserve" font-family="PTMono-Regular" font-size="36.0" fill="#C39719" transform="matrix(1.00, 0.00, -0.00, -1.00, 45.2, 346.0)">m</text><text xml:space="preserve" font-family="PTMono-Regular" font-size="36.0" fill="#C39719" transform="matrix(1.00, 0.00, -0.00, -1.00, 66.8, 346.0)">p</text><text xml:space="preserve" font-family="PTMono-Regular" font-size="36.0" fill="#C39719" transform="matrix(1.00, 0.00, -0.00, -1.00, 88.4, 346.0)">o</text><text xml:space="preserve" font-family="PTMono-Regular" font-size="36.0" fill="#C39719" transform="matrix(1.00, 0.00, -0.00, -1.00, 110.0, 346.0)">r</text><text xml:space="preserve" font-family="PTMono-Regular" font-size="36.0" fill="#C39719" transform="matrix(1.00, 0.00, -0.00, -1.00, 131.6, 346.0)">t</text><text xml:space="preserve" font-family="PTMono-Regular" font-size="36.0" fill="#000000" transform="matrix(1.00, 0.00, -0.00, -1.00, 153.2, 346.0)"> </text><text xml:space="preserve" font-family="PTMono-Regular" font-size="36.0" fill="#000000" transform="matrix(1.00, 0.00, -0.00, -1.00, 174.8, 346.0)">"</text><text xml:space="preserve" font-family="PTMono-Regular" font-size="36.0" fill="#00872A" transform="matrix(1.00, 0.00, -0.00, -1.00, 196.4, 346.0)">l</text><text xml:space="preserve" font-family="PTMono-Regular" font-size="36.0" fill="#00872A" transform="matrix(1.00, 0.00, -0.00, -1.00, 218.0, 346.0)">i</text><text xml:space="preserve" font-family="PTMono-Regular" font-size="36.0" fill="#00872A" transform="matrix(1.00, 0.00, -0.00, -1.00, 239.6, 346.0)">b</text><text xml:space="preserve" font-family="PTMono-Regular" font-size="36.0" fill="#00872A" transform="matrix(1.00, 0.00, -0.00, -1.00, 261.2, 346.0)">r</text><text xml:space="preserve" font-family="PTMono-Regular" font-size="36.0" fill="#00872A" transform="matrix(1.00, 0.00, -0.00, -1.00, 282.8, 346.0)">a</text><text xml:space="preserve" font-family="PTMono-Regular" font-size="36.0" fill="#00872A" transform="matrix(1.00, 0.00, -0.00, -1.00, 304.4, 346.0)">r</text><text xml:space="preserve" font-family="PTMono-Regular" font-size="36.0" fill="#00872A" transform="matrix(1.00, 0.00, -0.00, -1.00, 326.0, 346.0)">y</text><text xml:space="preserve" font-family="PTMono-Regular" font-size="36.0" fill="#00872A" transform="matrix(1.00, 0.00, -0.00, -1.00, 347.6, 346.0)">/</text><text xml:space="preserve" font-family="PTMono-Regular" font-size="36.0" fill="#00872A" transform="matrix(1.00, 0.00, -0.00, -1.00, 369.2, 346.0)">c</text><text xml:space="preserve" font-family="PTMono-Regular" font-size="36.0" fill="#00872A" transform="matrix(1.00, 0.00, -0.00, -1.00, 390.8, 346.0)">o</text><text xml:space="preserve" font-family="PTMono-Regular" font-size="36.0" fill="#00872A" transform="matrix(1.00, 0.00, -0.00, -1.00, 412.4, 346.0)">m</text><text xml:space="preserve" font-family="PTMono-Regular" font-size="36.0" fill="#00872A" transform="matrix(1.00, 0.00, -0.00, -1.00, 434.0, 346.0)">m</text><text xml:space="preserve" font-family="PTMono-Regular" font-size="36.0" fill="#00872A" transform="matrix(1.00, 0.00, -0.00, -1.00, 455.6, 346.0)">o</text><text xml:space="preserve" font-family="PTMono-Regular" font-size="36.0" fill="#00872A" transform="matrix(1.00, 0.00, -0.00, -1.00, 477.2, 346.0)">n</text><text xml:space="preserve" font-family="PTMono-Regular" font-size="36.0" fill="#00872A" transform="matrix(1.00, 0.00, -0.00, -1.00, 498.8, 346.0)">.</text><text xml:space="preserve" font-family="PTMono-Regular" font-size="36.0" fill="#00872A" transform="matrix(1.00, 0.00, -0.00, -1.00, 520.4, 346.0)">b</text><text xml:space="preserve" font-family="PTMono-Regular" font-size="36.0" fill="#00872A" transform="matrix(1.00, 0.00, -0.00, -1.00, 542.0, 346.0)">l</text><text xml:space="preserve" font-family="PTMono-Regular" font-size="36.0" fill="#00872A" transform="matrix(1.00, 0.00, -0.00, -1.00, 563.6, 346.0)">o</text><text xml:space="preserve" font-family="PTMono-Regular" font-size="36.0" fill="#00872A" transform="matrix(1.00, 0.00, -0.00, -1.00, 585.2, 346.0)">c</text><text xml:space="preserve" font-family="PTMono-Regular" font-size="36.0" fill="#00872A" transform="matrix(1.00, 0.00, -0.00, -1.00, 606.8, 346.0)">k</text><text xml:space="preserve" font-family="PTMono-Regular" font-size="36.0" fill="#00872A" transform="matrix(1.00, 0.00, -0.00, -1.00, 628.4, 346.0)">s</text><text xml:space="preserve" font-family="PTMono-Regular" font-size="36.0" fill="#00872A" transform="matrix(1.00, 0.00, -0.00, -1.00, 650.0, 346.0)">/</text><text xml:space="preserve" font-family="PTMono-Regular" font-size="36.0" fill="#00872A" transform="matrix(1.00, 0.00, -0.00, -1.00, 671.6, 346.0)">b</text><text xml:space="preserve" font-family="PTMono-Regular" font-size="36.0" fill="#00872A" transform="matrix(1.00, 0.00, -0.00, -1.00, 693.2, 346.0)">u</text><text xml:space="preserve" font-family="PTMono-Regular" font-size="36.0" fill="#00872A" transform="matrix(1.00, 0.00, -0.00, -1.00, 714.8, 346.0)">t</text><text xml:space="preserve" font-family="PTMono-Regular" font-size="36.0" fill="#00872A" transform="matrix(1.00, 0.00, -0.00, -1.00, 736.4, 346.0)">t</text><text xml:space="preserve" font-family="PTMono-Regular" font-size="36.0" fill="#00872A" transform="matrix(1.00, 0.00, -0.00, -1.00, 758.0, 346.0)">o</text><text xml:space="preserve" font-family="PTMono-Regular" font-size="36.0" fill="#00872A" transform="matrix(1.00, 0.00, -0.00, -1.00, 779.6, 346.0)">n</text><text xml:space="preserve" font-family="PTMono-Regular" font-size="36.0" fill="#00872A" transform="matrix(1.00, 0.00, -0.00, -1.00, 801.2, 346.0)">/</text><text xml:space="preserve" font-family="PTMono-Regular" font-size="36.0" fill="#00872A" transform="matrix(1.00, 0.00, -0.00, -1.00, 822.8, 346.0)">b</text><text xml:space="preserve" font-family="PTMono-Regular" font-size="36.0" fill="#00872A" transform="matrix(1.00, 0.00, -0.00, -1.00, 844.4, 346.0)">u</text><text xml:space="preserve" font-family="PTMono-Regular" font-size="36.0" fill="#00872A" transform="matrix(1.00, 0.00, -0.00, -1.00, 866.0, 346.0)">t</text><text xml:space="preserve" font-family="PTMono-Regular" font-size="36.0" fill="#00872A" transform="matrix(1.00, 0.00, -0.00, -1.00, 887.6, 346.0)">t</text><text xml:space="preserve" font-family="PTMono-Regular" font-size="36.0" fill="#00872A" transform="matrix(1.00, 0.00, -0.00, -1.00, 909.2, 346.0)">o</text><text xml:space="preserve" font-family="PTMono-Regular" font-size="36.0" fill="#00872A" transform="matrix(1.00, 0.00, -0.00, -1.00, 930.8, 346.0)">n</text><text xml:space="preserve" font-family="PTMono-Regular" font-size="36.0" fill="#00872A" transform="matrix(1.00, 0.00, -0.00, -1.00, 952.4, 346.0)">.</text><text xml:space="preserve" font-family="PTMono-Regular" font-size="36.0" fill="#00872A" transform="matrix(1.00, 0.00, -0.00, -1.00, 974.0, 346.0)">c</text><text xml:space="preserve" font-family="PTMono-Regular" font-size="36.0" fill="#00872A" transform="matrix(1.00, 0.00, -0.00, -1.00, 995.6, 346.0)">s</text><text xml:space="preserve" font-family="PTMono-Regular" font-size="36.0" fill="#00872A" transform="matrix(1.00, 0.00, -0.00, -1.00, 1017.2, 346.0)">s</text><text xml:space="preserve" font-family="PTMono-Regular" font-size="36.0" fill="#000000" transform="matrix(1.00, 0.00, -0.00, -1.00, 1038.8, 346.0)">"</text><text xml:space="preserve" font-family="PTMono-Regular" font-size="36.0" fill="#000000" transform="matrix(1.00, 0.00, -0.00, -1.00, 1060.4, 346.0)">;</text><text xml:space="preserve" font-family="PTMono-Regular" font-size="36.0" fill="#000000" transform="matrix(1.00, 0.00, -0.00, -1.00, 1082.0, 346.0)"> </text><text xml:space="preserve" font-family="PTMono-Regular" font-size="36.0" fill="#C39719" transform="matrix(1.00, 0.00, -0.00, -1.00, 2.0, 298.0)">@</text><text xml:space="preserve" font-family="PTMono-Regular" font-size="36.0" fill="#C39719" transform="matrix(1.00, 0.00, -0.00, -1.00, 23.6, 298.0)">i</text><text xml:space="preserve" font-family="PTMono-Regular" font-size="36.0" fill="#C39719" transform="matrix(1.00, 0.00, -0.00, -1.00, 45.2, 298.0)">m</text><text xml:space="preserve" font-family="PTMono-Regular" font-size="36.0" fill="#C39719" transform="matrix(1.00, 0.00, -0.00, -1.00, 66.8, 298.0)">p</text><text xml:space="preserve" font-family="PTMono-Regular" font-size="36.0" fill="#C39719" transform="matrix(1.00, 0.00, -0.00, -1.00, 88.4, 298.0)">o</text><text xml:space="preserve" font-family="PTMono-Regular" font-size="36.0" fill="#C39719" transform="matrix(1.00, 0.00, -0.00, -1.00, 110.0, 298.0)">r</text><text xml:space="preserve" font-family="PTMono-Regular" font-size="36.0" fill="#C39719" transform="matrix(1.00, 0.00, -0.00, -1.00, 131.6, 298.0)">t</text><text xml:space="preserve" font-family="PTMono-Regular" font-size="36.0" fill="#000000" transform="matrix(1.00, 0.00, -0.00, -1.00, 153.2, 298.0)"> </text><text xml:space="preserve" font-family="PTMono-Regular" font-size="36.0" fill="#000000" transform="matrix(1.00, 0.00, -0.00, -1.00, 174.8, 298.0)">"</text><text xml:space="preserve" font-family="PTMono-Regular" font-size="36.0" fill="#00872A" transform="matrix(1.00, 0.00, -0.00, -1.00, 196.4, 298.0)">l</text><text xml:space="preserve" font-family="PTMono-Regular" font-size="36.0" fill="#00872A" transform="matrix(1.00, 0.00, -0.00, -1.00, 218.0, 298.0)">i</text><text xml:space="preserve" font-family="PTMono-Regular" font-size="36.0" fill="#00872A" transform="matrix(1.00, 0.00, -0.00, -1.00, 239.6, 298.0)">b</text><text xml:space="preserve" font-family="PTMono-Regular" font-size="36.0" fill="#00872A" transform="matrix(1.00, 0.00, -0.00, -1.00, 261.2, 298.0)">r</text><text xml:space="preserve" font-family="PTMono-Regular" font-size="36.0" fill="#00872A" transform="matrix(1.00, 0.00, -0.00, -1.00, 282.8, 298.0)">a</text><text xml:space="preserve" font-family="PTMono-Regular" font-size="36.0" fill="#00872A" transform="matrix(1.00, 0.00, -0.00, -1.00, 304.4, 298.0)">r</text><text xml:space="preserve" font-family="PTMono-Regular" font-size="36.0" fill="#00872A" transform="matrix(1.00, 0.00, -0.00, -1.00, 326.0, 298.0)">y</text><text xml:space="preserve" font-family="PTMono-Regular" font-size="36.0" fill="#00872A" transform="matrix(1.00, 0.00, -0.00, -1.00, 347.6, 298.0)">/</text><text xml:space="preserve" font-family="PTMono-Regular" font-size="36.0" fill="#00872A" transform="matrix(1.00, 0.00, -0.00, -1.00, 369.2, 298.0)">t</text><text xml:space="preserve" font-family="PTMono-Regular" font-size="36.0" fill="#00872A" transform="matrix(1.00, 0.00, -0.00, -1.00, 390.8, 298.0)">o</text><text xml:space="preserve" font-family="PTMono-Regular" font-size="36.0" fill="#00872A" transform="matrix(1.00, 0.00, -0.00, -1.00, 412.4, 298.0)">u</text><text xml:space="preserve" font-family="PTMono-Regular" font-size="36.0" fill="#00872A" transform="matrix(1.00, 0.00, -0.00, -1.00, 434.0, 298.0)">c</text><text xml:space="preserve" font-family="PTMono-Regular" font-size="36.0" fill="#00872A" transform="matrix(1.00, 0.00, -0.00, -1.00, 455.6, 298.0)">h</text><text xml:space="preserve" font-family="PTMono-Regular" font-size="36.0" fill="#00872A" transform="matrix(1.00, 0.00, -0.00, -1.00, 477.2, 298.0)">.</text><text xml:space="preserve" font-family="PTMono-Regular" font-size="36.0" fill="#00872A" transform="matrix(1.00, 0.00, -0.00, -1.00, 498.8, 298.0)">b</text><text xml:space="preserve" font-family="PTMono-Regular" font-size="36.0" fill="#00872A" transform="matrix(1.00, 0.00, -0.00, -1.00, 520.4, 298.0)">l</text><text xml:space="preserve" font-family="PTMono-Regular" font-size="36.0" fill="#00872A" transform="matrix(1.00, 0.00, -0.00, -1.00, 542.0, 298.0)">o</text><text xml:space="preserve" font-family="PTMono-Regular" font-size="36.0" fill="#00872A" transform="matrix(1.00, 0.00, -0.00, -1.00, 563.6, 298.0)">c</text><text xml:space="preserve" font-family="PTMono-Regular" font-size="36.0" fill="#00872A" transform="matrix(1.00, 0.00, -0.00, -1.00, 585.2, 298.0)">k</text><text xml:space="preserve" font-family="PTMono-Regular" font-size="36.0" fill="#00872A" transform="matrix(1.00, 0.00, -0.00, -1.00, 606.8, 298.0)">/</text><text xml:space="preserve" font-family="PTMono-Regular" font-size="36.0" fill="#00872A" transform="matrix(1.00, 0.00, -0.00, -1.00, 628.4, 298.0)">b</text><text xml:space="preserve" font-family="PTMono-Regular" font-size="36.0" fill="#00872A" transform="matrix(1.00, 0.00, -0.00, -1.00, 650.0, 298.0)">u</text><text xml:space="preserve" font-family="PTMono-Regular" font-size="36.0" fill="#00872A" transform="matrix(1.00, 0.00, -0.00, -1.00, 671.6, 298.0)">t</text><text xml:space="preserve" font-family="PTMono-Regular" font-size="36.0" fill="#00872A" transform="matrix(1.00, 0.00, -0.00, -1.00, 693.2, 298.0)">t</text><text xml:space="preserve" font-family="PTMono-Regular" font-size="36.0" fill="#00872A" transform="matrix(1.00, 0.00, -0.00, -1.00, 714.8, 298.0)">o</text><text xml:space="preserve" font-family="PTMono-Regular" font-size="36.0" fill="#00872A" transform="matrix(1.00, 0.00, -0.00, -1.00, 736.4, 298.0)">n</text><text xml:space="preserve" font-family="PTMono-Regular" font-size="36.0" fill="#00872A" transform="matrix(1.00, 0.00, -0.00, -1.00, 758.0, 298.0)">/</text><text xml:space="preserve" font-family="PTMono-Regular" font-size="36.0" fill="#00872A" transform="matrix(1.00, 0.00, -0.00, -1.00, 779.6, 298.0)">b</text><text xml:space="preserve" font-family="PTMono-Regular" font-size="36.0" fill="#00872A" transform="matrix(1.00, 0.00, -0.00, -1.00, 801.2, 298.0)">u</text><text xml:space="preserve" font-family="PTMono-Regular" font-size="36.0" fill="#00872A" transform="matrix(1.00, 0.00, -0.00, -1.00, 822.8, 298.0)">t</text><text xml:space="preserve" font-family="PTMono-Regular" font-size="36.0" fill="#00872A" transform="matrix(1.00, 0.00, -0.00, -1.00, 844.4, 298.0)">t</text><text xml:space="preserve" font-family="PTMono-Regular" font-size="36.0" fill="#00872A" transform="matrix(1.00, 0.00, -0.00, -1.00, 866.0, 298.0)">o</text><text xml:space="preserve" font-family="PTMono-Regular" font-size="36.0" fill="#00872A" transform="matrix(1.00, 0.00, -0.00, -1.00, 887.6, 298.0)">n</text><text xml:space="preserve" font-family="PTMono-Regular" font-size="36.0" fill="#00872A" transform="matrix(1.00, 0.00, -0.00, -1.00, 909.2, 298.0)">.</text><text xml:space="preserve" font-family="PTMono-Regular" font-size="36.0" fill="#00872A" transform="matrix(1.00, 0.00, -0.00, -1.00, 930.8, 298.0)">c</text><text xml:space="preserve" font-family="PTMono-Regular" font-size="36.0" fill="#00872A" transform="matrix(1.00, 0.00, -0.00, -1.00, 952.4, 298.0)">s</text><text xml:space="preserve" font-family="PTMono-Regular" font-size="36.0" fill="#00872A" transform="matrix(1.00, 0.00, -0.00, -1.00, 974.0, 298.0)">s</text><text xml:space="preserve" font-family="PTMono-Regular" font-size="36.0" fill="#000000" transform="matrix(1.00, 0.00, -0.00, -1.00, 995.6, 298.0)">"</text><text xml:space="preserve" font-family="PTMono-Regular" font-size="36.0" fill="#000000" transform="matrix(1.00, 0.00, -0.00, -1.00, 1017.2, 298.0)">;</text><text xml:space="preserve" font-family="PTMono-Regular" font-size="36.0" fill="#000000" transform="matrix(1.00, 0.00, -0.00, -1.00, 1038.8, 298.0)"> </text><text xml:space="preserve" font-family="PTMono-Regular" font-size="36.0" fill="#C39719" transform="matrix(1.00, 0.00, -0.00, -1.00, 2.0, 202.0)">@</text><text xml:space="preserve" font-family="PTMono-Regular" font-size="36.0" fill="#C39719" transform="matrix(1.00, 0.00, -0.00, -1.00, 23.6, 202.0)">i</text><text xml:space="preserve" font-family="PTMono-Regular" font-size="36.0" fill="#C39719" transform="matrix(1.00, 0.00, -0.00, -1.00, 45.2, 202.0)">m</text><text xml:space="preserve" font-family="PTMono-Regular" font-size="36.0" fill="#C39719" transform="matrix(1.00, 0.00, -0.00, -1.00, 66.8, 202.0)">p</text><text xml:space="preserve" font-family="PTMono-Regular" font-size="36.0" fill="#C39719" transform="matrix(1.00, 0.00, -0.00, -1.00, 88.4, 202.0)">o</text><text xml:space="preserve" font-family="PTMono-Regular" font-size="36.0" fill="#C39719" transform="matrix(1.00, 0.00, -0.00, -1.00, 110.0, 202.0)">r</text><text xml:space="preserve" font-family="PTMono-Regular" font-size="36.0" fill="#C39719" transform="matrix(1.00, 0.00, -0.00, -1.00, 131.6, 202.0)">t</text><text xml:space="preserve" font-family="PTMono-Regular" font-size="36.0" fill="#000000" transform="matrix(1.00, 0.00, -0.00, -1.00, 153.2, 202.0)"> </text><text xml:space="preserve" font-family="PTMono-Regular" font-size="36.0" fill="#000000" transform="matrix(1.00, 0.00, -0.00, -1.00, 174.8, 202.0)">"</text><text xml:space="preserve" font-family="PTMono-Regular" font-size="36.0" fill="#00872A" transform="matrix(1.00, 0.00, -0.00, -1.00, 196.4, 202.0)">l</text><text xml:space="preserve" font-family="PTMono-Regular" font-size="36.0" fill="#00872A" transform="matrix(1.00, 0.00, -0.00, -1.00, 218.0, 202.0)">i</text><text xml:space="preserve" font-family="PTMono-Regular" font-size="36.0" fill="#00872A" transform="matrix(1.00, 0.00, -0.00, -1.00, 239.6, 202.0)">b</text><text xml:space="preserve" font-family="PTMono-Regular" font-size="36.0" fill="#00872A" transform="matrix(1.00, 0.00, -0.00, -1.00, 261.2, 202.0)">r</text><text xml:space="preserve" font-family="PTMono-Regular" font-size="36.0" fill="#00872A" transform="matrix(1.00, 0.00, -0.00, -1.00, 282.8, 202.0)">a</text><text xml:space="preserve" font-family="PTMono-Regular" font-size="36.0" fill="#00872A" transform="matrix(1.00, 0.00, -0.00, -1.00, 304.4, 202.0)">r</text><text xml:space="preserve" font-family="PTMono-Regular" font-size="36.0" fill="#00872A" transform="matrix(1.00, 0.00, -0.00, -1.00, 326.0, 202.0)">y</text><text xml:space="preserve" font-family="PTMono-Regular" font-size="36.0" fill="#00872A" transform="matrix(1.00, 0.00, -0.00, -1.00, 347.6, 202.0)">/</text><text xml:space="preserve" font-family="PTMono-Regular" font-size="36.0" fill="#00872A" transform="matrix(1.00, 0.00, -0.00, -1.00, 369.2, 202.0)">d</text><text xml:space="preserve" font-family="PTMono-Regular" font-size="36.0" fill="#00872A" transform="matrix(1.00, 0.00, -0.00, -1.00, 390.8, 202.0)">e</text><text xml:space="preserve" font-family="PTMono-Regular" font-size="36.0" fill="#00872A" transform="matrix(1.00, 0.00, -0.00, -1.00, 412.4, 202.0)">s</text><text xml:space="preserve" font-family="PTMono-Regular" font-size="36.0" fill="#00872A" transform="matrix(1.00, 0.00, -0.00, -1.00, 434.0, 202.0)">i</text><text xml:space="preserve" font-family="PTMono-Regular" font-size="36.0" fill="#00872A" transform="matrix(1.00, 0.00, -0.00, -1.00, 455.6, 202.0)">g</text><text xml:space="preserve" font-family="PTMono-Regular" font-size="36.0" fill="#00872A" transform="matrix(1.00, 0.00, -0.00, -1.00, 477.2, 202.0)">n</text><text xml:space="preserve" font-family="PTMono-Regular" font-size="36.0" fill="#00872A" transform="matrix(1.00, 0.00, -0.00, -1.00, 498.8, 202.0)">/</text><text xml:space="preserve" font-family="PTMono-Regular" font-size="36.0" fill="#00872A" transform="matrix(1.00, 0.00, -0.00, -1.00, 520.4, 202.0)">c</text><text xml:space="preserve" font-family="PTMono-Regular" font-size="36.0" fill="#00872A" transform="matrix(1.00, 0.00, -0.00, -1.00, 542.0, 202.0)">o</text><text xml:space="preserve" font-family="PTMono-Regular" font-size="36.0" fill="#00872A" transform="matrix(1.00, 0.00, -0.00, -1.00, 563.6, 202.0)">m</text><text xml:space="preserve" font-family="PTMono-Regular" font-size="36.0" fill="#00872A" transform="matrix(1.00, 0.00, -0.00, -1.00, 585.2, 202.0)">m</text><text xml:space="preserve" font-family="PTMono-Regular" font-size="36.0" fill="#00872A" transform="matrix(1.00, 0.00, -0.00, -1.00, 606.8, 202.0)">o</text><text xml:space="preserve" font-family="PTMono-Regular" font-size="36.0" fill="#00872A" transform="matrix(1.00, 0.00, -0.00, -1.00, 628.4, 202.0)">n</text><text xml:space="preserve" font-family="PTMono-Regular" font-size="36.0" fill="#00872A" transform="matrix(1.00, 0.00, -0.00, -1.00, 650.0, 202.0)">.</text><text xml:space="preserve" font-family="PTMono-Regular" font-size="36.0" fill="#00872A" transform="matrix(1.00, 0.00, -0.00, -1.00, 671.6, 202.0)">b</text><text xml:space="preserve" font-family="PTMono-Regular" font-size="36.0" fill="#00872A" transform="matrix(1.00, 0.00, -0.00, -1.00, 693.2, 202.0)">l</text><text xml:space="preserve" font-family="PTMono-Regular" font-size="36.0" fill="#00872A" transform="matrix(1.00, 0.00, -0.00, -1.00, 714.8, 202.0)">o</text><text xml:space="preserve" font-family="PTMono-Regular" font-size="36.0" fill="#00872A" transform="matrix(1.00, 0.00, -0.00, -1.00, 736.4, 202.0)">c</text><text xml:space="preserve" font-family="PTMono-Regular" font-size="36.0" fill="#00872A" transform="matrix(1.00, 0.00, -0.00, -1.00, 758.0, 202.0)">k</text><text xml:space="preserve" font-family="PTMono-Regular" font-size="36.0" fill="#00872A" transform="matrix(1.00, 0.00, -0.00, -1.00, 779.6, 202.0)">/</text><text xml:space="preserve" font-family="PTMono-Regular" font-size="36.0" fill="#00872A" transform="matrix(1.00, 0.00, -0.00, -1.00, 801.2, 202.0)">b</text><text xml:space="preserve" font-family="PTMono-Regular" font-size="36.0" fill="#00872A" transform="matrix(1.00, 0.00, -0.00, -1.00, 822.8, 202.0)">u</text><text xml:space="preserve" font-family="PTMono-Regular" font-size="36.0" fill="#00872A" transform="matrix(1.00, 0.00, -0.00, -1.00, 844.4, 202.0)">t</text><text xml:space="preserve" font-family="PTMono-Regular" font-size="36.0" fill="#00872A" transform="matrix(1.00, 0.00, -0.00, -1.00, 866.0, 202.0)">t</text><text xml:space="preserve" font-family="PTMono-Regular" font-size="36.0" fill="#00872A" transform="matrix(1.00, 0.00, -0.00, -1.00, 887.6, 202.0)">o</text><text xml:space="preserve" font-family="PTMono-Regular" font-size="36.0" fill="#00872A" transform="matrix(1.00, 0.00, -0.00, -1.00, 909.2, 202.0)">n</text><text xml:space="preserve" font-family="PTMono-Regular" font-size="36.0" fill="#00872A" transform="matrix(1.00, 0.00, -0.00, -1.00, 930.8, 202.0)">/</text><text xml:space="preserve" font-family="PTMono-Regular" font-size="36.0" fill="#00872A" transform="matrix(1.00, 0.00, -0.00, -1.00, 952.4, 202.0)">b</text><text xml:space="preserve" font-family="PTMono-Regular" font-size="36.0" fill="#00872A" transform="matrix(1.00, 0.00, -0.00, -1.00, 974.0, 202.0)">u</text><text xml:space="preserve" font-family="PTMono-Regular" font-size="36.0" fill="#00872A" transform="matrix(1.00, 0.00, -0.00, -1.00, 995.6, 202.0)">t</text><text xml:space="preserve" font-family="PTMono-Regular" font-size="36.0" fill="#00872A" transform="matrix(1.00, 0.00, -0.00, -1.00, 1017.2, 202.0)">t</text><text xml:space="preserve" font-family="PTMono-Regular" font-size="36.0" fill="#00872A" transform="matrix(1.00, 0.00, -0.00, -1.00, 1038.8, 202.0)">o</text><text xml:space="preserve" font-family="PTMono-Regular" font-size="36.0" fill="#00872A" transform="matrix(1.00, 0.00, -0.00, -1.00, 1060.4, 202.0)">n</text><text xml:space="preserve" font-family="PTMono-Regular" font-size="36.0" fill="#00872A" transform="matrix(1.00, 0.00, -0.00, -1.00, 1082.0, 202.0)">.</text><text xml:space="preserve" font-family="PTMono-Regular" font-size="36.0" fill="#00872A" transform="matrix(1.00, 0.00, -0.00, -1.00, 1103.6, 202.0)">c</text><text xml:space="preserve" font-family="PTMono-Regular" font-size="36.0" fill="#00872A" transform="matrix(1.00, 0.00, -0.00, -1.00, 1125.2, 202.0)">s</text><text xml:space="preserve" font-family="PTMono-Regular" font-size="36.0" fill="#00872A" transform="matrix(1.00, 0.00, -0.00, -1.00, 1146.8, 202.0)">s</text><text xml:space="preserve" font-family="PTMono-Regular" font-size="36.0" fill="#000000" transform="matrix(1.00, 0.00, -0.00, -1.00, 1168.4, 202.0)">"</text><text xml:space="preserve" font-family="PTMono-Regular" font-size="36.0" fill="#000000" transform="matrix(1.00, 0.00, -0.00, -1.00, 1190.0, 202.0)">;</text><text xml:space="preserve" font-family="PTMono-Regular" font-size="36.0" fill="#000000" transform="matrix(1.00, 0.00, -0.00, -1.00, 1211.6, 202.0)"> </text><text xml:space="preserve" font-family="PTMono-Regular" font-size="36.0" fill="#C39719" transform="matrix(1.00, 0.00, -0.00, -1.00, 2.0, 154.0)">@</text><text xml:space="preserve" font-family="PTMono-Regular" font-size="36.0" fill="#C39719" transform="matrix(1.00, 0.00, -0.00, -1.00, 23.6, 154.0)">i</text><text xml:space="preserve" font-family="PTMono-Regular" font-size="36.0" fill="#C39719" transform="matrix(1.00, 0.00, -0.00, -1.00, 45.2, 154.0)">m</text><text xml:space="preserve" font-family="PTMono-Regular" font-size="36.0" fill="#C39719" transform="matrix(1.00, 0.00, -0.00, -1.00, 66.8, 154.0)">p</text><text xml:space="preserve" font-family="PTMono-Regular" font-size="36.0" fill="#C39719" transform="matrix(1.00, 0.00, -0.00, -1.00, 88.4, 154.0)">o</text><text xml:space="preserve" font-family="PTMono-Regular" font-size="36.0" fill="#C39719" transform="matrix(1.00, 0.00, -0.00, -1.00, 110.0, 154.0)">r</text><text xml:space="preserve" font-family="PTMono-Regular" font-size="36.0" fill="#C39719" transform="matrix(1.00, 0.00, -0.00, -1.00, 131.6, 154.0)">t</text><text xml:space="preserve" font-family="PTMono-Regular" font-size="36.0" fill="#000000" transform="matrix(1.00, 0.00, -0.00, -1.00, 153.2, 154.0)"> </text><text xml:space="preserve" font-family="PTMono-Regular" font-size="36.0" fill="#000000" transform="matrix(1.00, 0.00, -0.00, -1.00, 174.8, 154.0)">"</text><text xml:space="preserve" font-family="PTMono-Regular" font-size="36.0" fill="#00872A" transform="matrix(1.00, 0.00, -0.00, -1.00, 196.4, 154.0)">l</text><text xml:space="preserve" font-family="PTMono-Regular" font-size="36.0" fill="#00872A" transform="matrix(1.00, 0.00, -0.00, -1.00, 218.0, 154.0)">i</text><text xml:space="preserve" font-family="PTMono-Regular" font-size="36.0" fill="#00872A" transform="matrix(1.00, 0.00, -0.00, -1.00, 239.6, 154.0)">b</text><text xml:space="preserve" font-family="PTMono-Regular" font-size="36.0" fill="#00872A" transform="matrix(1.00, 0.00, -0.00, -1.00, 261.2, 154.0)">r</text><text xml:space="preserve" font-family="PTMono-Regular" font-size="36.0" fill="#00872A" transform="matrix(1.00, 0.00, -0.00, -1.00, 282.8, 154.0)">a</text><text xml:space="preserve" font-family="PTMono-Regular" font-size="36.0" fill="#00872A" transform="matrix(1.00, 0.00, -0.00, -1.00, 304.4, 154.0)">r</text><text xml:space="preserve" font-family="PTMono-Regular" font-size="36.0" fill="#00872A" transform="matrix(1.00, 0.00, -0.00, -1.00, 326.0, 154.0)">y</text><text xml:space="preserve" font-family="PTMono-Regular" font-size="36.0" fill="#00872A" transform="matrix(1.00, 0.00, -0.00, -1.00, 347.6, 154.0)">/</text><text xml:space="preserve" font-family="PTMono-Regular" font-size="36.0" fill="#00872A" transform="matrix(1.00, 0.00, -0.00, -1.00, 369.2, 154.0)">d</text><text xml:space="preserve" font-family="PTMono-Regular" font-size="36.0" fill="#00872A" transform="matrix(1.00, 0.00, -0.00, -1.00, 390.8, 154.0)">e</text><text xml:space="preserve" font-family="PTMono-Regular" font-size="36.0" fill="#00872A" transform="matrix(1.00, 0.00, -0.00, -1.00, 412.4, 154.0)">s</text><text xml:space="preserve" font-family="PTMono-Regular" font-size="36.0" fill="#00872A" transform="matrix(1.00, 0.00, -0.00, -1.00, 434.0, 154.0)">i</text><text xml:space="preserve" font-family="PTMono-Regular" font-size="36.0" fill="#00872A" transform="matrix(1.00, 0.00, -0.00, -1.00, 455.6, 154.0)">g</text><text xml:space="preserve" font-family="PTMono-Regular" font-size="36.0" fill="#00872A" transform="matrix(1.00, 0.00, -0.00, -1.00, 477.2, 154.0)">n</text><text xml:space="preserve" font-family="PTMono-Regular" font-size="36.0" fill="#00872A" transform="matrix(1.00, 0.00, -0.00, -1.00, 498.8, 154.0)">/</text><text xml:space="preserve" font-family="PTMono-Regular" font-size="36.0" fill="#00872A" transform="matrix(1.00, 0.00, -0.00, -1.00, 520.4, 154.0)">t</text><text xml:space="preserve" font-family="PTMono-Regular" font-size="36.0" fill="#00872A" transform="matrix(1.00, 0.00, -0.00, -1.00, 542.0, 154.0)">o</text><text xml:space="preserve" font-family="PTMono-Regular" font-size="36.0" fill="#00872A" transform="matrix(1.00, 0.00, -0.00, -1.00, 563.6, 154.0)">u</text><text xml:space="preserve" font-family="PTMono-Regular" font-size="36.0" fill="#00872A" transform="matrix(1.00, 0.00, -0.00, -1.00, 585.2, 154.0)">c</text><text xml:space="preserve" font-family="PTMono-Regular" font-size="36.0" fill="#00872A" transform="matrix(1.00, 0.00, -0.00, -1.00, 606.8, 154.0)">h</text><text xml:space="preserve" font-family="PTMono-Regular" font-size="36.0" fill="#00872A" transform="matrix(1.00, 0.00, -0.00, -1.00, 628.4, 154.0)">.</text><text xml:space="preserve" font-family="PTMono-Regular" font-size="36.0" fill="#00872A" transform="matrix(1.00, 0.00, -0.00, -1.00, 650.0, 154.0)">b</text><text xml:space="preserve" font-family="PTMono-Regular" font-size="36.0" fill="#00872A" transform="matrix(1.00, 0.00, -0.00, -1.00, 671.6, 154.0)">l</text><text xml:space="preserve" font-family="PTMono-Regular" font-size="36.0" fill="#00872A" transform="matrix(1.00, 0.00, -0.00, -1.00, 693.2, 154.0)">o</text><text xml:space="preserve" font-family="PTMono-Regular" font-size="36.0" fill="#00872A" transform="matrix(1.00, 0.00, -0.00, -1.00, 714.8, 154.0)">c</text><text xml:space="preserve" font-family="PTMono-Regular" font-size="36.0" fill="#00872A" transform="matrix(1.00, 0.00, -0.00, -1.00, 736.4, 154.0)">k</text><text xml:space="preserve" font-family="PTMono-Regular" font-size="36.0" fill="#00872A" transform="matrix(1.00, 0.00, -0.00, -1.00, 758.0, 154.0)">/</text><text xml:space="preserve" font-family="PTMono-Regular" font-size="36.0" fill="#00872A" transform="matrix(1.00, 0.00, -0.00, -1.00, 779.6, 154.0)">b</text><text xml:space="preserve" font-family="PTMono-Regular" font-size="36.0" fill="#00872A" transform="matrix(1.00, 0.00, -0.00, -1.00, 801.2, 154.0)">u</text><text xml:space="preserve" font-family="PTMono-Regular" font-size="36.0" fill="#00872A" transform="matrix(1.00, 0.00, -0.00, -1.00, 822.8, 154.0)">t</text><text xml:space="preserve" font-family="PTMono-Regular" font-size="36.0" fill="#00872A" transform="matrix(1.00, 0.00, -0.00, -1.00, 844.4, 154.0)">t</text><text xml:space="preserve" font-family="PTMono-Regular" font-size="36.0" fill="#00872A" transform="matrix(1.00, 0.00, -0.00, -1.00, 866.0, 154.0)">o</text><text xml:space="preserve" font-family="PTMono-Regular" font-size="36.0" fill="#00872A" transform="matrix(1.00, 0.00, -0.00, -1.00, 887.6, 154.0)">n</text><text xml:space="preserve" font-family="PTMono-Regular" font-size="36.0" fill="#00872A" transform="matrix(1.00, 0.00, -0.00, -1.00, 909.2, 154.0)">/</text><text xml:space="preserve" font-family="PTMono-Regular" font-size="36.0" fill="#00872A" transform="matrix(1.00, 0.00, -0.00, -1.00, 930.8, 154.0)">b</text><text xml:space="preserve" font-family="PTMono-Regular" font-size="36.0" fill="#00872A" transform="matrix(1.00, 0.00, -0.00, -1.00, 952.4, 154.0)">u</text><text xml:space="preserve" font-family="PTMono-Regular" font-size="36.0" fill="#00872A" transform="matrix(1.00, 0.00, -0.00, -1.00, 974.0, 154.0)">t</text><text xml:space="preserve" font-family="PTMono-Regular" font-size="36.0" fill="#00872A" transform="matrix(1.00, 0.00, -0.00, -1.00, 995.6, 154.0)">t</text><text xml:space="preserve" font-family="PTMono-Regular" font-size="36.0" fill="#00872A" transform="matrix(1.00, 0.00, -0.00, -1.00, 1017.2, 154.0)">o</text><text xml:space="preserve" font-family="PTMono-Regular" font-size="36.0" fill="#00872A" transform="matrix(1.00, 0.00, -0.00, -1.00, 1038.8, 154.0)">n</text><text xml:space="preserve" font-family="PTMono-Regular" font-size="36.0" fill="#00872A" transform="matrix(1.00, 0.00, -0.00, -1.00, 1060.4, 154.0)">.</text><text xml:space="preserve" font-family="PTMono-Regular" font-size="36.0" fill="#00872A" transform="matrix(1.00, 0.00, -0.00, -1.00, 1082.0, 154.0)">c</text><text xml:space="preserve" font-family="PTMono-Regular" font-size="36.0" fill="#00872A" transform="matrix(1.00, 0.00, -0.00, -1.00, 1103.6, 154.0)">s</text><text xml:space="preserve" font-family="PTMono-Regular" font-size="36.0" fill="#00872A" transform="matrix(1.00, 0.00, -0.00, -1.00, 1125.2, 154.0)">s</text><text xml:space="preserve" font-family="PTMono-Regular" font-size="36.0" fill="#000000" transform="matrix(1.00, 0.00, -0.00, -1.00, 1146.8, 154.0)">"</text><text xml:space="preserve" font-family="PTMono-Regular" font-size="36.0" fill="#000000" transform="matrix(1.00, 0.00, -0.00, -1.00, 1168.4, 154.0)">;</text><text xml:space="preserve" font-family="PTMono-Regular" font-size="36.0" fill="#000000" transform="matrix(1.00, 0.00, -0.00, -1.00, 1190.0, 154.0)"> </text><text xml:space="preserve" font-family="PTMono-Regular" font-size="36.0" fill="#C39719" transform="matrix(1.00, 0.00, -0.00, -1.00, 2.0, 58.0)">@</text><text xml:space="preserve" font-family="PTMono-Regular" font-size="36.0" fill="#C39719" transform="matrix(1.00, 0.00, -0.00, -1.00, 23.6, 58.0)">i</text><text xml:space="preserve" font-family="PTMono-Regular" font-size="36.0" fill="#C39719" transform="matrix(1.00, 0.00, -0.00, -1.00, 45.2, 58.0)">m</text><text xml:space="preserve" font-family="PTMono-Regular" font-size="36.0" fill="#C39719" transform="matrix(1.00, 0.00, -0.00, -1.00, 66.8, 58.0)">p</text><text xml:space="preserve" font-family="PTMono-Regular" font-size="36.0" fill="#C39719" transform="matrix(1.00, 0.00, -0.00, -1.00, 88.4, 58.0)">o</text><text xml:space="preserve" font-family="PTMono-Regular" font-size="36.0" fill="#C39719" transform="matrix(1.00, 0.00, -0.00, -1.00, 110.0, 58.0)">r</text><text xml:space="preserve" font-family="PTMono-Regular" font-size="36.0" fill="#C39719" transform="matrix(1.00, 0.00, -0.00, -1.00, 131.6, 58.0)">t</text><text xml:space="preserve" font-family="PTMono-Regular" font-size="36.0" fill="#000000" transform="matrix(1.00, 0.00, -0.00, -1.00, 153.2, 58.0)"> </text><text xml:space="preserve" font-family="PTMono-Regular" font-size="36.0" fill="#000000" transform="matrix(1.00, 0.00, -0.00, -1.00, 174.8, 58.0)">"</text><text xml:space="preserve" font-family="PTMono-Regular" font-size="36.0" fill="#00872A" transform="matrix(1.00, 0.00, -0.00, -1.00, 196.4, 58.0)">p</text><text xml:space="preserve" font-family="PTMono-Regular" font-size="36.0" fill="#00872A" transform="matrix(1.00, 0.00, -0.00, -1.00, 218.0, 58.0)">r</text><text xml:space="preserve" font-family="PTMono-Regular" font-size="36.0" fill="#00872A" transform="matrix(1.00, 0.00, -0.00, -1.00, 239.6, 58.0)">o</text><text xml:space="preserve" font-family="PTMono-Regular" font-size="36.0" fill="#00872A" transform="matrix(1.00, 0.00, -0.00, -1.00, 261.2, 58.0)">j</text><text xml:space="preserve" font-family="PTMono-Regular" font-size="36.0" fill="#00872A" transform="matrix(1.00, 0.00, -0.00, -1.00, 282.8, 58.0)">e</text><text xml:space="preserve" font-family="PTMono-Regular" font-size="36.0" fill="#00872A" transform="matrix(1.00, 0.00, -0.00, -1.00, 304.4, 58.0)">c</text><text xml:space="preserve" font-family="PTMono-Regular" font-size="36.0" fill="#00872A" transform="matrix(1.00, 0.00, -0.00, -1.00, 326.0, 58.0)">t</text><text xml:space="preserve" font-family="PTMono-Regular" font-size="36.0" fill="#00872A" transform="matrix(1.00, 0.00, -0.00, -1.00, 347.6, 58.0)">/</text><text xml:space="preserve" font-family="PTMono-Regular" font-size="36.0" fill="#00872A" transform="matrix(1.00, 0.00, -0.00, -1.00, 369.2, 58.0)">c</text><text xml:space="preserve" font-family="PTMono-Regular" font-size="36.0" fill="#00872A" transform="matrix(1.00, 0.00, -0.00, -1.00, 390.8, 58.0)">o</text><text xml:space="preserve" font-family="PTMono-Regular" font-size="36.0" fill="#00872A" transform="matrix(1.00, 0.00, -0.00, -1.00, 412.4, 58.0)">m</text><text xml:space="preserve" font-family="PTMono-Regular" font-size="36.0" fill="#00872A" transform="matrix(1.00, 0.00, -0.00, -1.00, 434.0, 58.0)">m</text><text xml:space="preserve" font-family="PTMono-Regular" font-size="36.0" fill="#00872A" transform="matrix(1.00, 0.00, -0.00, -1.00, 455.6, 58.0)">o</text><text xml:space="preserve" font-family="PTMono-Regular" font-size="36.0" fill="#00872A" transform="matrix(1.00, 0.00, -0.00, -1.00, 477.2, 58.0)">n</text><text xml:space="preserve" font-family="PTMono-Regular" font-size="36.0" fill="#00872A" transform="matrix(1.00, 0.00, -0.00, -1.00, 498.8, 58.0)">.</text><text xml:space="preserve" font-family="PTMono-Regular" font-size="36.0" fill="#00872A" transform="matrix(1.00, 0.00, -0.00, -1.00, 520.4, 58.0)">b</text><text xml:space="preserve" font-family="PTMono-Regular" font-size="36.0" fill="#00872A" transform="matrix(1.00, 0.00, -0.00, -1.00, 542.0, 58.0)">l</text><text xml:space="preserve" font-family="PTMono-Regular" font-size="36.0" fill="#00872A" transform="matrix(1.00, 0.00, -0.00, -1.00, 563.6, 58.0)">o</text><text xml:space="preserve" font-family="PTMono-Regular" font-size="36.0" fill="#00872A" transform="matrix(1.00, 0.00, -0.00, -1.00, 585.2, 58.0)">c</text><text xml:space="preserve" font-family="PTMono-Regular" font-size="36.0" fill="#00872A" transform="matrix(1.00, 0.00, -0.00, -1.00, 606.8, 58.0)">k</text><text xml:space="preserve" font-family="PTMono-Regular" font-size="36.0" fill="#00872A" transform="matrix(1.00, 0.00, -0.00, -1.00, 628.4, 58.0)">s</text><text xml:space="preserve" font-family="PTMono-Regular" font-size="36.0" fill="#00872A" transform="matrix(1.00, 0.00, -0.00, -1.00, 650.0, 58.0)">/</text><text xml:space="preserve" font-family="PTMono-Regular" font-size="36.0" fill="#00872A" transform="matrix(1.00, 0.00, -0.00, -1.00, 671.6, 58.0)">b</text><text xml:space="preserve" font-family="PTMono-Regular" font-size="36.0" fill="#00872A" transform="matrix(1.00, 0.00, -0.00, -1.00, 693.2, 58.0)">u</text><text xml:space="preserve" font-family="PTMono-Regular" font-size="36.0" fill="#00872A" transform="matrix(1.00, 0.00, -0.00, -1.00, 714.8, 58.0)">t</text><text xml:space="preserve" font-family="PTMono-Regular" font-size="36.0" fill="#00872A" transform="matrix(1.00, 0.00, -0.00, -1.00, 736.4, 58.0)">t</text><text xml:space="preserve" font-family="PTMono-Regular" font-size="36.0" fill="#00872A" transform="matrix(1.00, 0.00, -0.00, -1.00, 758.0, 58.0)">o</text><text xml:space="preserve" font-family="PTMono-Regular" font-size="36.0" fill="#00872A" transform="matrix(1.00, 0.00, -0.00, -1.00, 779.6, 58.0)">n</text><text xml:space="preserve" font-family="PTMono-Regular" font-size="36.0" fill="#00872A" transform="matrix(1.00, 0.00, -0.00, -1.00, 801.2, 58.0)">/</text><text xml:space="preserve" font-family="PTMono-Regular" font-size="36.0" fill="#00872A" transform="matrix(1.00, 0.00, -0.00, -1.00, 822.8, 58.0)">b</text><text xml:space="preserve" font-family="PTMono-Regular" font-size="36.0" fill="#00872A" transform="matrix(1.00, 0.00, -0.00, -1.00, 844.4, 58.0)">u</text><text xml:space="preserve" font-family="PTMono-Regular" font-size="36.0" fill="#00872A" transform="matrix(1.00, 0.00, -0.00, -1.00, 866.0, 58.0)">t</text><text xml:space="preserve" font-family="PTMono-Regular" font-size="36.0" fill="#00872A" transform="matrix(1.00, 0.00, -0.00, -1.00, 887.6, 58.0)">t</text><text xml:space="preserve" font-family="PTMono-Regular" font-size="36.0" fill="#00872A" transform="matrix(1.00, 0.00, -0.00, -1.00, 909.2, 58.0)">o</text><text xml:space="preserve" font-family="PTMono-Regular" font-size="36.0" fill="#00872A" transform="matrix(1.00, 0.00, -0.00, -1.00, 930.8, 58.0)">n</text><text xml:space="preserve" font-family="PTMono-Regular" font-size="36.0" fill="#00872A" transform="matrix(1.00, 0.00, -0.00, -1.00, 952.4, 58.0)">.</text><text xml:space="preserve" font-family="PTMono-Regular" font-size="36.0" fill="#00872A" transform="matrix(1.00, 0.00, -0.00, -1.00, 974.0, 58.0)">c</text><text xml:space="preserve" font-family="PTMono-Regular" font-size="36.0" fill="#00872A" transform="matrix(1.00, 0.00, -0.00, -1.00, 995.6, 58.0)">s</text><text xml:space="preserve" font-family="PTMono-Regular" font-size="36.0" fill="#00872A" transform="matrix(1.00, 0.00, -0.00, -1.00, 1017.2, 58.0)">s</text><text xml:space="preserve" font-family="PTMono-Regular" font-size="36.0" fill="#000000" transform="matrix(1.00, 0.00, -0.00, -1.00, 1038.8, 58.0)">"</text><text xml:space="preserve" font-family="PTMono-Regular" font-size="36.0" fill="#000000" transform="matrix(1.00, 0.00, -0.00, -1.00, 1060.4, 58.0)">;</text><text xml:space="preserve" font-family="PTMono-Regular" font-size="36.0" fill="#000000" transform="matrix(1.00, 0.00, -0.00, -1.00, 1082.0, 58.0)"> </text><text xml:space="preserve" font-family="PTMono-Regular" font-size="36.0" fill="#C39719" transform="matrix(1.00, 0.00, -0.00, -1.00, 2.0, 10.0)">@</text><text xml:space="preserve" font-family="PTMono-Regular" font-size="36.0" fill="#C39719" transform="matrix(1.00, 0.00, -0.00, -1.00, 23.6, 10.0)">i</text><text xml:space="preserve" font-family="PTMono-Regular" font-size="36.0" fill="#C39719" transform="matrix(1.00, 0.00, -0.00, -1.00, 45.2, 10.0)">m</text><text xml:space="preserve" font-family="PTMono-Regular" font-size="36.0" fill="#C39719" transform="matrix(1.00, 0.00, -0.00, -1.00, 66.8, 10.0)">p</text><text xml:space="preserve" font-family="PTMono-Regular" font-size="36.0" fill="#C39719" transform="matrix(1.00, 0.00, -0.00, -1.00, 88.4, 10.0)">o</text><text xml:space="preserve" font-family="PTMono-Regular" font-size="36.0" fill="#C39719" transform="matrix(1.00, 0.00, -0.00, -1.00, 110.0, 10.0)">r</text><text xml:space="preserve" font-family="PTMono-Regular" font-size="36.0" fill="#C39719" transform="matrix(1.00, 0.00, -0.00, -1.00, 131.6, 10.0)">t</text><text xml:space="preserve" font-family="PTMono-Regular" font-size="36.0" fill="#000000" transform="matrix(1.00, 0.00, -0.00, -1.00, 153.2, 10.0)"> </text><text xml:space="preserve" font-family="PTMono-Regular" font-size="36.0" fill="#000000" transform="matrix(1.00, 0.00, -0.00, -1.00, 174.8, 10.0)">"</text><text xml:space="preserve" font-family="PTMono-Regular" font-size="36.0" fill="#00872A" transform="matrix(1.00, 0.00, -0.00, -1.00, 196.4, 10.0)">p</text><text xml:space="preserve" font-family="PTMono-Regular" font-size="36.0" fill="#00872A" transform="matrix(1.00, 0.00, -0.00, -1.00, 218.0, 10.0)">r</text><text xml:space="preserve" font-family="PTMono-Regular" font-size="36.0" fill="#00872A" transform="matrix(1.00, 0.00, -0.00, -1.00, 239.6, 10.0)">o</text><text xml:space="preserve" font-family="PTMono-Regular" font-size="36.0" fill="#00872A" transform="matrix(1.00, 0.00, -0.00, -1.00, 261.2, 10.0)">j</text><text xml:space="preserve" font-family="PTMono-Regular" font-size="36.0" fill="#00872A" transform="matrix(1.00, 0.00, -0.00, -1.00, 282.8, 10.0)">e</text><text xml:space="preserve" font-family="PTMono-Regular" font-size="36.0" fill="#00872A" transform="matrix(1.00, 0.00, -0.00, -1.00, 304.4, 10.0)">c</text><text xml:space="preserve" font-family="PTMono-Regular" font-size="36.0" fill="#00872A" transform="matrix(1.00, 0.00, -0.00, -1.00, 326.0, 10.0)">t</text><text xml:space="preserve" font-family="PTMono-Regular" font-size="36.0" fill="#00872A" transform="matrix(1.00, 0.00, -0.00, -1.00, 347.6, 10.0)">/</text><text xml:space="preserve" font-family="PTMono-Regular" font-size="36.0" fill="#00872A" transform="matrix(1.00, 0.00, -0.00, -1.00, 369.2, 10.0)">t</text><text xml:space="preserve" font-family="PTMono-Regular" font-size="36.0" fill="#00872A" transform="matrix(1.00, 0.00, -0.00, -1.00, 390.8, 10.0)">o</text><text xml:space="preserve" font-family="PTMono-Regular" font-size="36.0" fill="#00872A" transform="matrix(1.00, 0.00, -0.00, -1.00, 412.4, 10.0)">u</text><text xml:space="preserve" font-family="PTMono-Regular" font-size="36.0" fill="#00872A" transform="matrix(1.00, 0.00, -0.00, -1.00, 434.0, 10.0)">c</text><text xml:space="preserve" font-family="PTMono-Regular" font-size="36.0" fill="#00872A" transform="matrix(1.00, 0.00, -0.00, -1.00, 455.6, 10.0)">h</text><text xml:space="preserve" font-family="PTMono-Regular" font-size="36.0" fill="#00872A" transform="matrix(1.00, 0.00, -0.00, -1.00, 477.2, 10.0)">.</text><text xml:space="preserve" font-family="PTMono-Regular" font-size="36.0" fill="#00872A" transform="matrix(1.00, 0.00, -0.00, -1.00, 498.8, 10.0)">b</text><text xml:space="preserve" font-family="PTMono-Regular" font-size="36.0" fill="#00872A" transform="matrix(1.00, 0.00, -0.00, -1.00, 520.4, 10.0)">l</text><text xml:space="preserve" font-family="PTMono-Regular" font-size="36.0" fill="#00872A" transform="matrix(1.00, 0.00, -0.00, -1.00, 542.0, 10.0)">o</text><text xml:space="preserve" font-family="PTMono-Regular" font-size="36.0" fill="#00872A" transform="matrix(1.00, 0.00, -0.00, -1.00, 563.6, 10.0)">c</text><text xml:space="preserve" font-family="PTMono-Regular" font-size="36.0" fill="#00872A" transform="matrix(1.00, 0.00, -0.00, -1.00, 585.2, 10.0)">k</text><text xml:space="preserve" font-family="PTMono-Regular" font-size="36.0" fill="#00872A" transform="matrix(1.00, 0.00, -0.00, -1.00, 606.8, 10.0)">s</text><text xml:space="preserve" font-family="PTMono-Regular" font-size="36.0" fill="#00872A" transform="matrix(1.00, 0.00, -0.00, -1.00, 628.4, 10.0)">/</text><text xml:space="preserve" font-family="PTMono-Regular" font-size="36.0" fill="#00872A" transform="matrix(1.00, 0.00, -0.00, -1.00, 650.0, 10.0)">b</text><text xml:space="preserve" font-family="PTMono-Regular" font-size="36.0" fill="#00872A" transform="matrix(1.00, 0.00, -0.00, -1.00, 671.6, 10.0)">u</text><text xml:space="preserve" font-family="PTMono-Regular" font-size="36.0" fill="#00872A" transform="matrix(1.00, 0.00, -0.00, -1.00, 693.2, 10.0)">t</text><text xml:space="preserve" font-family="PTMono-Regular" font-size="36.0" fill="#00872A" transform="matrix(1.00, 0.00, -0.00, -1.00, 714.8, 10.0)">t</text><text xml:space="preserve" font-family="PTMono-Regular" font-size="36.0" fill="#00872A" transform="matrix(1.00, 0.00, -0.00, -1.00, 736.4, 10.0)">o</text><text xml:space="preserve" font-family="PTMono-Regular" font-size="36.0" fill="#00872A" transform="matrix(1.00, 0.00, -0.00, -1.00, 758.0, 10.0)">n</text><text xml:space="preserve" font-family="PTMono-Regular" font-size="36.0" fill="#00872A" transform="matrix(1.00, 0.00, -0.00, -1.00, 779.6, 10.0)">/</text><text xml:space="preserve" font-family="PTMono-Regular" font-size="36.0" fill="#00872A" transform="matrix(1.00, 0.00, -0.00, -1.00, 801.2, 10.0)">b</text><text xml:space="preserve" font-family="PTMono-Regular" font-size="36.0" fill="#00872A" transform="matrix(1.00, 0.00, -0.00, -1.00, 822.8, 10.0)">u</text><text xml:space="preserve" font-family="PTMono-Regular" font-size="36.0" fill="#00872A" transform="matrix(1.00, 0.00, -0.00, -1.00, 844.4, 10.0)">t</text><text xml:space="preserve" font-family="PTMono-Regular" font-size="36.0" fill="#00872A" transform="matrix(1.00, 0.00, -0.00, -1.00, 866.0, 10.0)">t</text><text xml:space="preserve" font-family="PTMono-Regular" font-size="36.0" fill="#00872A" transform="matrix(1.00, 0.00, -0.00, -1.00, 887.6, 10.0)">o</text><text xml:space="preserve" font-family="PTMono-Regular" font-size="36.0" fill="#00872A" transform="matrix(1.00, 0.00, -0.00, -1.00, 909.2, 10.0)">n</text><text xml:space="preserve" font-family="PTMono-Regular" font-size="36.0" fill="#00872A" transform="matrix(1.00, 0.00, -0.00, -1.00, 930.8, 10.0)">.</text><text xml:space="preserve" font-family="PTMono-Regular" font-size="36.0" fill="#00872A" transform="matrix(1.00, 0.00, -0.00, -1.00, 952.4, 10.0)">c</text><text xml:space="preserve" font-family="PTMono-Regular" font-size="36.0" fill="#00872A" transform="matrix(1.00, 0.00, -0.00, -1.00, 974.0, 10.0)">s</text><text xml:space="preserve" font-family="PTMono-Regular" font-size="36.0" fill="#00872A" transform="matrix(1.00, 0.00, -0.00, -1.00, 995.6, 10.0)">s</text><text xml:space="preserve" font-family="PTMono-Regular" font-size="36.0" fill="#000000" transform="matrix(1.00, 0.00, -0.00, -1.00, 1017.2, 10.0)">"</text><text xml:space="preserve" font-family="PTMono-Regular" font-size="36.0" fill="#000000" transform="matrix(1.00, 0.00, -0.00, -1.00, 1038.8, 10.0)">;</text></g></svg>