<?xml version="1.0" encoding="UTF-8" standalone="no"?><svg xmlns="http://www.w3.org/2000/svg" xmlns:xlink="http://www.w3.org/1999/xlink" clip-rule="evenodd" stroke-miterlimit="4.00" viewBox="0 0 678 39"><desc>SVG generated by Keynote</desc><defs></defs><g transform="matrix(1.00, 0.00, -0.00, -1.00, 0.0, 39.0)"><text xml:space="preserve" font-family="PTMono-Regular" font-size="49.0" fill="#000000" transform="matrix(1.00, 0.00, -0.00, -1.00, 0.0, 3.0)">&lt;</text><text xml:space="preserve" font-family="PTMono-Regular" font-size="49.0" fill="#0264C0" transform="matrix(1.00, 0.00, -0.00, -1.00, 29.4, 3.0)">b</text><text xml:space="preserve" font-family="PTMono-Regular" font-size="49.0" fill="#0264C0" transform="matrix(1.00, 0.00, -0.00, -1.00, 58.8, 3.0)">u</text><text xml:space="preserve" font-family="PTMono-Regular" font-size="49.0" fill="#0264C0" transform="matrix(1.00, 0.00, -0.00, -1.00, 88.2, 3.0)">t</text><text xml:space="preserve" font-family="PTMono-Regular" font-size="49.0" fill="#0264C0" transform="matrix(1.00, 0.00, -0.00, -1.00, 117.6, 3.0)">t</text><text xml:space="preserve" font-family="PTMono-Regular" font-size="49.0" fill="#0264C0" transform="matrix(1.00, 0.00, -0.00, -1.00, 147.0, 3.0)">o</text><text xml:space="preserve" font-family="PTMono-Regular" font-size="49.0" fill="#0264C0" transform="matrix(1.00, 0.00, -0.00, -1.00, 176.4, 3.0)">n</text><text xml:space="preserve" font-family="PTMono-Regular" font-size="49.0" fill="#000000" transform="matrix(1.00, 0.00, -0.00, -1.00, 205.8, 3.0)"> </text><text xml:space="preserve" font-family="PTMono-Regular" font-size="49.0" fill="#A6AAA8" transform="matrix(1.00, 0.00, -0.00, -1.00, 235.2, 3.0)">c</text><text xml:space="preserve" font-family="PTMono-Regular" font-size="49.0" fill="#A6AAA8" transform="matrix(1.00, 0.00, -0.00, -1.00, 264.6, 3.0)">l</text><text xml:space="preserve" font-family="PTMono-Regular" font-size="49.0" fill="#A6AAA8" transform="matrix(1.00, 0.00, -0.00, -1.00, 294.0, 3.0)">a</text><text xml:space="preserve" font-family="PTMono-Regular" font-size="49.0" fill="#A6AAA8" transform="matrix(1.00, 0.00, -0.00, -1.00, 323.4, 3.0)">s</text><text xml:space="preserve" font-family="PTMono-Regular" font-size="49.0" fill="#A6AAA8" transform="matrix(1.00, 0.00, -0.00, -1.00, 352.8, 3.0)">s</text><text xml:space="preserve" font-family="PTMono-Regular" font-size="49.0" fill="#A6AAA8" transform="matrix(1.00, 0.00, -0.00, -1.00, 382.2, 3.0)">=</text><text xml:space="preserve" font-family="PTMono-Regular" font-size="49.0" fill="#000000" transform="matrix(1.00, 0.00, -0.00, -1.00, 411.6, 3.0)">"</text><text xml:space="preserve" font-family="PTMono-Bold" font-weight="bold" font-size="49.0" fill="#00872A" transform="matrix(1.00, 0.00, -0.00, -1.00, 441.0, 3.0)">b</text><text xml:space="preserve" font-family="PTMono-Bold" font-weight="bold" font-size="49.0" fill="#00872A" transform="matrix(1.00, 0.00, -0.00, -1.00, 470.4, 3.0)">u</text><text xml:space="preserve" font-family="PTMono-Bold" font-weight="bold" font-size="49.0" fill="#00872A" transform="matrix(1.00, 0.00, -0.00, -1.00, 499.8, 3.0)">t</text><text xml:space="preserve" font-family="PTMono-Bold" font-weight="bold" font-size="49.0" fill="#00872A" transform="matrix(1.00, 0.00, -0.00, -1.00, 529.2, 3.0)">t</text><text xml:space="preserve" font-family="PTMono-Bold" font-weight="bold" font-size="49.0" fill="#00872A" transform="matrix(1.00, 0.00, -0.00, -1.00, 558.6, 3.0)">o</text><text xml:space="preserve" font-family="PTMono-Bold" font-weight="bold" font-size="49.0" fill="#00872A" transform="matrix(1.00, 0.00, -0.00, -1.00, 588.0, 3.0)">n</text><text xml:space="preserve" font-family="PTMono-Regular" font-size="49.0" fill="#000000" transform="matrix(1.00, 0.00, -0.00, -1.00, 617.4, 3.0)">"</text><text xml:space="preserve" font-family="PTMono-Regular" font-size="49.0" fill="#000000" transform="matrix(1.00, 0.00, -0.00, -1.00, 646.8, 3.0)">&gt;</text><text xml:space="preserve" font-family="PTMono-Regular" font-size="49.0" fill="#000000" transform="matrix(1.00, 0.00, -0.00, -1.00, 676.2, 3.0)"> </text></g></svg>