<?xml version="1.0" encoding="UTF-8" standalone="no"?><svg xmlns="http://www.w3.org/2000/svg" xmlns:xlink="http://www.w3.org/1999/xlink" clip-rule="evenodd" stroke-miterlimit="4.00" viewBox="0 0 1234 50"><desc>SVG generated by Keynote</desc><defs></defs><g transform="matrix(1.00, 0.00, -0.00, -1.00, 0.0, 50.0)"><text xml:space="preserve" font-family="PTMono-Regular" font-size="49.0" fill="#000000" transform="matrix(1.00, 0.00, -0.00, -1.00, 0.0, 13.0)">&lt;</text><text xml:space="preserve" font-family="PTMono-Regular" font-size="49.0" fill="#0264C0" transform="matrix(1.00, 0.00, -0.00, -1.00, 29.4, 13.0)">b</text><text xml:space="preserve" font-family="PTMono-Regular" font-size="49.0" fill="#0264C0" transform="matrix(1.00, 0.00, -0.00, -1.00, 58.8, 13.0)">u</text><text xml:space="preserve" font-family="PTMono-Regular" font-size="49.0" fill="#0264C0" transform="matrix(1.00, 0.00, -0.00, -1.00, 88.2, 13.0)">t</text><text xml:space="preserve" font-family="PTMono-Regular" font-size="49.0" fill="#0264C0" transform="matrix(1.00, 0.00, -0.00, -1.00, 117.6, 13.0)">t</text><text xml:space="preserve" font-family="PTMono-Regular" font-size="49.0" fill="#0264C0" transform="matrix(1.00, 0.00, -0.00, -1.00, 147.0, 13.0)">o</text><text xml:space="preserve" font-family="PTMono-Regular" font-size="49.0" fill="#0264C0" transform="matrix(1.00, 0.00, -0.00, -1.00, 176.4, 13.0)">n</text><text xml:space="preserve" font-family="PTMono-Regular" font-size="49.0" fill="#000000" transform="matrix(1.00, 0.00, -0.00, -1.00, 205.8, 13.0)"> </text><text xml:space="preserve" font-family="PTMono-Regular" font-size="49.0" fill="#A6AAA8" transform="matrix(1.00, 0.00, -0.00, -1.00, 235.2, 13.0)">c</text><text xml:space="preserve" font-family="PTMono-Regular" font-size="49.0" fill="#A6AAA8" transform="matrix(1.00, 0.00, -0.00, -1.00, 264.6, 13.0)">l</text><text xml:space="preserve" font-family="PTMono-Regular" font-size="49.0" fill="#A6AAA8" transform="matrix(1.00, 0.00, -0.00, -1.00, 294.0, 13.0)">a</text><text xml:space="preserve" font-family="PTMono-Regular" font-size="49.0" fill="#A6AAA8" transform="matrix(1.00, 0.00, -0.00, -1.00, 323.4, 13.0)">s</text><text xml:space="preserve" font-family="PTMono-Regular" font-size="49.0" fill="#A6AAA8" transform="matrix(1.00, 0.00, -0.00, -1.00, 352.8, 13.0)">s</text><text xml:space="preserve" font-family="PTMono-Regular" font-size="49.0" fill="#A6AAA8" transform="matrix(1.00, 0.00, -0.00, -1.00, 382.2, 13.0)">=</text><text xml:space="preserve" font-family="PTMono-Regular" font-size="49.0" fill="#000000" transform="matrix(1.00, 0.00, -0.00, -1.00, 411.6, 13.0)">"</text><text xml:space="preserve" font-family="PTMono-Bold" font-weight="bold" font-size="49.0" fill="#00872A" transform="matrix(1.00, 0.00, -0.00, -1.00, 441.0, 13.0)">b</text><text xml:space="preserve" font-family="PTMono-Bold" font-weight="bold" font-size="49.0" fill="#00872A" transform="matrix(1.00, 0.00, -0.00, -1.00, 470.4, 13.0)">u</text><text xml:space="preserve" font-family="PTMono-Bold" font-weight="bold" font-size="49.0" fill="#00872A" transform="matrix(1.00, 0.00, -0.00, -1.00, 499.8, 13.0)">t</text><text xml:space="preserve" font-family="PTMono-Bold" font-weight="bold" font-size="49.0" fill="#00872A" transform="matrix(1.00, 0.00, -0.00, -1.00, 529.2, 13.0)">t</text><text xml:space="preserve" font-family="PTMono-Bold" font-weight="bold" font-size="49.0" fill="#00872A" transform="matrix(1.00, 0.00, -0.00, -1.00, 558.6, 13.0)">o</text><text xml:space="preserve" font-family="PTMono-Bold" font-weight="bold" font-size="49.0" fill="#00872A" transform="matrix(1.00, 0.00, -0.00, -1.00, 588.0, 13.0)">n</text><text xml:space="preserve" font-family="PTMono-Bold" font-weight="bold" font-size="49.0" fill="#00872A" transform="matrix(1.00, 0.00, -0.00, -1.00, 617.4, 13.0)"> </text><text xml:space="preserve" font-family="PTMono-Bold" font-weight="bold" font-size="49.0" fill="#00872A" transform="matrix(1.00, 0.00, -0.00, -1.00, 646.8, 13.0)">b</text><text xml:space="preserve" font-family="PTMono-Bold" font-weight="bold" font-size="49.0" fill="#00872A" transform="matrix(1.00, 0.00, -0.00, -1.00, 676.2, 13.0)">u</text><text xml:space="preserve" font-family="PTMono-Bold" font-weight="bold" font-size="49.0" fill="#00872A" transform="matrix(1.00, 0.00, -0.00, -1.00, 705.6, 13.0)">t</text><text xml:space="preserve" font-family="PTMono-Bold" font-weight="bold" font-size="49.0" fill="#00872A" transform="matrix(1.00, 0.00, -0.00, -1.00, 735.0, 13.0)">t</text><text xml:space="preserve" font-family="PTMono-Bold" font-weight="bold" font-size="49.0" fill="#00872A" transform="matrix(1.00, 0.00, -0.00, -1.00, 764.4, 13.0)">o</text><text xml:space="preserve" font-family="PTMono-Bold" font-weight="bold" font-size="49.0" fill="#00872A" transform="matrix(1.00, 0.00, -0.00, -1.00, 793.8, 13.0)">n</text><text xml:space="preserve" font-family="PTMono-Bold" font-weight="bold" font-size="49.0" fill="#00872A" transform="matrix(1.00, 0.00, -0.00, -1.00, 823.2, 13.0)">_</text><text xml:space="preserve" font-family="PTMono-Bold" font-weight="bold" font-size="49.0" fill="#00872A" transform="matrix(1.00, 0.00, -0.00, -1.00, 852.6, 13.0)">t</text><text xml:space="preserve" font-family="PTMono-Bold" font-weight="bold" font-size="49.0" fill="#00872A" transform="matrix(1.00, 0.00, -0.00, -1.00, 882.0, 13.0)">y</text><text xml:space="preserve" font-family="PTMono-Bold" font-weight="bold" font-size="49.0" fill="#00872A" transform="matrix(1.00, 0.00, -0.00, -1.00, 911.4, 13.0)">p</text><text xml:space="preserve" font-family="PTMono-Bold" font-weight="bold" font-size="49.0" fill="#00872A" transform="matrix(1.00, 0.00, -0.00, -1.00, 940.8, 13.0)">e</text><text xml:space="preserve" font-family="PTMono-Bold" font-weight="bold" font-size="49.0" fill="#00872A" transform="matrix(1.00, 0.00, -0.00, -1.00, 970.2, 13.0)">_</text><text xml:space="preserve" font-family="PTMono-Bold" font-weight="bold" font-size="49.0" fill="#00872A" transform="matrix(1.00, 0.00, -0.00, -1.00, 999.6, 13.0)">s</text><text xml:space="preserve" font-family="PTMono-Bold" font-weight="bold" font-size="49.0" fill="#00872A" transform="matrix(1.00, 0.00, -0.00, -1.00, 1029.0, 13.0)">u</text><text xml:space="preserve" font-family="PTMono-Bold" font-weight="bold" font-size="49.0" fill="#00872A" transform="matrix(1.00, 0.00, -0.00, -1.00, 1058.4, 13.0)">b</text><text xml:space="preserve" font-family="PTMono-Bold" font-weight="bold" font-size="49.0" fill="#00872A" transform="matrix(1.00, 0.00, -0.00, -1.00, 1087.8, 13.0)">m</text><text xml:space="preserve" font-family="PTMono-Bold" font-weight="bold" font-size="49.0" fill="#00872A" transform="matrix(1.00, 0.00, -0.00, -1.00, 1117.2, 13.0)">i</text><text xml:space="preserve" font-family="PTMono-Bold" font-weight="bold" font-size="49.0" fill="#00872A" transform="matrix(1.00, 0.00, -0.00, -1.00, 1146.6, 13.0)">t</text><text xml:space="preserve" font-family="PTMono-Regular" font-size="49.0" fill="#000000" transform="matrix(1.00, 0.00, -0.00, -1.00, 1176.0, 13.0)">"</text><text xml:space="preserve" font-family="PTMono-Regular" font-size="49.0" fill="#000000" transform="matrix(1.00, 0.00, -0.00, -1.00, 1205.4, 13.0)">&gt;</text></g></svg>