<?xml version="1.0" encoding="UTF-8" standalone="no"?><svg xmlns="http://www.w3.org/2000/svg" xmlns:xlink="http://www.w3.org/1999/xlink" clip-rule="evenodd" stroke-miterlimit="4.00" viewBox="0 0 1920 1080"><desc>SVG generated by Keynote</desc><defs></defs><g transform="matrix(1.00, 0.00, -0.00, -1.00, 0.0, 1080.0)"><path d="M 0.0 1080.0 L 1920.0 1080.0 L 1920.0 0.0 L 0.0 0.0 Z M 0.0 1080.0 " fill="#FEFFFF"></path><text xml:space="preserve" font-family="YandexSansText-Regular" font-size="80.0" fill="#000000" transform="matrix(1.00, 0.00, -0.00, -1.00, 94.0, 932.0)">М</text><text xml:space="preserve" font-family="YandexSansText-Regular" font-size="80.0" fill="#000000" transform="matrix(1.00, 0.00, -0.00, -1.00, 165.0, 932.0)">о</text><text xml:space="preserve" font-family="YandexSansText-Regular" font-size="80.0" fill="#000000" transform="matrix(1.00, 0.00, -0.00, -1.00, 211.1, 932.0)">д</text><text xml:space="preserve" font-family="YandexSansText-Regular" font-size="80.0" fill="#000000" transform="matrix(1.00, 0.00, -0.00, -1.00, 258.9, 932.0)">и</text><text xml:space="preserve" font-family="YandexSansText-Regular" font-size="80.0" fill="#000000" transform="matrix(1.00, 0.00, -0.00, -1.00, 307.5, 932.0)">ф</text><text xml:space="preserve" font-family="YandexSansText-Regular" font-size="80.0" fill="#000000" transform="matrix(1.00, 0.00, -0.00, -1.00, 365.6, 932.0)">и</text><text xml:space="preserve" font-family="YandexSansText-Regular" font-size="80.0" fill="#000000" transform="matrix(1.00, 0.00, -0.00, -1.00, 414.2, 932.0)">к</text><text xml:space="preserve" font-family="YandexSansText-Regular" font-size="80.0" fill="#000000" transform="matrix(1.00, 0.00, -0.00, -1.00, 455.0, 932.0)">а</text><text xml:space="preserve" font-family="YandexSansText-Regular" font-size="80.0" fill="#000000" transform="matrix(1.00, 0.00, -0.00, -1.00, 496.5, 932.0)">т</text><text xml:space="preserve" font-family="YandexSansText-Regular" font-size="80.0" fill="#000000" transform="matrix(1.00, 0.00, -0.00, -1.00, 533.4, 932.0)">о</text><text xml:space="preserve" font-family="YandexSansText-Regular" font-size="80.0" fill="#000000" transform="matrix(1.00, 0.00, -0.00, -1.00, 580.0, 932.0)">р</text><text xml:space="preserve" font-family="YandexSansText-Regular" font-size="80.0" fill="#000000" transform="matrix(1.00, 0.00, -0.00, -1.00, 629.0, 932.0)">ы</text><text xml:space="preserve" font-family="YandexSansText-Regular" font-size="80.0" fill="#000000" transform="matrix(1.00, 0.00, -0.00, -1.00, 685.0, 932.0)"> </text><text xml:space="preserve" font-family="YandexSansText-Light" font-size="30.0" fill="#000000" transform="matrix(1.00, 0.00, -0.00, -1.00, 1792.6, 48.1)">3</text><text xml:space="preserve" font-family="YandexSansText-Light" font-size="30.0" fill="#000000" transform="matrix(1.00, 0.00, -0.00, -1.00, 1809.2, 48.1)">2</text><g><clipPath id="clip-393"><path d="M 120.7 269.9 L 419.2 269.9 L 419.2 329.9 L 120.7 329.9 Z M 120.7 269.9 "></path></clipPath><g clip-path="url(#clip-393)"><text xml:space="preserve" font-family="YandexSansText-Light" font-size="48.0" fill="#000000" transform="matrix(1.00, 0.00, -0.00, -1.00, 136.0, 285.0)">А</text><text xml:space="preserve" font-family="YandexSansText-Light" font-size="48.0" fill="#000000" transform="matrix(1.00, 0.00, -0.00, -1.00, 166.8, 285.0)"> </text><text xml:space="preserve" font-family="YandexSansText-Light" font-size="48.0" fill="#000000" transform="matrix(1.00, 0.00, -0.00, -1.00, 176.2, 285.0)">ш</text><text xml:space="preserve" font-family="YandexSansText-Light" font-size="48.0" fill="#000000" transform="matrix(1.00, 0.00, -0.00, -1.00, 213.8, 285.0)">а</text><text xml:space="preserve" font-family="YandexSansText-Light" font-size="48.0" fill="#000000" transform="matrix(1.00, 0.00, -0.00, -1.00, 239.0, 285.0)">б</text><text xml:space="preserve" font-family="YandexSansText-Light" font-size="48.0" fill="#000000" transform="matrix(1.00, 0.00, -0.00, -1.00, 266.8, 285.0)">л</text><text xml:space="preserve" font-family="YandexSansText-Light" font-size="48.0" fill="#000000" transform="matrix(1.00, 0.00, -0.00, -1.00, 292.7, 285.0)">о</text><text xml:space="preserve" font-family="YandexSansText-Light" font-size="48.0" fill="#000000" transform="matrix(1.00, 0.00, -0.00, -1.00, 320.5, 285.0)">н</text><text xml:space="preserve" font-family="YandexSansText-Light" font-size="48.0" fill="#000000" transform="matrix(1.00, 0.00, -0.00, -1.00, 348.1, 285.0)">ы</text><text xml:space="preserve" font-family="YandexSansText-Light" font-size="48.0" fill="#000000" transform="matrix(1.00, 0.00, -0.00, -1.00, 380.1, 285.0)">?</text></g></g><g><clipPath id="clip-394"><path d="M 134.9 276.0 L 403.0 276.0 L 403.0 280.2 L 134.9 280.2 Z M 134.9 276.0 "></path></clipPath><g clip-path="url(#clip-394)"><path d="M 4.0 55.8 L 271.1 55.8 " fill="none" stroke="#000000" stroke-width="2.21" stroke-miterlimit="0.00" transform="matrix(1.00, 0.00, 0.00, -1.00, 131.9, 333.9)"></path></g></g><text xml:space="preserve" font-family="PTMono-Regular" font-size="49.0" fill="#000000" transform="matrix(1.00, 0.00, -0.00, -1.00, 127.0, 783.0)">&lt;</text><text xml:space="preserve" font-family="PTMono-Regular" font-size="49.0" fill="#0264C0" transform="matrix(1.00, 0.00, -0.00, -1.00, 156.4, 783.0)">b</text><text xml:space="preserve" font-family="PTMono-Regular" font-size="49.0" fill="#0264C0" transform="matrix(1.00, 0.00, -0.00, -1.00, 185.8, 783.0)">u</text><text xml:space="preserve" font-family="PTMono-Regular" font-size="49.0" fill="#0264C0" transform="matrix(1.00, 0.00, -0.00, -1.00, 215.2, 783.0)">t</text><text xml:space="preserve" font-family="PTMono-Regular" font-size="49.0" fill="#0264C0" transform="matrix(1.00, 0.00, -0.00, -1.00, 244.6, 783.0)">t</text><text xml:space="preserve" font-family="PTMono-Regular" font-size="49.0" fill="#0264C0" transform="matrix(1.00, 0.00, -0.00, -1.00, 274.0, 783.0)">o</text><text xml:space="preserve" font-family="PTMono-Regular" font-size="49.0" fill="#0264C0" transform="matrix(1.00, 0.00, -0.00, -1.00, 303.4, 783.0)">n</text><text xml:space="preserve" font-family="PTMono-Regular" font-size="49.0" fill="#000000" transform="matrix(1.00, 0.00, -0.00, -1.00, 332.8, 783.0)"> </text><text xml:space="preserve" font-family="PTMono-Regular" font-size="49.0" fill="#A6AAA8" transform="matrix(1.00, 0.00, -0.00, -1.00, 362.2, 783.0)">c</text><text xml:space="preserve" font-family="PTMono-Regular" font-size="49.0" fill="#A6AAA8" transform="matrix(1.00, 0.00, -0.00, -1.00, 391.6, 783.0)">l</text><text xml:space="preserve" font-family="PTMono-Regular" font-size="49.0" fill="#A6AAA8" transform="matrix(1.00, 0.00, -0.00, -1.00, 421.0, 783.0)">a</text><text xml:space="preserve" font-family="PTMono-Regular" font-size="49.0" fill="#A6AAA8" transform="matrix(1.00, 0.00, -0.00, -1.00, 450.4, 783.0)">s</text><text xml:space="preserve" font-family="PTMono-Regular" font-size="49.0" fill="#A6AAA8" transform="matrix(1.00, 0.00, -0.00, -1.00, 479.8, 783.0)">s</text><text xml:space="preserve" font-family="PTMono-Regular" font-size="49.0" fill="#A6AAA8" transform="matrix(1.00, 0.00, -0.00, -1.00, 509.2, 783.0)">=</text><text xml:space="preserve" font-family="PTMono-Regular" font-size="49.0" fill="#000000" transform="matrix(1.00, 0.00, -0.00, -1.00, 538.6, 783.0)">"</text><text xml:space="preserve" font-family="PTMono-Bold" font-weight="bold" font-size="49.0" fill="#00872A" transform="matrix(1.00, 0.00, -0.00, -1.00, 568.0, 783.0)">b</text><text xml:space="preserve" font-family="PTMono-Bold" font-weight="bold" font-size="49.0" fill="#00872A" transform="matrix(1.00, 0.00, -0.00, -1.00, 597.4, 783.0)">u</text><text xml:space="preserve" font-family="PTMono-Bold" font-weight="bold" font-size="49.0" fill="#00872A" transform="matrix(1.00, 0.00, -0.00, -1.00, 626.8, 783.0)">t</text><text xml:space="preserve" font-family="PTMono-Bold" font-weight="bold" font-size="49.0" fill="#00872A" transform="matrix(1.00, 0.00, -0.00, -1.00, 656.2, 783.0)">t</text><text xml:space="preserve" font-family="PTMono-Bold" font-weight="bold" font-size="49.0" fill="#00872A" transform="matrix(1.00, 0.00, -0.00, -1.00, 685.6, 783.0)">o</text><text xml:space="preserve" font-family="PTMono-Bold" font-weight="bold" font-size="49.0" fill="#00872A" transform="matrix(1.00, 0.00, -0.00, -1.00, 715.0, 783.0)">n</text><text xml:space="preserve" font-family="PTMono-Regular" font-size="49.0" fill="#000000" transform="matrix(1.00, 0.00, -0.00, -1.00, 744.4, 783.0)">"</text><text xml:space="preserve" font-family="PTMono-Regular" font-size="49.0" fill="#000000" transform="matrix(1.00, 0.00, -0.00, -1.00, 773.8, 783.0)">&gt;</text><text xml:space="preserve" font-family="PTMono-Regular" font-size="49.0" fill="#000000" transform="matrix(1.00, 0.00, -0.00, -1.00, 803.2, 783.0)"> </text><text xml:space="preserve" font-family="PTMono-Regular" font-size="49.0" fill="#000000" transform="matrix(1.00, 0.00, -0.00, -1.00, 127.0, 633.0)">&lt;</text><text xml:space="preserve" font-family="PTMono-Regular" font-size="49.0" fill="#0264C0" transform="matrix(1.00, 0.00, -0.00, -1.00, 156.4, 633.0)">b</text><text xml:space="preserve" font-family="PTMono-Regular" font-size="49.0" fill="#0264C0" transform="matrix(1.00, 0.00, -0.00, -1.00, 185.8, 633.0)">u</text><text xml:space="preserve" font-family="PTMono-Regular" font-size="49.0" fill="#0264C0" transform="matrix(1.00, 0.00, -0.00, -1.00, 215.2, 633.0)">t</text><text xml:space="preserve" font-family="PTMono-Regular" font-size="49.0" fill="#0264C0" transform="matrix(1.00, 0.00, -0.00, -1.00, 244.6, 633.0)">t</text><text xml:space="preserve" font-family="PTMono-Regular" font-size="49.0" fill="#0264C0" transform="matrix(1.00, 0.00, -0.00, -1.00, 274.0, 633.0)">o</text><text xml:space="preserve" font-family="PTMono-Regular" font-size="49.0" fill="#0264C0" transform="matrix(1.00, 0.00, -0.00, -1.00, 303.4, 633.0)">n</text><text xml:space="preserve" font-family="PTMono-Regular" font-size="49.0" fill="#000000" transform="matrix(1.00, 0.00, -0.00, -1.00, 332.8, 633.0)"> </text><text xml:space="preserve" font-family="PTMono-Regular" font-size="49.0" fill="#A6AAA8" transform="matrix(1.00, 0.00, -0.00, -1.00, 362.2, 633.0)">c</text><text xml:space="preserve" font-family="PTMono-Regular" font-size="49.0" fill="#A6AAA8" transform="matrix(1.00, 0.00, -0.00, -1.00, 391.6, 633.0)">l</text><text xml:space="preserve" font-family="PTMono-Regular" font-size="49.0" fill="#A6AAA8" transform="matrix(1.00, 0.00, -0.00, -1.00, 421.0, 633.0)">a</text><text xml:space="preserve" font-family="PTMono-Regular" font-size="49.0" fill="#A6AAA8" transform="matrix(1.00, 0.00, -0.00, -1.00, 450.4, 633.0)">s</text><text xml:space="preserve" font-family="PTMono-Regular" font-size="49.0" fill="#A6AAA8" transform="matrix(1.00, 0.00, -0.00, -1.00, 479.8, 633.0)">s</text><text xml:space="preserve" font-family="PTMono-Regular" font-size="49.0" fill="#A6AAA8" transform="matrix(1.00, 0.00, -0.00, -1.00, 509.2, 633.0)">=</text><text xml:space="preserve" font-family="PTMono-Regular" font-size="49.0" fill="#000000" transform="matrix(1.00, 0.00, -0.00, -1.00, 538.6, 633.0)">"</text><text xml:space="preserve" font-family="PTMono-Bold" font-weight="bold" font-size="49.0" fill="#00872A" transform="matrix(1.00, 0.00, -0.00, -1.00, 568.0, 633.0)">b</text><text xml:space="preserve" font-family="PTMono-Bold" font-weight="bold" font-size="49.0" fill="#00872A" transform="matrix(1.00, 0.00, -0.00, -1.00, 597.4, 633.0)">u</text><text xml:space="preserve" font-family="PTMono-Bold" font-weight="bold" font-size="49.0" fill="#00872A" transform="matrix(1.00, 0.00, -0.00, -1.00, 626.8, 633.0)">t</text><text xml:space="preserve" font-family="PTMono-Bold" font-weight="bold" font-size="49.0" fill="#00872A" transform="matrix(1.00, 0.00, -0.00, -1.00, 656.2, 633.0)">t</text><text xml:space="preserve" font-family="PTMono-Bold" font-weight="bold" font-size="49.0" fill="#00872A" transform="matrix(1.00, 0.00, -0.00, -1.00, 685.6, 633.0)">o</text><text xml:space="preserve" font-family="PTMono-Bold" font-weight="bold" font-size="49.0" fill="#00872A" transform="matrix(1.00, 0.00, -0.00, -1.00, 715.0, 633.0)">n</text><text xml:space="preserve" font-family="PTMono-Bold" font-weight="bold" font-size="49.0" fill="#00872A" transform="matrix(1.00, 0.00, -0.00, -1.00, 744.4, 633.0)"> </text><text xml:space="preserve" font-family="PTMono-Bold" font-weight="bold" font-size="49.0" fill="#00872A" transform="matrix(1.00, 0.00, -0.00, -1.00, 773.8, 633.0)">b</text><text xml:space="preserve" font-family="PTMono-Bold" font-weight="bold" font-size="49.0" fill="#00872A" transform="matrix(1.00, 0.00, -0.00, -1.00, 803.2, 633.0)">u</text><text xml:space="preserve" font-family="PTMono-Bold" font-weight="bold" font-size="49.0" fill="#00872A" transform="matrix(1.00, 0.00, -0.00, -1.00, 832.6, 633.0)">t</text><text xml:space="preserve" font-family="PTMono-Bold" font-weight="bold" font-size="49.0" fill="#00872A" transform="matrix(1.00, 0.00, -0.00, -1.00, 862.0, 633.0)">t</text><text xml:space="preserve" font-family="PTMono-Bold" font-weight="bold" font-size="49.0" fill="#00872A" transform="matrix(1.00, 0.00, -0.00, -1.00, 891.4, 633.0)">o</text><text xml:space="preserve" font-family="PTMono-Bold" font-weight="bold" font-size="49.0" fill="#00872A" transform="matrix(1.00, 0.00, -0.00, -1.00, 920.8, 633.0)">n</text><text xml:space="preserve" font-family="PTMono-Bold" font-weight="bold" font-size="49.0" fill="#00872A" transform="matrix(1.00, 0.00, -0.00, -1.00, 950.2, 633.0)">_</text><text xml:space="preserve" font-family="PTMono-Bold" font-weight="bold" font-size="49.0" fill="#00872A" transform="matrix(1.00, 0.00, -0.00, -1.00, 979.6, 633.0)">t</text><text xml:space="preserve" font-family="PTMono-Bold" font-weight="bold" font-size="49.0" fill="#00872A" transform="matrix(1.00, 0.00, -0.00, -1.00, 1009.0, 633.0)">y</text><text xml:space="preserve" font-family="PTMono-Bold" font-weight="bold" font-size="49.0" fill="#00872A" transform="matrix(1.00, 0.00, -0.00, -1.00, 1038.4, 633.0)">p</text><text xml:space="preserve" font-family="PTMono-Bold" font-weight="bold" font-size="49.0" fill="#00872A" transform="matrix(1.00, 0.00, -0.00, -1.00, 1067.8, 633.0)">e</text><text xml:space="preserve" font-family="PTMono-Bold" font-weight="bold" font-size="49.0" fill="#00872A" transform="matrix(1.00, 0.00, -0.00, -1.00, 1097.2, 633.0)">_</text><text xml:space="preserve" font-family="PTMono-Bold" font-weight="bold" font-size="49.0" fill="#00872A" transform="matrix(1.00, 0.00, -0.00, -1.00, 1126.6, 633.0)">s</text><text xml:space="preserve" font-family="PTMono-Bold" font-weight="bold" font-size="49.0" fill="#00872A" transform="matrix(1.00, 0.00, -0.00, -1.00, 1156.0, 633.0)">u</text><text xml:space="preserve" font-family="PTMono-Bold" font-weight="bold" font-size="49.0" fill="#00872A" transform="matrix(1.00, 0.00, -0.00, -1.00, 1185.4, 633.0)">b</text><text xml:space="preserve" font-family="PTMono-Bold" font-weight="bold" font-size="49.0" fill="#00872A" transform="matrix(1.00, 0.00, -0.00, -1.00, 1214.8, 633.0)">m</text><text xml:space="preserve" font-family="PTMono-Bold" font-weight="bold" font-size="49.0" fill="#00872A" transform="matrix(1.00, 0.00, -0.00, -1.00, 1244.2, 633.0)">i</text><text xml:space="preserve" font-family="PTMono-Bold" font-weight="bold" font-size="49.0" fill="#00872A" transform="matrix(1.00, 0.00, -0.00, -1.00, 1273.6, 633.0)">t</text><text xml:space="preserve" font-family="PTMono-Regular" font-size="49.0" fill="#000000" transform="matrix(1.00, 0.00, -0.00, -1.00, 1303.0, 633.0)">"</text><text xml:space="preserve" font-family="PTMono-Regular" font-size="49.0" fill="#000000" transform="matrix(1.00, 0.00, -0.00, -1.00, 1332.4, 633.0)">&gt;</text><text xml:space="preserve" font-family="PTMono-Regular" font-size="49.0" fill="#000000" transform="matrix(1.00, 0.00, -0.00, -1.00, 127.0, 487.0)">&lt;</text><text xml:space="preserve" font-family="PTMono-Regular" font-size="49.0" fill="#0264C0" transform="matrix(1.00, 0.00, -0.00, -1.00, 156.4, 487.0)">b</text><text xml:space="preserve" font-family="PTMono-Regular" font-size="49.0" fill="#0264C0" transform="matrix(1.00, 0.00, -0.00, -1.00, 185.8, 487.0)">u</text><text xml:space="preserve" font-family="PTMono-Regular" font-size="49.0" fill="#0264C0" transform="matrix(1.00, 0.00, -0.00, -1.00, 215.2, 487.0)">t</text><text xml:space="preserve" font-family="PTMono-Regular" font-size="49.0" fill="#0264C0" transform="matrix(1.00, 0.00, -0.00, -1.00, 244.6, 487.0)">t</text><text xml:space="preserve" font-family="PTMono-Regular" font-size="49.0" fill="#0264C0" transform="matrix(1.00, 0.00, -0.00, -1.00, 274.0, 487.0)">o</text><text xml:space="preserve" font-family="PTMono-Regular" font-size="49.0" fill="#0264C0" transform="matrix(1.00, 0.00, -0.00, -1.00, 303.4, 487.0)">n</text><text xml:space="preserve" font-family="PTMono-Regular" font-size="49.0" fill="#000000" transform="matrix(1.00, 0.00, -0.00, -1.00, 332.8, 487.0)"> </text><text xml:space="preserve" font-family="PTMono-Regular" font-size="49.0" fill="#A6AAA8" transform="matrix(1.00, 0.00, -0.00, -1.00, 362.2, 487.0)">c</text><text xml:space="preserve" font-family="PTMono-Regular" font-size="49.0" fill="#A6AAA8" transform="matrix(1.00, 0.00, -0.00, -1.00, 391.6, 487.0)">l</text><text xml:space="preserve" font-family="PTMono-Regular" font-size="49.0" fill="#A6AAA8" transform="matrix(1.00, 0.00, -0.00, -1.00, 421.0, 487.0)">a</text><text xml:space="preserve" font-family="PTMono-Regular" font-size="49.0" fill="#A6AAA8" transform="matrix(1.00, 0.00, -0.00, -1.00, 450.4, 487.0)">s</text><text xml:space="preserve" font-family="PTMono-Regular" font-size="49.0" fill="#A6AAA8" transform="matrix(1.00, 0.00, -0.00, -1.00, 479.8, 487.0)">s</text><text xml:space="preserve" font-family="PTMono-Regular" font-size="49.0" fill="#A6AAA8" transform="matrix(1.00, 0.00, -0.00, -1.00, 509.2, 487.0)">=</text><text xml:space="preserve" font-family="PTMono-Regular" font-size="49.0" fill="#000000" transform="matrix(1.00, 0.00, -0.00, -1.00, 538.6, 487.0)">"</text><text xml:space="preserve" font-family="PTMono-Bold" font-weight="bold" font-size="49.0" fill="#00872A" transform="matrix(1.00, 0.00, -0.00, -1.00, 568.0, 487.0)">b</text><text xml:space="preserve" font-family="PTMono-Bold" font-weight="bold" font-size="49.0" fill="#00872A" transform="matrix(1.00, 0.00, -0.00, -1.00, 597.4, 487.0)">u</text><text xml:space="preserve" font-family="PTMono-Bold" font-weight="bold" font-size="49.0" fill="#00872A" transform="matrix(1.00, 0.00, -0.00, -1.00, 626.8, 487.0)">t</text><text xml:space="preserve" font-family="PTMono-Bold" font-weight="bold" font-size="49.0" fill="#00872A" transform="matrix(1.00, 0.00, -0.00, -1.00, 656.2, 487.0)">t</text><text xml:space="preserve" font-family="PTMono-Bold" font-weight="bold" font-size="49.0" fill="#00872A" transform="matrix(1.00, 0.00, -0.00, -1.00, 685.6, 487.0)">o</text><text xml:space="preserve" font-family="PTMono-Bold" font-weight="bold" font-size="49.0" fill="#00872A" transform="matrix(1.00, 0.00, -0.00, -1.00, 715.0, 487.0)">n</text><text xml:space="preserve" font-family="PTMono-Bold" font-weight="bold" font-size="49.0" fill="#00872A" transform="matrix(1.00, 0.00, -0.00, -1.00, 744.4, 487.0)"> </text><text xml:space="preserve" font-family="PTMono-Bold" font-weight="bold" font-size="49.0" fill="#00872A" transform="matrix(1.00, 0.00, -0.00, -1.00, 773.8, 487.0)">b</text><text xml:space="preserve" font-family="PTMono-Bold" font-weight="bold" font-size="49.0" fill="#00872A" transform="matrix(1.00, 0.00, -0.00, -1.00, 803.2, 487.0)">u</text><text xml:space="preserve" font-family="PTMono-Bold" font-weight="bold" font-size="49.0" fill="#00872A" transform="matrix(1.00, 0.00, -0.00, -1.00, 832.6, 487.0)">t</text><text xml:space="preserve" font-family="PTMono-Bold" font-weight="bold" font-size="49.0" fill="#00872A" transform="matrix(1.00, 0.00, -0.00, -1.00, 862.0, 487.0)">t</text><text xml:space="preserve" font-family="PTMono-Bold" font-weight="bold" font-size="49.0" fill="#00872A" transform="matrix(1.00, 0.00, -0.00, -1.00, 891.4, 487.0)">o</text><text xml:space="preserve" font-family="PTMono-Bold" font-weight="bold" font-size="49.0" fill="#00872A" transform="matrix(1.00, 0.00, -0.00, -1.00, 920.8, 487.0)">n</text><text xml:space="preserve" font-family="PTMono-Bold" font-weight="bold" font-size="49.0" fill="#00872A" transform="matrix(1.00, 0.00, -0.00, -1.00, 950.2, 487.0)">_</text><text xml:space="preserve" font-family="PTMono-Bold" font-weight="bold" font-size="49.0" fill="#00872A" transform="matrix(1.00, 0.00, -0.00, -1.00, 979.6, 487.0)">t</text><text xml:space="preserve" font-family="PTMono-Bold" font-weight="bold" font-size="49.0" fill="#00872A" transform="matrix(1.00, 0.00, -0.00, -1.00, 1009.0, 487.0)">y</text><text xml:space="preserve" font-family="PTMono-Bold" font-weight="bold" font-size="49.0" fill="#00872A" transform="matrix(1.00, 0.00, -0.00, -1.00, 1038.4, 487.0)">p</text><text xml:space="preserve" font-family="PTMono-Bold" font-weight="bold" font-size="49.0" fill="#00872A" transform="matrix(1.00, 0.00, -0.00, -1.00, 1067.8, 487.0)">e</text><text xml:space="preserve" font-family="PTMono-Bold" font-weight="bold" font-size="49.0" fill="#00872A" transform="matrix(1.00, 0.00, -0.00, -1.00, 1097.2, 487.0)">_</text><text xml:space="preserve" font-family="PTMono-Bold" font-weight="bold" font-size="49.0" fill="#00872A" transform="matrix(1.00, 0.00, -0.00, -1.00, 1126.6, 487.0)">s</text><text xml:space="preserve" font-family="PTMono-Bold" font-weight="bold" font-size="49.0" fill="#00872A" transform="matrix(1.00, 0.00, -0.00, -1.00, 1156.0, 487.0)">u</text><text xml:space="preserve" font-family="PTMono-Bold" font-weight="bold" font-size="49.0" fill="#00872A" transform="matrix(1.00, 0.00, -0.00, -1.00, 1185.4, 487.0)">b</text><text xml:space="preserve" font-family="PTMono-Bold" font-weight="bold" font-size="49.0" fill="#00872A" transform="matrix(1.00, 0.00, -0.00, -1.00, 1214.8, 487.0)">m</text><text xml:space="preserve" font-family="PTMono-Bold" font-weight="bold" font-size="49.0" fill="#00872A" transform="matrix(1.00, 0.00, -0.00, -1.00, 1244.2, 487.0)">i</text><text xml:space="preserve" font-family="PTMono-Bold" font-weight="bold" font-size="49.0" fill="#00872A" transform="matrix(1.00, 0.00, -0.00, -1.00, 1273.6, 487.0)">t</text><text xml:space="preserve" font-family="PTMono-Bold" font-weight="bold" font-size="49.0" fill="#00872A" transform="matrix(1.00, 0.00, -0.00, -1.00, 1303.0, 487.0)"> </text><text xml:space="preserve" font-family="PTMono-Bold" font-weight="bold" font-size="49.0" fill="#00872A" transform="matrix(1.00, 0.00, -0.00, -1.00, 1332.4, 487.0)">b</text><text xml:space="preserve" font-family="PTMono-Bold" font-weight="bold" font-size="49.0" fill="#00872A" transform="matrix(1.00, 0.00, -0.00, -1.00, 1361.8, 487.0)">u</text><text xml:space="preserve" font-family="PTMono-Bold" font-weight="bold" font-size="49.0" fill="#00872A" transform="matrix(1.00, 0.00, -0.00, -1.00, 1391.2, 487.0)">t</text><text xml:space="preserve" font-family="PTMono-Bold" font-weight="bold" font-size="49.0" fill="#00872A" transform="matrix(1.00, 0.00, -0.00, -1.00, 1420.6, 487.0)">t</text><text xml:space="preserve" font-family="PTMono-Bold" font-weight="bold" font-size="49.0" fill="#00872A" transform="matrix(1.00, 0.00, -0.00, -1.00, 1450.0, 487.0)">o</text><text xml:space="preserve" font-family="PTMono-Bold" font-weight="bold" font-size="49.0" fill="#00872A" transform="matrix(1.00, 0.00, -0.00, -1.00, 1479.4, 487.0)">n</text><text xml:space="preserve" font-family="PTMono-Bold" font-weight="bold" font-size="49.0" fill="#00872A" transform="matrix(1.00, 0.00, -0.00, -1.00, 1508.8, 487.0)">_</text><text xml:space="preserve" font-family="PTMono-Bold" font-weight="bold" font-size="49.0" fill="#00872A" transform="matrix(1.00, 0.00, -0.00, -1.00, 1538.2, 487.0)">d</text><text xml:space="preserve" font-family="PTMono-Bold" font-weight="bold" font-size="49.0" fill="#00872A" transform="matrix(1.00, 0.00, -0.00, -1.00, 1567.6, 487.0)">i</text><text xml:space="preserve" font-family="PTMono-Bold" font-weight="bold" font-size="49.0" fill="#00872A" transform="matrix(1.00, 0.00, -0.00, -1.00, 1597.0, 487.0)">s</text><text xml:space="preserve" font-family="PTMono-Bold" font-weight="bold" font-size="49.0" fill="#00872A" transform="matrix(1.00, 0.00, -0.00, -1.00, 1626.4, 487.0)">a</text><text xml:space="preserve" font-family="PTMono-Bold" font-weight="bold" font-size="49.0" fill="#00872A" transform="matrix(1.00, 0.00, -0.00, -1.00, 1655.8, 487.0)">b</text><text xml:space="preserve" font-family="PTMono-Bold" font-weight="bold" font-size="49.0" fill="#00872A" transform="matrix(1.00, 0.00, -0.00, -1.00, 1685.2, 487.0)">l</text><text xml:space="preserve" font-family="PTMono-Bold" font-weight="bold" font-size="49.0" fill="#00872A" transform="matrix(1.00, 0.00, -0.00, -1.00, 1714.6, 487.0)">e</text><text xml:space="preserve" font-family="PTMono-Bold" font-weight="bold" font-size="49.0" fill="#00872A" transform="matrix(1.00, 0.00, -0.00, -1.00, 1744.0, 487.0)">d</text><text xml:space="preserve" font-family="PTMono-Regular" font-size="49.0" fill="#000000" transform="matrix(1.00, 0.00, -0.00, -1.00, 1773.4, 487.0)">"</text><text xml:space="preserve" font-family="PTMono-Regular" font-size="49.0" fill="#000000" transform="matrix(1.00, 0.00, -0.00, -1.00, 1802.8, 487.0)">&gt;</text></g></svg>