<?xml version="1.0" encoding="UTF-8" standalone="no"?><svg xmlns="http://www.w3.org/2000/svg" xmlns:xlink="http://www.w3.org/1999/xlink" clip-rule="evenodd" stroke-miterlimit="4.00" viewBox="0 0 1920 1080"><desc>SVG generated by Keynote</desc><defs></defs><g transform="matrix(1.00, 0.00, -0.00, -1.00, 0.0, 1080.0)"><path d="M 0.0 1080.0 L 1920.0 1080.0 L 1920.0 0.0 L 0.0 0.0 Z M 0.0 1080.0 " fill="#FFCC06"></path><g><clipPath id="clip-395"><path d="M 900.0 76.0 L 1020.0 76.0 L 1020.0 40.0 L 900.0 40.0 Z M 900.0 76.0 "></path></clipPath><g clip-path="url(#clip-395)"><g><clipPath id="clip-396"><path d="M 900.0 40.0 L 1020.0 40.0 L 1020.0 76.0 L 900.0 76.0 Z M 900.0 40.0 "></path></clipPath><g clip-path="url(#clip-396)"><path d="M 0.0 0.0 L -56.0 -32.0 C -58.5 -33.4 -61.5 -33.4 -64.0 -32.0 L -120.0 0.1 " fill="none" stroke="#000000" stroke-width="4.00" stroke-miterlimit="0.00" stroke-linecap="round" transform="matrix(0.97, 0.00, 0.00, 0.97, 1018.1, 74.0)"></path></g></g></g></g><text xml:space="preserve" font-family="YandexSansText-Light" font-size="120.0" fill="#000000" transform="matrix(1.00, 0.00, -0.00, -1.00, 244.0, 512.0)">С</text><text xml:space="preserve" font-family="YandexSansText-Light" font-size="120.0" fill="#000000" transform="matrix(1.00, 0.00, -0.00, -1.00, 323.4, 512.0)">л</text><text xml:space="preserve" font-family="YandexSansText-Light" font-size="120.0" fill="#000000" transform="matrix(1.00, 0.00, -0.00, -1.00, 388.1, 512.0)">о</text><text xml:space="preserve" font-family="YandexSansText-Light" font-size="120.0" fill="#000000" transform="matrix(1.00, 0.00, -0.00, -1.00, 457.6, 512.0)">и</text><text xml:space="preserve" font-family="YandexSansText-Light" font-size="120.0" fill="#000000" transform="matrix(1.00, 0.00, -0.00, -1.00, 529.0, 512.0)"> </text><text xml:space="preserve" font-family="YandexSansText-Light" font-size="120.0" fill="#000000" transform="matrix(1.00, 0.00, -0.00, -1.00, 552.5, 512.0)">д</text><text xml:space="preserve" font-family="YandexSansText-Light" font-size="120.0" fill="#000000" transform="matrix(1.00, 0.00, -0.00, -1.00, 623.0, 512.0)">л</text><text xml:space="preserve" font-family="YandexSansText-Light" font-size="120.0" fill="#000000" transform="matrix(1.00, 0.00, -0.00, -1.00, 687.6, 512.0)">я</text><text xml:space="preserve" font-family="YandexSansText-Light" font-size="120.0" fill="#000000" transform="matrix(1.00, 0.00, -0.00, -1.00, 748.6, 512.0)"> </text><text xml:space="preserve" font-family="YandexSansText-Light" font-size="120.0" fill="#000000" transform="matrix(1.00, 0.00, -0.00, -1.00, 772.1, 512.0)">к</text><text xml:space="preserve" font-family="YandexSansText-Light" font-size="120.0" fill="#000000" transform="matrix(1.00, 0.00, -0.00, -1.00, 829.4, 512.0)">о</text><text xml:space="preserve" font-family="YandexSansText-Light" font-size="120.0" fill="#000000" transform="matrix(1.00, 0.00, -0.00, -1.00, 898.8, 512.0)">м</text><text xml:space="preserve" font-family="YandexSansText-Light" font-size="120.0" fill="#000000" transform="matrix(1.00, 0.00, -0.00, -1.00, 983.4, 512.0)">п</text><text xml:space="preserve" font-family="YandexSansText-Light" font-size="120.0" fill="#000000" transform="matrix(1.00, 0.00, -0.00, -1.00, 1051.4, 512.0)">о</text><text xml:space="preserve" font-family="YandexSansText-Light" font-size="120.0" fill="#000000" transform="matrix(1.00, 0.00, -0.00, -1.00, 1120.8, 512.0)">н</text><text xml:space="preserve" font-family="YandexSansText-Light" font-size="120.0" fill="#000000" transform="matrix(1.00, 0.00, -0.00, -1.00, 1190.0, 512.0)">е</text><text xml:space="preserve" font-family="YandexSansText-Light" font-size="120.0" fill="#000000" transform="matrix(1.00, 0.00, -0.00, -1.00, 1254.8, 512.0)">н</text><text xml:space="preserve" font-family="YandexSansText-Light" font-size="120.0" fill="#000000" transform="matrix(1.00, 0.00, -0.00, -1.00, 1323.9, 512.0)">т</text><text xml:space="preserve" font-family="YandexSansText-Light" font-size="120.0" fill="#000000" transform="matrix(1.00, 0.00, -0.00, -1.00, 1378.4, 512.0)">о</text><text xml:space="preserve" font-family="YandexSansText-Light" font-size="120.0" fill="#000000" transform="matrix(1.00, 0.00, -0.00, -1.00, 1447.8, 512.0)">в</text></g></svg>