<?xml version="1.0" encoding="UTF-8" standalone="no"?><svg xmlns="http://www.w3.org/2000/svg" xmlns:xlink="http://www.w3.org/1999/xlink" clip-rule="evenodd" stroke-miterlimit="4.00" viewBox="0 0 402 87"><desc>SVG generated by Keynote</desc><defs></defs><g transform="matrix(1.00, 0.00, -0.00, -1.00, 0.0, 87.0)"><text xml:space="preserve" font-family="YandexSansText-Light" font-size="72.0" fill="#000000" transform="matrix(1.00, 0.00, -0.00, -1.00, 0.1, 18.9)">›</text><text xml:space="preserve" font-family="YandexSansText-Light" font-size="48.0" fill="#000000" transform="matrix(1.00, 0.00, -0.00, -1.00, 60.0, 23.0)">М</text><text xml:space="preserve" font-family="YandexSansText-Light" font-size="48.0" fill="#000000" transform="matrix(1.00, 0.00, -0.00, -1.00, 101.8, 23.0)">у</text><text xml:space="preserve" font-family="YandexSansText-Light" font-size="48.0" fill="#000000" transform="matrix(1.00, 0.00, -0.00, -1.00, 126.1, 23.0)">х</text><text xml:space="preserve" font-family="YandexSansText-Light" font-size="48.0" fill="#000000" transform="matrix(1.00, 0.00, -0.00, -1.00, 149.5, 23.0)">и</text><text xml:space="preserve" font-family="YandexSansText-Light" font-size="48.0" fill="#000000" transform="matrix(1.00, 0.00, -0.00, -1.00, 178.0, 23.0)"> </text><text xml:space="preserve" font-family="YandexSansText-Light" font-size="48.0" fill="#000000" transform="matrix(1.00, 0.00, -0.00, -1.00, 187.4, 23.0)">и</text><text xml:space="preserve" font-family="YandexSansText-Light" font-size="48.0" fill="#000000" transform="matrix(1.00, 0.00, -0.00, -1.00, 216.0, 23.0)"> </text><text xml:space="preserve" font-family="YandexSansText-Light" font-size="48.0" fill="#000000" transform="matrix(1.00, 0.00, -0.00, -1.00, 225.4, 23.0)">к</text><text xml:space="preserve" font-family="YandexSansText-Light" font-size="48.0" fill="#000000" transform="matrix(1.00, 0.00, -0.00, -1.00, 248.3, 23.0)">о</text><text xml:space="preserve" font-family="YandexSansText-Light" font-size="48.0" fill="#000000" transform="matrix(1.00, 0.00, -0.00, -1.00, 275.4, 23.0)">т</text><text xml:space="preserve" font-family="YandexSansText-Light" font-size="48.0" fill="#000000" transform="matrix(1.00, 0.00, -0.00, -1.00, 295.7, 23.0)">л</text><text xml:space="preserve" font-family="YandexSansText-Light" font-size="48.0" fill="#000000" transform="matrix(1.00, 0.00, -0.00, -1.00, 321.6, 23.0)">е</text><text xml:space="preserve" font-family="YandexSansText-Light" font-size="48.0" fill="#000000" transform="matrix(1.00, 0.00, -0.00, -1.00, 347.1, 23.0)">т</text><text xml:space="preserve" font-family="YandexSansText-Light" font-size="48.0" fill="#000000" transform="matrix(1.00, 0.00, -0.00, -1.00, 369.6, 23.0)">ы</text><g><clipPath id="clip-369"><path d="M 59.1 33.2 L 401.7 33.2 L 401.7 37.8 L 59.1 37.8 Z M 59.1 33.2 "></path></clipPath><g clip-path="url(#clip-369)"><path d="M 94.0 419.3 L 435.6 419.3 " fill="none" stroke="#000000" stroke-width="2.64" stroke-miterlimit="0.00" transform="matrix(1.00, 0.00, 0.00, -1.00, -33.9, 454.8)"></path></g></g></g></svg>