<?xml version="1.0" encoding="UTF-8" standalone="no"?><svg xmlns="http://www.w3.org/2000/svg" xmlns:xlink="http://www.w3.org/1999/xlink" clip-rule="evenodd" stroke-miterlimit="4.00" viewBox="0 0 1920 1080"><desc>SVG generated by Keynote</desc><defs></defs><g transform="matrix(1.00, 0.00, -0.00, -1.00, 0.0, 1080.0)"><path d="M 0.0 1080.0 L 1920.0 1080.0 L 1920.0 0.0 L 0.0 0.0 Z M 0.0 1080.0 " fill="#FEFFFF"></path><text xml:space="preserve" font-family="YandexSansText-Light" font-size="72.0" fill="#000000" transform="matrix(1.00, 0.00, -0.00, -1.00, 123.6, 505.9)">›</text><text xml:space="preserve" font-family="YandexSansText-Light" font-size="48.0" fill="#000000" transform="matrix(1.00, 0.00, -0.00, -1.00, 184.0, 510.0)">Н</text><text xml:space="preserve" font-family="YandexSansText-Light" font-size="48.0" fill="#000000" transform="matrix(1.00, 0.00, -0.00, -1.00, 219.0, 510.0)">е</text><text xml:space="preserve" font-family="YandexSansText-Light" font-size="48.0" fill="#000000" transform="matrix(1.00, 0.00, -0.00, -1.00, 245.0, 510.0)"> </text><text xml:space="preserve" font-family="YandexSansText-Light" font-size="48.0" fill="#000000" transform="matrix(1.00, 0.00, -0.00, -1.00, 254.4, 510.0)">г</text><text xml:space="preserve" font-family="YandexSansText-Light" font-size="48.0" fill="#000000" transform="matrix(1.00, 0.00, -0.00, -1.00, 274.4, 510.0)">о</text><text xml:space="preserve" font-family="YandexSansText-Light" font-size="48.0" fill="#000000" transform="matrix(1.00, 0.00, -0.00, -1.00, 302.2, 510.0)">в</text><text xml:space="preserve" font-family="YandexSansText-Light" font-size="48.0" fill="#000000" transform="matrix(1.00, 0.00, -0.00, -1.00, 327.0, 510.0)">о</text><text xml:space="preserve" font-family="YandexSansText-Light" font-size="48.0" fill="#000000" transform="matrix(1.00, 0.00, -0.00, -1.00, 354.8, 510.0)">р</text><text xml:space="preserve" font-family="YandexSansText-Light" font-size="48.0" fill="#000000" transform="matrix(1.00, 0.00, -0.00, -1.00, 384.3, 510.0)">и</text><text xml:space="preserve" font-family="YandexSansText-Light" font-size="48.0" fill="#000000" transform="matrix(1.00, 0.00, -0.00, -1.00, 412.9, 510.0)">м</text><text xml:space="preserve" font-family="YandexSansText-Light" font-size="48.0" fill="#000000" transform="matrix(1.00, 0.00, -0.00, -1.00, 446.7, 510.0)">,</text><text xml:space="preserve" font-family="YandexSansText-Light" font-size="48.0" fill="#000000" transform="matrix(1.00, 0.00, -0.00, -1.00, 459.0, 510.0)"> </text><text xml:space="preserve" font-family="YandexSansText-Light" font-size="48.0" fill="#000000" transform="matrix(1.00, 0.00, -0.00, -1.00, 468.4, 510.0)">г</text><text xml:space="preserve" font-family="YandexSansText-Light" font-size="48.0" fill="#000000" transform="matrix(1.00, 0.00, -0.00, -1.00, 487.4, 510.0)">д</text><text xml:space="preserve" font-family="YandexSansText-Light" font-size="48.0" fill="#000000" transform="matrix(1.00, 0.00, -0.00, -1.00, 514.9, 510.0)">е</text><text xml:space="preserve" font-family="YandexSansText-Light" font-size="48.0" fill="#000000" transform="matrix(1.00, 0.00, -0.00, -1.00, 540.8, 510.0)"> </text><text xml:space="preserve" font-family="YandexSansText-Light" font-size="48.0" fill="#000000" transform="matrix(1.00, 0.00, -0.00, -1.00, 550.2, 510.0)">ф</text><text xml:space="preserve" font-family="YandexSansText-Light" font-size="48.0" fill="#000000" transform="matrix(1.00, 0.00, -0.00, -1.00, 583.7, 510.0)">и</text><text xml:space="preserve" font-family="YandexSansText-Light" font-size="48.0" fill="#000000" transform="matrix(1.00, 0.00, -0.00, -1.00, 612.3, 510.0)">з</text><text xml:space="preserve" font-family="YandexSansText-Light" font-size="48.0" fill="#000000" transform="matrix(1.00, 0.00, -0.00, -1.00, 634.5, 510.0)">и</text><text xml:space="preserve" font-family="YandexSansText-Light" font-size="48.0" fill="#000000" transform="matrix(1.00, 0.00, -0.00, -1.00, 663.0, 510.0)">ч</text><text xml:space="preserve" font-family="YandexSansText-Light" font-size="48.0" fill="#000000" transform="matrix(1.00, 0.00, -0.00, -1.00, 688.5, 510.0)">е</text><text xml:space="preserve" font-family="YandexSansText-Light" font-size="48.0" fill="#000000" transform="matrix(1.00, 0.00, -0.00, -1.00, 714.4, 510.0)">с</text><text xml:space="preserve" font-family="YandexSansText-Light" font-size="48.0" fill="#000000" transform="matrix(1.00, 0.00, -0.00, -1.00, 738.4, 510.0)">к</text><text xml:space="preserve" font-family="YandexSansText-Light" font-size="48.0" fill="#000000" transform="matrix(1.00, 0.00, -0.00, -1.00, 762.3, 510.0)">и</text><text xml:space="preserve" font-family="YandexSansText-Light" font-size="48.0" fill="#000000" transform="matrix(1.00, 0.00, -0.00, -1.00, 790.8, 510.0)"> </text><text xml:space="preserve" font-family="YandexSansText-Light" font-size="48.0" fill="#000000" transform="matrix(1.00, 0.00, -0.00, -1.00, 800.2, 510.0)">н</text><text xml:space="preserve" font-family="YandexSansText-Light" font-size="48.0" fill="#000000" transform="matrix(1.00, 0.00, -0.00, -1.00, 827.9, 510.0)">а</text><text xml:space="preserve" font-family="YandexSansText-Light" font-size="48.0" fill="#000000" transform="matrix(1.00, 0.00, -0.00, -1.00, 853.1, 510.0)">х</text><text xml:space="preserve" font-family="YandexSansText-Light" font-size="48.0" fill="#000000" transform="matrix(1.00, 0.00, -0.00, -1.00, 875.6, 510.0)">о</text><text xml:space="preserve" font-family="YandexSansText-Light" font-size="48.0" fill="#000000" transform="matrix(1.00, 0.00, -0.00, -1.00, 902.9, 510.0)">д</text><text xml:space="preserve" font-family="YandexSansText-Light" font-size="48.0" fill="#000000" transform="matrix(1.00, 0.00, -0.00, -1.00, 930.8, 510.0)">я</text><text xml:space="preserve" font-family="YandexSansText-Light" font-size="48.0" fill="#000000" transform="matrix(1.00, 0.00, -0.00, -1.00, 955.2, 510.0)">т</text><text xml:space="preserve" font-family="YandexSansText-Light" font-size="48.0" fill="#000000" transform="matrix(1.00, 0.00, -0.00, -1.00, 977.0, 510.0)">с</text><text xml:space="preserve" font-family="YandexSansText-Light" font-size="48.0" fill="#000000" transform="matrix(1.00, 0.00, -0.00, -1.00, 1001.0, 510.0)">я</text><text xml:space="preserve" font-family="YandexSansText-Light" font-size="48.0" fill="#000000" transform="matrix(1.00, 0.00, -0.00, -1.00, 1025.4, 510.0)"> </text><text xml:space="preserve" font-family="YandexSansText-Light" font-size="48.0" fill="#000000" transform="matrix(1.00, 0.00, -0.00, -1.00, 1034.8, 510.0)">ф</text><text xml:space="preserve" font-family="YandexSansText-Light" font-size="48.0" fill="#000000" transform="matrix(1.00, 0.00, -0.00, -1.00, 1068.1, 510.0)">а</text><text xml:space="preserve" font-family="YandexSansText-Light" font-size="48.0" fill="#000000" transform="matrix(1.00, 0.00, -0.00, -1.00, 1093.3, 510.0)">й</text><text xml:space="preserve" font-family="YandexSansText-Light" font-size="48.0" fill="#000000" transform="matrix(1.00, 0.00, -0.00, -1.00, 1121.9, 510.0)">л</text><text xml:space="preserve" font-family="YandexSansText-Light" font-size="48.0" fill="#000000" transform="matrix(1.00, 0.00, -0.00, -1.00, 1147.7, 510.0)">ы</text><text xml:space="preserve" font-family="YandexSansText-Light" font-size="72.0" fill="#000000" transform="matrix(1.00, 0.00, -0.00, -1.00, 123.6, 415.9)">›</text><text xml:space="preserve" font-family="YandexSansText-Light" font-size="48.0" fill="#000000" transform="matrix(1.00, 0.00, -0.00, -1.00, 184.0, 420.0)">Н</text><text xml:space="preserve" font-family="YandexSansText-Light" font-size="48.0" fill="#000000" transform="matrix(1.00, 0.00, -0.00, -1.00, 219.0, 420.0)">е</text><text xml:space="preserve" font-family="YandexSansText-Light" font-size="48.0" fill="#000000" transform="matrix(1.00, 0.00, -0.00, -1.00, 245.0, 420.0)"> </text><text xml:space="preserve" font-family="YandexSansText-Light" font-size="48.0" fill="#000000" transform="matrix(1.00, 0.00, -0.00, -1.00, 254.4, 420.0)">г</text><text xml:space="preserve" font-family="YandexSansText-Light" font-size="48.0" fill="#000000" transform="matrix(1.00, 0.00, -0.00, -1.00, 274.4, 420.0)">о</text><text xml:space="preserve" font-family="YandexSansText-Light" font-size="48.0" fill="#000000" transform="matrix(1.00, 0.00, -0.00, -1.00, 302.2, 420.0)">в</text><text xml:space="preserve" font-family="YandexSansText-Light" font-size="48.0" fill="#000000" transform="matrix(1.00, 0.00, -0.00, -1.00, 327.0, 420.0)">о</text><text xml:space="preserve" font-family="YandexSansText-Light" font-size="48.0" fill="#000000" transform="matrix(1.00, 0.00, -0.00, -1.00, 354.8, 420.0)">р</text><text xml:space="preserve" font-family="YandexSansText-Light" font-size="48.0" fill="#000000" transform="matrix(1.00, 0.00, -0.00, -1.00, 384.3, 420.0)">и</text><text xml:space="preserve" font-family="YandexSansText-Light" font-size="48.0" fill="#000000" transform="matrix(1.00, 0.00, -0.00, -1.00, 412.9, 420.0)">м</text><text xml:space="preserve" font-family="YandexSansText-Light" font-size="48.0" fill="#000000" transform="matrix(1.00, 0.00, -0.00, -1.00, 446.7, 420.0)">,</text><text xml:space="preserve" font-family="YandexSansText-Light" font-size="48.0" fill="#000000" transform="matrix(1.00, 0.00, -0.00, -1.00, 459.0, 420.0)"> </text><text xml:space="preserve" font-family="YandexSansText-Light" font-size="48.0" fill="#000000" transform="matrix(1.00, 0.00, -0.00, -1.00, 468.4, 420.0)">к</text><text xml:space="preserve" font-family="YandexSansText-Light" font-size="48.0" fill="#000000" transform="matrix(1.00, 0.00, -0.00, -1.00, 492.1, 420.0)">а</text><text xml:space="preserve" font-family="YandexSansText-Light" font-size="48.0" fill="#000000" transform="matrix(1.00, 0.00, -0.00, -1.00, 517.3, 420.0)">к</text><text xml:space="preserve" font-family="YandexSansText-Light" font-size="48.0" fill="#000000" transform="matrix(1.00, 0.00, -0.00, -1.00, 541.1, 420.0)">и</text><text xml:space="preserve" font-family="YandexSansText-Light" font-size="48.0" fill="#000000" transform="matrix(1.00, 0.00, -0.00, -1.00, 569.7, 420.0)">е</text><text xml:space="preserve" font-family="YandexSansText-Light" font-size="48.0" fill="#000000" transform="matrix(1.00, 0.00, -0.00, -1.00, 595.6, 420.0)"> </text><text xml:space="preserve" font-family="YandexSansText-Light" font-size="48.0" fill="#000000" transform="matrix(1.00, 0.00, -0.00, -1.00, 605.0, 420.0)">т</text><text xml:space="preserve" font-family="YandexSansText-Light" font-size="48.0" fill="#000000" transform="matrix(1.00, 0.00, -0.00, -1.00, 626.8, 420.0)">е</text><text xml:space="preserve" font-family="YandexSansText-Light" font-size="48.0" fill="#000000" transform="matrix(1.00, 0.00, -0.00, -1.00, 652.6, 420.0)">х</text><text xml:space="preserve" font-family="YandexSansText-Light" font-size="48.0" fill="#000000" transform="matrix(1.00, 0.00, -0.00, -1.00, 676.0, 420.0)">н</text><text xml:space="preserve" font-family="YandexSansText-Light" font-size="48.0" fill="#000000" transform="matrix(1.00, 0.00, -0.00, -1.00, 703.6, 420.0)">о</text><text xml:space="preserve" font-family="YandexSansText-Light" font-size="48.0" fill="#000000" transform="matrix(1.00, 0.00, -0.00, -1.00, 730.7, 420.0)">л</text><text xml:space="preserve" font-family="YandexSansText-Light" font-size="48.0" fill="#000000" transform="matrix(1.00, 0.00, -0.00, -1.00, 756.5, 420.0)">о</text><text xml:space="preserve" font-family="YandexSansText-Light" font-size="48.0" fill="#000000" transform="matrix(1.00, 0.00, -0.00, -1.00, 784.3, 420.0)">г</text><text xml:space="preserve" font-family="YandexSansText-Light" font-size="48.0" fill="#000000" transform="matrix(1.00, 0.00, -0.00, -1.00, 805.1, 420.0)">и</text><text xml:space="preserve" font-family="YandexSansText-Light" font-size="48.0" fill="#000000" transform="matrix(1.00, 0.00, -0.00, -1.00, 833.7, 420.0)">и</text><text xml:space="preserve" font-family="YandexSansText-Light" font-size="48.0" fill="#000000" transform="matrix(1.00, 0.00, -0.00, -1.00, 862.2, 420.0)"> </text><text xml:space="preserve" font-family="YandexSansText-Light" font-size="48.0" fill="#000000" transform="matrix(1.00, 0.00, -0.00, -1.00, 871.6, 420.0)">н</text><text xml:space="preserve" font-family="YandexSansText-Light" font-size="48.0" fill="#000000" transform="matrix(1.00, 0.00, -0.00, -1.00, 899.3, 420.0)">у</text><text xml:space="preserve" font-family="YandexSansText-Light" font-size="48.0" fill="#000000" transform="matrix(1.00, 0.00, -0.00, -1.00, 923.5, 420.0)">ж</text><text xml:space="preserve" font-family="YandexSansText-Light" font-size="48.0" fill="#000000" transform="matrix(1.00, 0.00, -0.00, -1.00, 959.2, 420.0)">н</text><text xml:space="preserve" font-family="YandexSansText-Light" font-size="48.0" fill="#000000" transform="matrix(1.00, 0.00, -0.00, -1.00, 986.8, 420.0)">ы</text><text xml:space="preserve" font-family="YandexSansText-Regular" font-size="80.0" fill="#000000" transform="matrix(1.00, 0.00, -0.00, -1.00, 94.0, 932.0)">Д</text><text xml:space="preserve" font-family="YandexSansText-Regular" font-size="80.0" fill="#000000" transform="matrix(1.00, 0.00, -0.00, -1.00, 154.1, 932.0)">е</text><text xml:space="preserve" font-family="YandexSansText-Regular" font-size="80.0" fill="#000000" transform="matrix(1.00, 0.00, -0.00, -1.00, 197.5, 932.0)">к</text><text xml:space="preserve" font-family="YandexSansText-Regular" font-size="80.0" fill="#000000" transform="matrix(1.00, 0.00, -0.00, -1.00, 239.0, 932.0)">л</text><text xml:space="preserve" font-family="YandexSansText-Regular" font-size="80.0" fill="#000000" transform="matrix(1.00, 0.00, -0.00, -1.00, 283.4, 932.0)">а</text><text xml:space="preserve" font-family="YandexSansText-Regular" font-size="80.0" fill="#000000" transform="matrix(1.00, 0.00, -0.00, -1.00, 325.7, 932.0)">р</text><text xml:space="preserve" font-family="YandexSansText-Regular" font-size="80.0" fill="#000000" transform="matrix(1.00, 0.00, -0.00, -1.00, 374.6, 932.0)">и</text><text xml:space="preserve" font-family="YandexSansText-Regular" font-size="80.0" fill="#000000" transform="matrix(1.00, 0.00, -0.00, -1.00, 423.3, 932.0)">р</text><text xml:space="preserve" font-family="YandexSansText-Regular" font-size="80.0" fill="#000000" transform="matrix(1.00, 0.00, -0.00, -1.00, 471.8, 932.0)">у</text><text xml:space="preserve" font-family="YandexSansText-Regular" font-size="80.0" fill="#000000" transform="matrix(1.00, 0.00, -0.00, -1.00, 512.7, 932.0)">е</text><text xml:space="preserve" font-family="YandexSansText-Regular" font-size="80.0" fill="#000000" transform="matrix(1.00, 0.00, -0.00, -1.00, 556.2, 932.0)">м</text><text xml:space="preserve" font-family="YandexSansText-Regular" font-size="80.0" fill="#000000" transform="matrix(1.00, 0.00, -0.00, -1.00, 615.0, 932.0)"> </text><text xml:space="preserve" font-family="YandexSansText-Regular" font-size="80.0" fill="#000000" transform="matrix(1.00, 0.00, -0.00, -1.00, 630.7, 932.0)">б</text><text xml:space="preserve" font-family="YandexSansText-Regular" font-size="80.0" fill="#000000" transform="matrix(1.00, 0.00, -0.00, -1.00, 678.9, 932.0)">а</text><text xml:space="preserve" font-family="YandexSansText-Regular" font-size="80.0" fill="#000000" transform="matrix(1.00, 0.00, -0.00, -1.00, 721.2, 932.0)">н</text><text xml:space="preserve" font-family="YandexSansText-Regular" font-size="80.0" fill="#000000" transform="matrix(1.00, 0.00, -0.00, -1.00, 767.7, 932.0)">д</text><text xml:space="preserve" font-family="YandexSansText-Regular" font-size="80.0" fill="#000000" transform="matrix(1.00, 0.00, -0.00, -1.00, 815.4, 932.0)">л</text><text xml:space="preserve" font-family="YandexSansText-Regular" font-size="80.0" fill="#000000" transform="matrix(1.00, 0.00, -0.00, -1.00, 859.8, 932.0)"> </text><text xml:space="preserve" font-family="YandexSansText-Regular" font-size="80.0" fill="#000000" transform="matrix(1.00, 0.00, -0.00, -1.00, 875.4, 932.0)">в</text><text xml:space="preserve" font-family="YandexSansText-Regular" font-size="80.0" fill="#000000" transform="matrix(1.00, 0.00, -0.00, -1.00, 917.9, 932.0)"> </text><text xml:space="preserve" font-family="YandexSansText-Regular" font-size="80.0" fill="#000000" transform="matrix(1.00, 0.00, -0.00, -1.00, 933.6, 932.0)">т</text><text xml:space="preserve" font-family="YandexSansText-Regular" font-size="80.0" fill="#000000" transform="matrix(1.00, 0.00, -0.00, -1.00, 970.6, 932.0)">е</text><text xml:space="preserve" font-family="YandexSansText-Regular" font-size="80.0" fill="#000000" transform="matrix(1.00, 0.00, -0.00, -1.00, 1014.0, 932.0)">р</text><text xml:space="preserve" font-family="YandexSansText-Regular" font-size="80.0" fill="#000000" transform="matrix(1.00, 0.00, -0.00, -1.00, 1063.0, 932.0)">м</text><text xml:space="preserve" font-family="YandexSansText-Regular" font-size="80.0" fill="#000000" transform="matrix(1.00, 0.00, -0.00, -1.00, 1121.8, 932.0)">и</text><text xml:space="preserve" font-family="YandexSansText-Regular" font-size="80.0" fill="#000000" transform="matrix(1.00, 0.00, -0.00, -1.00, 1170.5, 932.0)">н</text><text xml:space="preserve" font-family="YandexSansText-Regular" font-size="80.0" fill="#000000" transform="matrix(1.00, 0.00, -0.00, -1.00, 1217.0, 932.0)">а</text><text xml:space="preserve" font-family="YandexSansText-Regular" font-size="80.0" fill="#000000" transform="matrix(1.00, 0.00, -0.00, -1.00, 1259.3, 932.0)">х</text><text xml:space="preserve" font-family="YandexSansText-Regular" font-size="80.0" fill="#000000" transform="matrix(1.00, 0.00, -0.00, -1.00, 1300.3, 932.0)"> </text><text xml:space="preserve" font-family="YandexSansText-Regular" font-size="80.0" fill="#000000" transform="matrix(1.00, 0.00, -0.00, -1.00, 1316.0, 932.0)">к</text><text xml:space="preserve" font-family="YandexSansText-Regular" font-size="80.0" fill="#000000" transform="matrix(1.00, 0.00, -0.00, -1.00, 1355.9, 932.0)">о</text><text xml:space="preserve" font-family="YandexSansText-Regular" font-size="80.0" fill="#000000" transform="matrix(1.00, 0.00, -0.00, -1.00, 1402.5, 932.0)">м</text><text xml:space="preserve" font-family="YandexSansText-Regular" font-size="80.0" fill="#000000" transform="matrix(1.00, 0.00, -0.00, -1.00, 1461.4, 932.0)">п</text><text xml:space="preserve" font-family="YandexSansText-Regular" font-size="80.0" fill="#000000" transform="matrix(1.00, 0.00, -0.00, -1.00, 1507.0, 932.0)">о</text><text xml:space="preserve" font-family="YandexSansText-Regular" font-size="80.0" fill="#000000" transform="matrix(1.00, 0.00, -0.00, -1.00, 1553.5, 932.0)">н</text><text xml:space="preserve" font-family="YandexSansText-Regular" font-size="80.0" fill="#000000" transform="matrix(1.00, 0.00, -0.00, -1.00, 1600.0, 932.0)">е</text><text xml:space="preserve" font-family="YandexSansText-Regular" font-size="80.0" fill="#000000" transform="matrix(1.00, 0.00, -0.00, -1.00, 1643.4, 932.0)">н</text><text xml:space="preserve" font-family="YandexSansText-Regular" font-size="80.0" fill="#000000" transform="matrix(1.00, 0.00, -0.00, -1.00, 1689.9, 932.0)">т</text><text xml:space="preserve" font-family="YandexSansText-Regular" font-size="80.0" fill="#000000" transform="matrix(1.00, 0.00, -0.00, -1.00, 1726.9, 932.0)">о</text><text xml:space="preserve" font-family="YandexSansText-Regular" font-size="80.0" fill="#000000" transform="matrix(1.00, 0.00, -0.00, -1.00, 1773.4, 932.0)">в</text><text xml:space="preserve" font-family="YandexSansText-Regular" font-size="80.0" fill="#000000" transform="matrix(1.00, 0.00, -0.00, -1.00, 1815.9, 932.0)"> </text><text xml:space="preserve" font-family="YandexSansText-Light" font-size="30.0" fill="#000000" transform="matrix(1.00, 0.00, -0.00, -1.00, 1792.6, 48.1)">1</text><text xml:space="preserve" font-family="YandexSansText-Light" font-size="30.0" fill="#000000" transform="matrix(1.00, 0.00, -0.00, -1.00, 1809.2, 48.1)">6</text></g></svg>