<?xml version="1.0" encoding="UTF-8" standalone="no"?><svg xmlns="http://www.w3.org/2000/svg" xmlns:xlink="http://www.w3.org/1999/xlink" clip-rule="evenodd" stroke-miterlimit="4.00" viewBox="0 0 1920 1080"><desc>SVG generated by Keynote</desc><defs></defs><g transform="matrix(1.00, 0.00, -0.00, -1.00, 0.0, 1080.0)"><path d="M 0.0 1080.0 L 1920.0 1080.0 L 1920.0 0.0 L 0.0 0.0 Z M 0.0 1080.0 " fill="#FEFFFF"></path><text xml:space="preserve" font-family="YandexSansText-Regular" font-size="80.0" fill="#000000" transform="matrix(1.00, 0.00, -0.00, -1.00, 94.0, 932.0)">Г</text><text xml:space="preserve" font-family="YandexSansText-Regular" font-size="80.0" fill="#000000" transform="matrix(1.00, 0.00, -0.00, -1.00, 131.5, 932.0)">е</text><text xml:space="preserve" font-family="YandexSansText-Regular" font-size="80.0" fill="#000000" transform="matrix(1.00, 0.00, -0.00, -1.00, 175.0, 932.0)">н</text><text xml:space="preserve" font-family="YandexSansText-Regular" font-size="80.0" fill="#000000" transform="matrix(1.00, 0.00, -0.00, -1.00, 221.4, 932.0)">е</text><text xml:space="preserve" font-family="YandexSansText-Regular" font-size="80.0" fill="#000000" transform="matrix(1.00, 0.00, -0.00, -1.00, 264.9, 932.0)">р</text><text xml:space="preserve" font-family="YandexSansText-Regular" font-size="80.0" fill="#000000" transform="matrix(1.00, 0.00, -0.00, -1.00, 313.4, 932.0)">а</text><text xml:space="preserve" font-family="YandexSansText-Regular" font-size="80.0" fill="#000000" transform="matrix(1.00, 0.00, -0.00, -1.00, 355.8, 932.0)">ц</text><text xml:space="preserve" font-family="YandexSansText-Regular" font-size="80.0" fill="#000000" transform="matrix(1.00, 0.00, -0.00, -1.00, 403.4, 932.0)">и</text><text xml:space="preserve" font-family="YandexSansText-Regular" font-size="80.0" fill="#000000" transform="matrix(1.00, 0.00, -0.00, -1.00, 452.1, 932.0)">я</text><text xml:space="preserve" font-family="YandexSansText-Regular" font-size="80.0" fill="#000000" transform="matrix(1.00, 0.00, -0.00, -1.00, 494.0, 932.0)"> </text><text xml:space="preserve" font-family="YandexSansText-Regular" font-size="80.0" fill="#000000" transform="matrix(1.00, 0.00, -0.00, -1.00, 509.7, 932.0)">п</text><text xml:space="preserve" font-family="YandexSansText-Regular" font-size="80.0" fill="#000000" transform="matrix(1.00, 0.00, -0.00, -1.00, 555.3, 932.0)">о</text><text xml:space="preserve" font-family="YandexSansText-Regular" font-size="80.0" fill="#000000" transform="matrix(1.00, 0.00, -0.00, -1.00, 601.8, 932.0)"> </text><text xml:space="preserve" font-family="YandexSansText-Regular" font-size="80.0" fill="#000000" transform="matrix(1.00, 0.00, -0.00, -1.00, 617.5, 932.0)">о</text><text xml:space="preserve" font-family="YandexSansText-Regular" font-size="80.0" fill="#000000" transform="matrix(1.00, 0.00, -0.00, -1.00, 664.1, 932.0)">п</text><text xml:space="preserve" font-family="YandexSansText-Regular" font-size="80.0" fill="#000000" transform="matrix(1.00, 0.00, -0.00, -1.00, 709.7, 932.0)">и</text><text xml:space="preserve" font-family="YandexSansText-Regular" font-size="80.0" fill="#000000" transform="matrix(1.00, 0.00, -0.00, -1.00, 758.3, 932.0)">с</text><text xml:space="preserve" font-family="YandexSansText-Regular" font-size="80.0" fill="#000000" transform="matrix(1.00, 0.00, -0.00, -1.00, 797.8, 932.0)">а</text><text xml:space="preserve" font-family="YandexSansText-Regular" font-size="80.0" fill="#000000" transform="matrix(1.00, 0.00, -0.00, -1.00, 840.1, 932.0)">н</text><text xml:space="preserve" font-family="YandexSansText-Regular" font-size="80.0" fill="#000000" transform="matrix(1.00, 0.00, -0.00, -1.00, 886.6, 932.0)">и</text><text xml:space="preserve" font-family="YandexSansText-Regular" font-size="80.0" fill="#000000" transform="matrix(1.00, 0.00, -0.00, -1.00, 935.2, 932.0)">ю</text><text xml:space="preserve" font-family="YandexSansText-Regular" font-size="80.0" fill="#000000" transform="matrix(1.00, 0.00, -0.00, -1.00, 997.0, 932.0)"> </text><text xml:space="preserve" font-family="YandexSansText-Regular" font-size="80.0" fill="#000000" transform="matrix(1.00, 0.00, -0.00, -1.00, 1012.6, 932.0)">с</text><text xml:space="preserve" font-family="YandexSansText-Regular" font-size="80.0" fill="#000000" transform="matrix(1.00, 0.00, -0.00, -1.00, 1052.1, 932.0)">т</text><text xml:space="preserve" font-family="YandexSansText-Regular" font-size="80.0" fill="#000000" transform="matrix(1.00, 0.00, -0.00, -1.00, 1090.2, 932.0)">р</text><text xml:space="preserve" font-family="YandexSansText-Regular" font-size="80.0" fill="#000000" transform="matrix(1.00, 0.00, -0.00, -1.00, 1138.8, 932.0)">а</text><text xml:space="preserve" font-family="YandexSansText-Regular" font-size="80.0" fill="#000000" transform="matrix(1.00, 0.00, -0.00, -1.00, 1181.1, 932.0)">н</text><text xml:space="preserve" font-family="YandexSansText-Regular" font-size="80.0" fill="#000000" transform="matrix(1.00, 0.00, -0.00, -1.00, 1227.6, 932.0)">и</text><text xml:space="preserve" font-family="YandexSansText-Regular" font-size="80.0" fill="#000000" transform="matrix(1.00, 0.00, -0.00, -1.00, 1276.2, 932.0)">ц</text><text xml:space="preserve" font-family="YandexSansText-Regular" font-size="80.0" fill="#000000" transform="matrix(1.00, 0.00, -0.00, -1.00, 1323.9, 932.0)">ы</text><text xml:space="preserve" font-family="YandexSansText-Regular" font-size="80.0" fill="#000000" transform="matrix(1.00, 0.00, -0.00, -1.00, 1380.0, 932.0)"> </text><text xml:space="preserve" font-family="YandexSansText-Light" font-size="30.0" fill="#000000" transform="matrix(1.00, 0.00, -0.00, -1.00, 1792.6, 48.1)">1</text><text xml:space="preserve" font-family="YandexSansText-Light" font-size="30.0" fill="#000000" transform="matrix(1.00, 0.00, -0.00, -1.00, 1809.2, 48.1)">9</text></g></svg>