<?xml version="1.0" encoding="UTF-8" standalone="no"?><svg xmlns="http://www.w3.org/2000/svg" xmlns:xlink="http://www.w3.org/1999/xlink" clip-rule="evenodd" stroke-miterlimit="4.00" viewBox="0 0 1920 1080"><desc>SVG generated by Keynote</desc><defs></defs><g transform="matrix(1.00, 0.00, -0.00, -1.00, 0.0, 1080.0)"><path d="M 0.0 1080.0 L 1920.0 1080.0 L 1920.0 0.0 L 0.0 0.0 Z M 0.0 1080.0 " fill="#FEFFFF"></path><text xml:space="preserve" font-family="YandexSansText-Regular" font-size="80.0" fill="#000000" transform="matrix(1.00, 0.00, -0.00, -1.00, 94.0, 932.0)">О</text><text xml:space="preserve" font-family="YandexSansText-Regular" font-size="80.0" fill="#000000" transform="matrix(1.00, 0.00, -0.00, -1.00, 156.4, 932.0)"> </text><text xml:space="preserve" font-family="YandexSansText-Regular" font-size="80.0" fill="#000000" transform="matrix(1.00, 0.00, -0.00, -1.00, 172.1, 932.0)">ч</text><text xml:space="preserve" font-family="YandexSansText-Regular" font-size="80.0" fill="#000000" transform="matrix(1.00, 0.00, -0.00, -1.00, 216.6, 932.0)">ё</text><text xml:space="preserve" font-family="YandexSansText-Regular" font-size="80.0" fill="#000000" transform="matrix(1.00, 0.00, -0.00, -1.00, 260.1, 932.0)">м</text><text xml:space="preserve" font-family="YandexSansText-Regular" font-size="80.0" fill="#000000" transform="matrix(1.00, 0.00, -0.00, -1.00, 319.0, 932.0)"> </text><text xml:space="preserve" font-family="YandexSansText-Regular" font-size="80.0" fill="#000000" transform="matrix(1.00, 0.00, -0.00, -1.00, 334.6, 932.0)">р</text><text xml:space="preserve" font-family="YandexSansText-Regular" font-size="80.0" fill="#000000" transform="matrix(1.00, 0.00, -0.00, -1.00, 383.6, 932.0)">е</text><text xml:space="preserve" font-family="YandexSansText-Regular" font-size="80.0" fill="#000000" transform="matrix(1.00, 0.00, -0.00, -1.00, 426.2, 932.0)">ч</text><text xml:space="preserve" font-family="YandexSansText-Regular" font-size="80.0" fill="#000000" transform="matrix(1.00, 0.00, -0.00, -1.00, 470.8, 932.0)">ь</text><text xml:space="preserve" font-family="YandexSansText-Light" font-size="30.0" fill="#000000" transform="matrix(1.00, 0.00, -0.00, -1.00, 1809.2, 48.1)">2</text></g></svg>