<?xml version="1.0" encoding="UTF-8" standalone="no"?><svg xmlns="http://www.w3.org/2000/svg" xmlns:xlink="http://www.w3.org/1999/xlink" clip-rule="evenodd" stroke-miterlimit="4.00" viewBox="0 0 1920 1080"><desc>SVG generated by Keynote</desc><defs></defs><g transform="matrix(1.00, 0.00, -0.00, -1.00, 0.0, 1080.0)"><path d="M 0.0 1080.0 L 1920.0 1080.0 L 1920.0 0.0 L 0.0 0.0 Z M 0.0 1080.0 " fill="#FEFFFF"></path><text xml:space="preserve" font-family="YandexSansText-Light" font-size="48.0" fill="#000000" transform="matrix(1.00, 0.00, -0.00, -1.00, 244.0, 180.0)">В</text><text xml:space="preserve" font-family="YandexSansText-Light" font-size="48.0" fill="#000000" transform="matrix(1.00, 0.00, -0.00, -1.00, 272.9, 180.0)">л</text><text xml:space="preserve" font-family="YandexSansText-Light" font-size="48.0" fill="#000000" transform="matrix(1.00, 0.00, -0.00, -1.00, 298.8, 180.0)">а</text><text xml:space="preserve" font-family="YandexSansText-Light" font-size="48.0" fill="#000000" transform="matrix(1.00, 0.00, -0.00, -1.00, 324.3, 180.0)">д</text><text xml:space="preserve" font-family="YandexSansText-Light" font-size="48.0" fill="#000000" transform="matrix(1.00, 0.00, -0.00, -1.00, 352.0, 180.0)">и</text><text xml:space="preserve" font-family="YandexSansText-Light" font-size="48.0" fill="#000000" transform="matrix(1.00, 0.00, -0.00, -1.00, 380.5, 180.0)">м</text><text xml:space="preserve" font-family="YandexSansText-Light" font-size="48.0" fill="#000000" transform="matrix(1.00, 0.00, -0.00, -1.00, 414.4, 180.0)">и</text><text xml:space="preserve" font-family="YandexSansText-Light" font-size="48.0" fill="#000000" transform="matrix(1.00, 0.00, -0.00, -1.00, 442.9, 180.0)">р</text><text xml:space="preserve" font-family="YandexSansText-Light" font-size="48.0" fill="#000000" transform="matrix(1.00, 0.00, -0.00, -1.00, 472.4, 180.0)"> </text><text xml:space="preserve" font-family="YandexSansText-Light" font-size="48.0" fill="#000000" transform="matrix(1.00, 0.00, -0.00, -1.00, 481.8, 180.0)">Г</text><text xml:space="preserve" font-family="YandexSansText-Light" font-size="48.0" fill="#000000" transform="matrix(1.00, 0.00, -0.00, -1.00, 504.4, 180.0)">р</text><text xml:space="preserve" font-family="YandexSansText-Light" font-size="48.0" fill="#000000" transform="matrix(1.00, 0.00, -0.00, -1.00, 533.8, 180.0)">и</text><text xml:space="preserve" font-family="YandexSansText-Light" font-size="48.0" fill="#000000" transform="matrix(1.00, 0.00, -0.00, -1.00, 562.4, 180.0)">н</text><text xml:space="preserve" font-family="YandexSansText-Light" font-size="48.0" fill="#000000" transform="matrix(1.00, 0.00, -0.00, -1.00, 590.0, 180.0)">е</text><text xml:space="preserve" font-family="YandexSansText-Light" font-size="48.0" fill="#000000" transform="matrix(1.00, 0.00, -0.00, -1.00, 616.0, 180.0)">н</text><text xml:space="preserve" font-family="YandexSansText-Light" font-size="48.0" fill="#000000" transform="matrix(1.00, 0.00, -0.00, -1.00, 643.6, 180.0)">к</text><text xml:space="preserve" font-family="YandexSansText-Light" font-size="48.0" fill="#000000" transform="matrix(1.00, 0.00, -0.00, -1.00, 666.5, 180.0)">о</text><text xml:space="preserve" font-family="YandexSansText-Light" font-size="48.0" fill="#000000" transform="matrix(1.00, 0.00, -0.00, -1.00, 694.3, 180.0)"> </text><g><clipPath id="clip-350"><path d="M 229.7 115.3 L 1690.3 115.3 L 1690.3 228.3 L 229.7 228.3 Z M 229.7 115.3 "></path></clipPath><g clip-path="url(#clip-350)"><text xml:space="preserve" font-family="YandexSansText-Light" font-size="48.0" fill="#000000" transform="matrix(1.00, 0.00, -0.00, -1.00, 244.0, 120.0)">F</text><text xml:space="preserve" font-family="YandexSansText-Light" font-size="48.0" fill="#000000" transform="matrix(1.00, 0.00, -0.00, -1.00, 269.5, 120.0)">r</text><text xml:space="preserve" font-family="YandexSansText-Light" font-size="48.0" fill="#000000" transform="matrix(1.00, 0.00, -0.00, -1.00, 285.8, 120.0)">o</text><text xml:space="preserve" font-family="YandexSansText-Light" font-size="48.0" fill="#000000" transform="matrix(1.00, 0.00, -0.00, -1.00, 313.6, 120.0)">n</text><text xml:space="preserve" font-family="YandexSansText-Light" font-size="48.0" fill="#000000" transform="matrix(1.00, 0.00, -0.00, -1.00, 341.5, 120.0)">t</text><text xml:space="preserve" font-family="YandexSansText-Light" font-size="48.0" fill="#000000" transform="matrix(1.00, 0.00, -0.00, -1.00, 358.6, 120.0)">T</text><text xml:space="preserve" font-family="YandexSansText-Light" font-size="48.0" fill="#000000" transform="matrix(1.00, 0.00, -0.00, -1.00, 382.5, 120.0)">a</text><text xml:space="preserve" font-family="YandexSansText-Light" font-size="48.0" fill="#000000" transform="matrix(1.00, 0.00, -0.00, -1.00, 407.7, 120.0)">l</text><text xml:space="preserve" font-family="YandexSansText-Light" font-size="48.0" fill="#000000" transform="matrix(1.00, 0.00, -0.00, -1.00, 418.3, 120.0)">k</text><text xml:space="preserve" font-family="YandexSansText-Light" font-size="48.0" fill="#000000" transform="matrix(1.00, 0.00, -0.00, -1.00, 441.9, 120.0)">s</text><text xml:space="preserve" font-family="YandexSansText-Light" font-size="48.0" fill="#000000" transform="matrix(1.00, 0.00, -0.00, -1.00, 464.8, 120.0)"> </text><text xml:space="preserve" font-family="YandexSansText-Light" font-size="48.0" fill="#000000" transform="matrix(1.00, 0.00, -0.00, -1.00, 474.2, 120.0)">2</text><text xml:space="preserve" font-family="YandexSansText-Light" font-size="48.0" fill="#000000" transform="matrix(1.00, 0.00, -0.00, -1.00, 500.8, 120.0)">0</text><text xml:space="preserve" font-family="YandexSansText-Light" font-size="48.0" fill="#000000" transform="matrix(1.00, 0.00, -0.00, -1.00, 527.5, 120.0)">1</text><text xml:space="preserve" font-family="YandexSansText-Light" font-size="48.0" fill="#000000" transform="matrix(1.00, 0.00, -0.00, -1.00, 554.2, 120.0)">7</text></g></g><g><clipPath id="clip-351"><path d="M 239.0 929.0 L 929.0 929.0 L 929.0 833.0 L 239.0 833.0 Z M 239.1 928.6 "></path></clipPath><g clip-path="url(#clip-351)"><image xlink:href="A2C375E85FD6F24412B5DD6672521949.png" width="698.00" height="96.00" transform="matrix(1.00, 0.00, -0.00, -1.00, 236.0, 929.0)"></image></g></g><g><clipPath id="clip-352"><path d="M 1410.0 920.0 L 1681.0 920.0 L 1681.0 850.0 L 1410.0 850.0 Z M 1410.0 919.8 "></path></clipPath><g clip-path="url(#clip-352)"><image xlink:href="67A20821F7DDD7F0E99FE6A3FA6CEB74.png" width="216.00" height="102.00" transform="matrix(2.21, 0.00, -0.00, -0.69, 1307.0, 920.0)"></image></g></g><text xml:space="preserve" font-family="YandexSansText-Light" font-size="100.0" fill="#000000" transform="matrix(1.00, 0.00, -0.00, -1.00, 244.0, 650.0)">З</text><text xml:space="preserve" font-family="YandexSansText-Light" font-size="100.0" fill="#000000" transform="matrix(1.00, 0.00, -0.00, -1.00, 301.3, 650.0)">а</text><text xml:space="preserve" font-family="YandexSansText-Light" font-size="100.0" fill="#000000" transform="matrix(1.00, 0.00, -0.00, -1.00, 353.8, 650.0)">в</text><text xml:space="preserve" font-family="YandexSansText-Light" font-size="100.0" fill="#000000" transform="matrix(1.00, 0.00, -0.00, -1.00, 405.5, 650.0)">и</text><text xml:space="preserve" font-family="YandexSansText-Light" font-size="100.0" fill="#000000" transform="matrix(1.00, 0.00, -0.00, -1.00, 465.0, 650.0)">с</text><text xml:space="preserve" font-family="YandexSansText-Light" font-size="100.0" fill="#000000" transform="matrix(1.00, 0.00, -0.00, -1.00, 515.0, 650.0)">и</text><text xml:space="preserve" font-family="YandexSansText-Light" font-size="100.0" fill="#000000" transform="matrix(1.00, 0.00, -0.00, -1.00, 574.5, 650.0)">м</text><text xml:space="preserve" font-family="YandexSansText-Light" font-size="100.0" fill="#000000" transform="matrix(1.00, 0.00, -0.00, -1.00, 645.0, 650.0)">о</text><text xml:space="preserve" font-family="YandexSansText-Light" font-size="100.0" fill="#000000" transform="matrix(1.00, 0.00, -0.00, -1.00, 702.9, 650.0)">с</text><text xml:space="preserve" font-family="YandexSansText-Light" font-size="100.0" fill="#000000" transform="matrix(1.00, 0.00, -0.00, -1.00, 753.2, 650.0)">т</text><text xml:space="preserve" font-family="YandexSansText-Light" font-size="100.0" fill="#000000" transform="matrix(1.00, 0.00, -0.00, -1.00, 800.1, 650.0)">и</text><text xml:space="preserve" font-family="YandexSansText-Light" font-size="100.0" fill="#000000" transform="matrix(1.00, 0.00, -0.00, -1.00, 859.6, 650.0)"> </text><text xml:space="preserve" font-family="YandexSansText-Light" font-size="100.0" fill="#000000" transform="matrix(1.00, 0.00, -0.00, -1.00, 879.2, 650.0)">в</text><text xml:space="preserve" font-family="YandexSansText-Light" font-size="100.0" fill="#000000" transform="matrix(1.00, 0.00, -0.00, -1.00, 930.9, 650.0)"> </text><text xml:space="preserve" font-family="YandexSansText-Light" font-size="100.0" fill="#000000" transform="matrix(1.00, 0.00, -0.00, -1.00, 950.5, 650.0)">к</text><text xml:space="preserve" font-family="YandexSansText-Light" font-size="100.0" fill="#000000" transform="matrix(1.00, 0.00, -0.00, -1.00, 998.2, 650.0)">о</text><text xml:space="preserve" font-family="YandexSansText-Light" font-size="100.0" fill="#000000" transform="matrix(1.00, 0.00, -0.00, -1.00, 1056.1, 650.0)">м</text><text xml:space="preserve" font-family="YandexSansText-Light" font-size="100.0" fill="#000000" transform="matrix(1.00, 0.00, -0.00, -1.00, 1126.6, 650.0)">п</text><text xml:space="preserve" font-family="YandexSansText-Light" font-size="100.0" fill="#000000" transform="matrix(1.00, 0.00, -0.00, -1.00, 1183.2, 650.0)">о</text><text xml:space="preserve" font-family="YandexSansText-Light" font-size="100.0" fill="#000000" transform="matrix(1.00, 0.00, -0.00, -1.00, 1241.1, 650.0)">н</text><text xml:space="preserve" font-family="YandexSansText-Light" font-size="100.0" fill="#000000" transform="matrix(1.00, 0.00, -0.00, -1.00, 1298.7, 650.0)">е</text><text xml:space="preserve" font-family="YandexSansText-Light" font-size="100.0" fill="#000000" transform="matrix(1.00, 0.00, -0.00, -1.00, 1352.7, 650.0)">н</text><text xml:space="preserve" font-family="YandexSansText-Light" font-size="100.0" fill="#000000" transform="matrix(1.00, 0.00, -0.00, -1.00, 1410.3, 650.0)">т</text><text xml:space="preserve" font-family="YandexSansText-Light" font-size="100.0" fill="#000000" transform="matrix(1.00, 0.00, -0.00, -1.00, 1457.2, 650.0)">н</text><text xml:space="preserve" font-family="YandexSansText-Light" font-size="100.0" fill="#000000" transform="matrix(1.00, 0.00, -0.00, -1.00, 1514.8, 650.0)">о</text><text xml:space="preserve" font-family="YandexSansText-Light" font-size="100.0" fill="#000000" transform="matrix(1.00, 0.00, -0.00, -1.00, 1572.7, 650.0)">м</text><text xml:space="preserve" font-family="YandexSansText-Light" font-size="100.0" fill="#000000" transform="matrix(1.00, 0.00, -0.00, -1.00, 1643.2, 650.0)"> </text><text xml:space="preserve" font-family="YandexSansText-Light" font-size="100.0" fill="#000000" transform="matrix(1.00, 0.00, -0.00, -1.00, 244.0, 510.0)">в</text><text xml:space="preserve" font-family="YandexSansText-Light" font-size="100.0" fill="#000000" transform="matrix(1.00, 0.00, -0.00, -1.00, 295.7, 510.0)">е</text><text xml:space="preserve" font-family="YandexSansText-Light" font-size="100.0" fill="#000000" transform="matrix(1.00, 0.00, -0.00, -1.00, 349.7, 510.0)">б</text><text xml:space="preserve" font-family="YandexSansText-Light" font-size="100.0" fill="#000000" transform="matrix(1.00, 0.00, -0.00, -1.00, 409.2, 510.0)">е</text><text xml:space="preserve" font-family="YandexSansText-Light" font-size="100.0" fill="#000000" transform="matrix(1.00, 0.00, -0.00, -1.00, 463.2, 510.0)">,</text><text xml:space="preserve" font-family="YandexSansText-Light" font-size="100.0" fill="#000000" transform="matrix(1.00, 0.00, -0.00, -1.00, 488.9, 510.0)"> </text><text xml:space="preserve" font-family="YandexSansText-Light" font-size="100.0" fill="#000000" transform="matrix(1.00, 0.00, -0.00, -1.00, 508.5, 510.0)">п</text><text xml:space="preserve" font-family="YandexSansText-Light" font-size="100.0" fill="#000000" transform="matrix(1.00, 0.00, -0.00, -1.00, 565.1, 510.0)">р</text><text xml:space="preserve" font-family="YandexSansText-Light" font-size="100.0" fill="#000000" transform="matrix(1.00, 0.00, -0.00, -1.00, 626.5, 510.0)">и</text><text xml:space="preserve" font-family="YandexSansText-Light" font-size="100.0" fill="#000000" transform="matrix(1.00, 0.00, -0.00, -1.00, 686.0, 510.0)">г</text><text xml:space="preserve" font-family="YandexSansText-Light" font-size="100.0" fill="#000000" transform="matrix(1.00, 0.00, -0.00, -1.00, 727.8, 510.0)">о</text><text xml:space="preserve" font-family="YandexSansText-Light" font-size="100.0" fill="#000000" transform="matrix(1.00, 0.00, -0.00, -1.00, 784.2, 510.0)">т</text><text xml:space="preserve" font-family="YandexSansText-Light" font-size="100.0" fill="#000000" transform="matrix(1.00, 0.00, -0.00, -1.00, 829.6, 510.0)">о</text><text xml:space="preserve" font-family="YandexSansText-Light" font-size="100.0" fill="#000000" transform="matrix(1.00, 0.00, -0.00, -1.00, 887.5, 510.0)">в</text><text xml:space="preserve" font-family="YandexSansText-Light" font-size="100.0" fill="#000000" transform="matrix(1.00, 0.00, -0.00, -1.00, 938.9, 510.0)">л</text><text xml:space="preserve" font-family="YandexSansText-Light" font-size="100.0" fill="#000000" transform="matrix(1.00, 0.00, -0.00, -1.00, 992.8, 510.0)">е</text><text xml:space="preserve" font-family="YandexSansText-Light" font-size="100.0" fill="#000000" transform="matrix(1.00, 0.00, -0.00, -1.00, 1046.8, 510.0)">н</text><text xml:space="preserve" font-family="YandexSansText-Light" font-size="100.0" fill="#000000" transform="matrix(1.00, 0.00, -0.00, -1.00, 1104.4, 510.0)">н</text><text xml:space="preserve" font-family="YandexSansText-Light" font-size="100.0" fill="#000000" transform="matrix(1.00, 0.00, -0.00, -1.00, 1162.0, 510.0)">ы</text><text xml:space="preserve" font-family="YandexSansText-Light" font-size="100.0" fill="#000000" transform="matrix(1.00, 0.00, -0.00, -1.00, 1228.6, 510.0)">е</text><text xml:space="preserve" font-family="YandexSansText-Light" font-size="100.0" fill="#000000" transform="matrix(1.00, 0.00, -0.00, -1.00, 1282.6, 510.0)"> </text><text xml:space="preserve" font-family="YandexSansText-Light" font-size="100.0" fill="#000000" transform="matrix(1.00, 0.00, -0.00, -1.00, 244.0, 370.0)">п</text><text xml:space="preserve" font-family="YandexSansText-Light" font-size="100.0" fill="#000000" transform="matrix(1.00, 0.00, -0.00, -1.00, 300.6, 370.0)">р</text><text xml:space="preserve" font-family="YandexSansText-Light" font-size="100.0" fill="#000000" transform="matrix(1.00, 0.00, -0.00, -1.00, 361.5, 370.0)">а</text><text xml:space="preserve" font-family="YandexSansText-Light" font-size="100.0" fill="#000000" transform="matrix(1.00, 0.00, -0.00, -1.00, 414.0, 370.0)">в</text><text xml:space="preserve" font-family="YandexSansText-Light" font-size="100.0" fill="#000000" transform="matrix(1.00, 0.00, -0.00, -1.00, 465.7, 370.0)">и</text><text xml:space="preserve" font-family="YandexSansText-Light" font-size="100.0" fill="#000000" transform="matrix(1.00, 0.00, -0.00, -1.00, 525.2, 370.0)">л</text><text xml:space="preserve" font-family="YandexSansText-Light" font-size="100.0" fill="#000000" transform="matrix(1.00, 0.00, -0.00, -1.00, 579.1, 370.0)">ь</text><text xml:space="preserve" font-family="YandexSansText-Light" font-size="100.0" fill="#000000" transform="matrix(1.00, 0.00, -0.00, -1.00, 626.6, 370.0)">н</text><text xml:space="preserve" font-family="YandexSansText-Light" font-size="100.0" fill="#000000" transform="matrix(1.00, 0.00, -0.00, -1.00, 684.2, 370.0)">о</text></g></svg>