<?xml version="1.0" encoding="UTF-8" standalone="no"?><svg xmlns="http://www.w3.org/2000/svg" xmlns:xlink="http://www.w3.org/1999/xlink" clip-rule="evenodd" stroke-miterlimit="4.00" viewBox="0 0 1920 1080"><desc>SVG generated by Keynote</desc><defs></defs><g transform="matrix(1.00, 0.00, -0.00, -1.00, 0.0, 1080.0)"><path d="M 0.0 1080.0 L 1920.0 1080.0 L 1920.0 0.0 L 0.0 0.0 Z M 0.0 1080.0 " fill="#FFCC06"></path><g><clipPath id="clip-417"><path d="M 900.0 76.0 L 1020.0 76.0 L 1020.0 40.0 L 900.0 40.0 Z M 900.0 76.0 "></path></clipPath><g clip-path="url(#clip-417)"><g><clipPath id="clip-418"><path d="M 900.0 40.0 L 1020.0 40.0 L 1020.0 76.0 L 900.0 76.0 Z M 900.0 40.0 "></path></clipPath><g clip-path="url(#clip-418)"><path d="M 0.0 0.0 L -56.0 -32.0 C -58.5 -33.4 -61.5 -33.4 -64.0 -32.0 L -120.0 0.1 " fill="none" stroke="#000000" stroke-width="4.00" stroke-miterlimit="0.00" stroke-linecap="round" transform="matrix(0.97, 0.00, 0.00, 0.97, 1018.1, 74.0)"></path></g></g></g></g><text xml:space="preserve" font-family="YandexSansText-Light" font-size="120.0" fill="#000000" transform="matrix(1.00, 0.00, -0.00, -1.00, 244.0, 512.0)">В</text><text xml:space="preserve" font-family="YandexSansText-Light" font-size="120.0" fill="#000000" transform="matrix(1.00, 0.00, -0.00, -1.00, 317.6, 512.0)">а</text><text xml:space="preserve" font-family="YandexSansText-Light" font-size="120.0" fill="#000000" transform="matrix(1.00, 0.00, -0.00, -1.00, 380.6, 512.0)">ш</text><text xml:space="preserve" font-family="YandexSansText-Light" font-size="120.0" fill="#000000" transform="matrix(1.00, 0.00, -0.00, -1.00, 474.5, 512.0)">и</text><text xml:space="preserve" font-family="YandexSansText-Light" font-size="120.0" fill="#000000" transform="matrix(1.00, 0.00, -0.00, -1.00, 545.9, 512.0)"> </text><text xml:space="preserve" font-family="YandexSansText-Light" font-size="120.0" fill="#000000" transform="matrix(1.00, 0.00, -0.00, -1.00, 569.4, 512.0)">в</text><text xml:space="preserve" font-family="YandexSansText-Light" font-size="120.0" fill="#000000" transform="matrix(1.00, 0.00, -0.00, -1.00, 631.5, 512.0)">о</text><text xml:space="preserve" font-family="YandexSansText-Light" font-size="120.0" fill="#000000" transform="matrix(1.00, 0.00, -0.00, -1.00, 701.0, 512.0)">п</text><text xml:space="preserve" font-family="YandexSansText-Light" font-size="120.0" fill="#000000" transform="matrix(1.00, 0.00, -0.00, -1.00, 768.9, 512.0)">р</text><text xml:space="preserve" font-family="YandexSansText-Light" font-size="120.0" fill="#000000" transform="matrix(1.00, 0.00, -0.00, -1.00, 842.6, 512.0)">о</text><text xml:space="preserve" font-family="YandexSansText-Light" font-size="120.0" fill="#000000" transform="matrix(1.00, 0.00, -0.00, -1.00, 912.0, 512.0)">с</text><text xml:space="preserve" font-family="YandexSansText-Light" font-size="120.0" fill="#000000" transform="matrix(1.00, 0.00, -0.00, -1.00, 972.0, 512.0)">ы</text><text xml:space="preserve" font-family="YandexSansText-Light" font-size="120.0" fill="#000000" transform="matrix(1.00, 0.00, -0.00, -1.00, 1052.0, 512.0)">!</text></g></svg>