<?xml version="1.0" encoding="UTF-8" standalone="no"?><svg xmlns="http://www.w3.org/2000/svg" xmlns:xlink="http://www.w3.org/1999/xlink" clip-rule="evenodd" stroke-miterlimit="4.00" viewBox="0 0 641 36"><desc>SVG generated by Keynote</desc><defs></defs><g transform="matrix(1.00, 0.00, -0.00, -1.00, 0.0, 36.0)"><text xml:space="preserve" font-family="PTMono-Regular" font-size="36.0" fill="#C39719" transform="matrix(1.00, 0.00, -0.00, -1.00, -1.0, 9.0)">i</text><text xml:space="preserve" font-family="PTMono-Regular" font-size="36.0" fill="#C39719" transform="matrix(1.00, 0.00, -0.00, -1.00, 20.6, 9.0)">m</text><text xml:space="preserve" font-family="PTMono-Regular" font-size="36.0" fill="#C39719" transform="matrix(1.00, 0.00, -0.00, -1.00, 42.2, 9.0)">p</text><text xml:space="preserve" font-family="PTMono-Regular" font-size="36.0" fill="#C39719" transform="matrix(1.00, 0.00, -0.00, -1.00, 63.8, 9.0)">o</text><text xml:space="preserve" font-family="PTMono-Regular" font-size="36.0" fill="#C39719" transform="matrix(1.00, 0.00, -0.00, -1.00, 85.4, 9.0)">r</text><text xml:space="preserve" font-family="PTMono-Regular" font-size="36.0" fill="#C39719" transform="matrix(1.00, 0.00, -0.00, -1.00, 107.0, 9.0)">t</text><text xml:space="preserve" font-family="PTMono-Regular" font-size="36.0" fill="#000000" transform="matrix(1.00, 0.00, -0.00, -1.00, 128.6, 9.0)"> </text><text xml:space="preserve" font-family="PTMono-Regular" font-size="36.0" fill="#0264C0" transform="matrix(1.00, 0.00, -0.00, -1.00, 150.2, 9.0)">B</text><text xml:space="preserve" font-family="PTMono-Regular" font-size="36.0" fill="#0264C0" transform="matrix(1.00, 0.00, -0.00, -1.00, 171.8, 9.0)">u</text><text xml:space="preserve" font-family="PTMono-Regular" font-size="36.0" fill="#0264C0" transform="matrix(1.00, 0.00, -0.00, -1.00, 193.4, 9.0)">t</text><text xml:space="preserve" font-family="PTMono-Regular" font-size="36.0" fill="#0264C0" transform="matrix(1.00, 0.00, -0.00, -1.00, 215.0, 9.0)">t</text><text xml:space="preserve" font-family="PTMono-Regular" font-size="36.0" fill="#0264C0" transform="matrix(1.00, 0.00, -0.00, -1.00, 236.6, 9.0)">o</text><text xml:space="preserve" font-family="PTMono-Regular" font-size="36.0" fill="#0264C0" transform="matrix(1.00, 0.00, -0.00, -1.00, 258.2, 9.0)">n</text><text xml:space="preserve" font-family="PTMono-Regular" font-size="36.0" fill="#000000" transform="matrix(1.00, 0.00, -0.00, -1.00, 279.8, 9.0)"> </text><text xml:space="preserve" font-family="PTMono-Regular" font-size="36.0" fill="#C39719" transform="matrix(1.00, 0.00, -0.00, -1.00, 301.4, 9.0)">f</text><text xml:space="preserve" font-family="PTMono-Regular" font-size="36.0" fill="#C39719" transform="matrix(1.00, 0.00, -0.00, -1.00, 323.0, 9.0)">r</text><text xml:space="preserve" font-family="PTMono-Regular" font-size="36.0" fill="#C39719" transform="matrix(1.00, 0.00, -0.00, -1.00, 344.6, 9.0)">o</text><text xml:space="preserve" font-family="PTMono-Regular" font-size="36.0" fill="#C39719" transform="matrix(1.00, 0.00, -0.00, -1.00, 366.2, 9.0)">m</text><text xml:space="preserve" font-family="PTMono-Regular" font-size="36.0" fill="#000000" transform="matrix(1.00, 0.00, -0.00, -1.00, 387.8, 9.0)"> </text><text xml:space="preserve" font-family="PTMono-Regular" font-size="36.0" fill="#000000" transform="matrix(1.00, 0.00, -0.00, -1.00, 409.4, 9.0)">'</text><text xml:space="preserve" font-family="PTMono-Regular" font-size="36.0" fill="#00872A" transform="matrix(1.00, 0.00, -0.00, -1.00, 431.0, 9.0)">b</text><text xml:space="preserve" font-family="PTMono-Regular" font-size="36.0" fill="#00872A" transform="matrix(1.00, 0.00, -0.00, -1.00, 452.6, 9.0)">:</text><text xml:space="preserve" font-family="PTMono-Regular" font-size="36.0" fill="#00872A" transform="matrix(1.00, 0.00, -0.00, -1.00, 474.2, 9.0)">b</text><text xml:space="preserve" font-family="PTMono-Regular" font-size="36.0" fill="#00872A" transform="matrix(1.00, 0.00, -0.00, -1.00, 495.8, 9.0)">u</text><text xml:space="preserve" font-family="PTMono-Regular" font-size="36.0" fill="#00872A" transform="matrix(1.00, 0.00, -0.00, -1.00, 517.4, 9.0)">t</text><text xml:space="preserve" font-family="PTMono-Regular" font-size="36.0" fill="#00872A" transform="matrix(1.00, 0.00, -0.00, -1.00, 539.0, 9.0)">t</text><text xml:space="preserve" font-family="PTMono-Regular" font-size="36.0" fill="#00872A" transform="matrix(1.00, 0.00, -0.00, -1.00, 560.6, 9.0)">o</text><text xml:space="preserve" font-family="PTMono-Regular" font-size="36.0" fill="#00872A" transform="matrix(1.00, 0.00, -0.00, -1.00, 582.2, 9.0)">n</text><text xml:space="preserve" font-family="PTMono-Regular" font-size="36.0" fill="#000000" transform="matrix(1.00, 0.00, -0.00, -1.00, 603.8, 9.0)">'</text><text xml:space="preserve" font-family="PTMono-Regular" font-size="36.0" fill="#000000" transform="matrix(1.00, 0.00, -0.00, -1.00, 625.4, 9.0)">;</text></g></svg>