<?xml version="1.0" encoding="UTF-8" standalone="no"?><svg xmlns="http://www.w3.org/2000/svg" xmlns:xlink="http://www.w3.org/1999/xlink" clip-rule="evenodd" stroke-miterlimit="4.00" viewBox="0 0 1920 1080"><desc>SVG generated by Keynote</desc><defs></defs><g transform="matrix(1.00, 0.00, -0.00, -1.00, 0.0, 1080.0)"><path d="M 0.0 1080.0 L 1920.0 1080.0 L 1920.0 0.0 L 0.0 0.0 Z M 0.0 1080.0 " fill="#FEFFFF"></path><text xml:space="preserve" font-family="PTMono-Regular" font-size="36.0" fill="#C39719" transform="matrix(1.00, 0.00, -0.00, -1.00, 126.0, 768.0)">i</text><text xml:space="preserve" font-family="PTMono-Regular" font-size="36.0" fill="#C39719" transform="matrix(1.00, 0.00, -0.00, -1.00, 147.6, 768.0)">m</text><text xml:space="preserve" font-family="PTMono-Regular" font-size="36.0" fill="#C39719" transform="matrix(1.00, 0.00, -0.00, -1.00, 169.2, 768.0)">p</text><text xml:space="preserve" font-family="PTMono-Regular" font-size="36.0" fill="#C39719" transform="matrix(1.00, 0.00, -0.00, -1.00, 190.8, 768.0)">o</text><text xml:space="preserve" font-family="PTMono-Regular" font-size="36.0" fill="#C39719" transform="matrix(1.00, 0.00, -0.00, -1.00, 212.4, 768.0)">r</text><text xml:space="preserve" font-family="PTMono-Regular" font-size="36.0" fill="#C39719" transform="matrix(1.00, 0.00, -0.00, -1.00, 234.0, 768.0)">t</text><text xml:space="preserve" font-family="PTMono-Regular" font-size="36.0" fill="#000000" transform="matrix(1.00, 0.00, -0.00, -1.00, 255.6, 768.0)"> </text><text xml:space="preserve" font-family="PTMono-Regular" font-size="36.0" fill="#0264C0" transform="matrix(1.00, 0.00, -0.00, -1.00, 277.2, 768.0)">B</text><text xml:space="preserve" font-family="PTMono-Regular" font-size="36.0" fill="#0264C0" transform="matrix(1.00, 0.00, -0.00, -1.00, 298.8, 768.0)">u</text><text xml:space="preserve" font-family="PTMono-Regular" font-size="36.0" fill="#0264C0" transform="matrix(1.00, 0.00, -0.00, -1.00, 320.4, 768.0)">t</text><text xml:space="preserve" font-family="PTMono-Regular" font-size="36.0" fill="#0264C0" transform="matrix(1.00, 0.00, -0.00, -1.00, 342.0, 768.0)">t</text><text xml:space="preserve" font-family="PTMono-Regular" font-size="36.0" fill="#0264C0" transform="matrix(1.00, 0.00, -0.00, -1.00, 363.6, 768.0)">o</text><text xml:space="preserve" font-family="PTMono-Regular" font-size="36.0" fill="#0264C0" transform="matrix(1.00, 0.00, -0.00, -1.00, 385.2, 768.0)">n</text><text xml:space="preserve" font-family="PTMono-Regular" font-size="36.0" fill="#000000" transform="matrix(1.00, 0.00, -0.00, -1.00, 406.8, 768.0)"> </text><text xml:space="preserve" font-family="PTMono-Regular" font-size="36.0" fill="#C39719" transform="matrix(1.00, 0.00, -0.00, -1.00, 428.4, 768.0)">f</text><text xml:space="preserve" font-family="PTMono-Regular" font-size="36.0" fill="#C39719" transform="matrix(1.00, 0.00, -0.00, -1.00, 450.0, 768.0)">r</text><text xml:space="preserve" font-family="PTMono-Regular" font-size="36.0" fill="#C39719" transform="matrix(1.00, 0.00, -0.00, -1.00, 471.6, 768.0)">o</text><text xml:space="preserve" font-family="PTMono-Regular" font-size="36.0" fill="#C39719" transform="matrix(1.00, 0.00, -0.00, -1.00, 493.2, 768.0)">m</text><text xml:space="preserve" font-family="PTMono-Regular" font-size="36.0" fill="#000000" transform="matrix(1.00, 0.00, -0.00, -1.00, 514.8, 768.0)"> </text><text xml:space="preserve" font-family="PTMono-Regular" font-size="36.0" fill="#000000" transform="matrix(1.00, 0.00, -0.00, -1.00, 536.4, 768.0)">'</text><text xml:space="preserve" font-family="PTMono-Regular" font-size="36.0" fill="#00872A" transform="matrix(1.00, 0.00, -0.00, -1.00, 558.0, 768.0)">b</text><text xml:space="preserve" font-family="PTMono-Regular" font-size="36.0" fill="#00872A" transform="matrix(1.00, 0.00, -0.00, -1.00, 579.6, 768.0)">:</text><text xml:space="preserve" font-family="PTMono-Regular" font-size="36.0" fill="#00872A" transform="matrix(1.00, 0.00, -0.00, -1.00, 601.2, 768.0)">b</text><text xml:space="preserve" font-family="PTMono-Regular" font-size="36.0" fill="#00872A" transform="matrix(1.00, 0.00, -0.00, -1.00, 622.8, 768.0)">u</text><text xml:space="preserve" font-family="PTMono-Regular" font-size="36.0" fill="#00872A" transform="matrix(1.00, 0.00, -0.00, -1.00, 644.4, 768.0)">t</text><text xml:space="preserve" font-family="PTMono-Regular" font-size="36.0" fill="#00872A" transform="matrix(1.00, 0.00, -0.00, -1.00, 666.0, 768.0)">t</text><text xml:space="preserve" font-family="PTMono-Regular" font-size="36.0" fill="#00872A" transform="matrix(1.00, 0.00, -0.00, -1.00, 687.6, 768.0)">o</text><text xml:space="preserve" font-family="PTMono-Regular" font-size="36.0" fill="#00872A" transform="matrix(1.00, 0.00, -0.00, -1.00, 709.2, 768.0)">n</text><text xml:space="preserve" font-family="PTMono-Regular" font-size="36.0" fill="#000000" transform="matrix(1.00, 0.00, -0.00, -1.00, 730.8, 768.0)">'</text><text xml:space="preserve" font-family="PTMono-Regular" font-size="36.0" fill="#000000" transform="matrix(1.00, 0.00, -0.00, -1.00, 752.4, 768.0)">;</text><text xml:space="preserve" font-family="YandexSansText-Regular" font-size="80.0" fill="#000000" transform="matrix(1.00, 0.00, -0.00, -1.00, 94.0, 932.0)">К</text><text xml:space="preserve" font-family="YandexSansText-Regular" font-size="80.0" fill="#000000" transform="matrix(1.00, 0.00, -0.00, -1.00, 144.1, 932.0)">а</text><text xml:space="preserve" font-family="YandexSansText-Regular" font-size="80.0" fill="#000000" transform="matrix(1.00, 0.00, -0.00, -1.00, 186.4, 932.0)">к</text><text xml:space="preserve" font-family="YandexSansText-Regular" font-size="80.0" fill="#000000" transform="matrix(1.00, 0.00, -0.00, -1.00, 227.9, 932.0)"> </text><text xml:space="preserve" font-family="YandexSansText-Regular" font-size="80.0" fill="#000000" transform="matrix(1.00, 0.00, -0.00, -1.00, 243.6, 932.0)">е</text><text xml:space="preserve" font-family="YandexSansText-Regular" font-size="80.0" fill="#000000" transform="matrix(1.00, 0.00, -0.00, -1.00, 287.0, 932.0)">щ</text><text xml:space="preserve" font-family="YandexSansText-Regular" font-size="80.0" fill="#000000" transform="matrix(1.00, 0.00, -0.00, -1.00, 352.5, 932.0)">е</text><text xml:space="preserve" font-family="YandexSansText-Regular" font-size="80.0" fill="#000000" transform="matrix(1.00, 0.00, -0.00, -1.00, 395.9, 932.0)"> </text><text xml:space="preserve" font-family="YandexSansText-Regular" font-size="80.0" fill="#000000" transform="matrix(1.00, 0.00, -0.00, -1.00, 411.6, 932.0)">м</text><text xml:space="preserve" font-family="YandexSansText-Regular" font-size="80.0" fill="#000000" transform="matrix(1.00, 0.00, -0.00, -1.00, 470.5, 932.0)">о</text><text xml:space="preserve" font-family="YandexSansText-Regular" font-size="80.0" fill="#000000" transform="matrix(1.00, 0.00, -0.00, -1.00, 515.4, 932.0)">ж</text><text xml:space="preserve" font-family="YandexSansText-Regular" font-size="80.0" fill="#000000" transform="matrix(1.00, 0.00, -0.00, -1.00, 574.6, 932.0)">е</text><text xml:space="preserve" font-family="YandexSansText-Regular" font-size="80.0" fill="#000000" transform="matrix(1.00, 0.00, -0.00, -1.00, 617.7, 932.0)">т</text><text xml:space="preserve" font-family="YandexSansText-Regular" font-size="80.0" fill="#000000" transform="matrix(1.00, 0.00, -0.00, -1.00, 655.8, 932.0)"> </text><text xml:space="preserve" font-family="YandexSansText-Regular" font-size="80.0" fill="#000000" transform="matrix(1.00, 0.00, -0.00, -1.00, 671.5, 932.0)">б</text><text xml:space="preserve" font-family="YandexSansText-Regular" font-size="80.0" fill="#000000" transform="matrix(1.00, 0.00, -0.00, -1.00, 719.7, 932.0)">ы</text><text xml:space="preserve" font-family="YandexSansText-Regular" font-size="80.0" fill="#000000" transform="matrix(1.00, 0.00, -0.00, -1.00, 775.8, 932.0)">т</text><text xml:space="preserve" font-family="YandexSansText-Regular" font-size="80.0" fill="#000000" transform="matrix(1.00, 0.00, -0.00, -1.00, 813.9, 932.0)">ь</text><text xml:space="preserve" font-family="YandexSansText-Regular" font-size="80.0" fill="#000000" transform="matrix(1.00, 0.00, -0.00, -1.00, 853.8, 932.0)"> </text><text xml:space="preserve" font-family="YandexSansText-Light" font-size="30.0" fill="#000000" transform="matrix(1.00, 0.00, -0.00, -1.00, 1792.6, 48.1)">4</text><text xml:space="preserve" font-family="YandexSansText-Light" font-size="30.0" fill="#000000" transform="matrix(1.00, 0.00, -0.00, -1.00, 1809.2, 48.1)">1</text></g></svg>